<?xml version="1.0" encoding="UTF-8"?>
<svg id="Layer_8_copy" data-name="Layer 8 copy" xmlns="http://www.w3.org/2000/svg" viewBox="0 0 1000 1000">
  <defs>
    <style>
      .cls-1 {
        fill: #ffff47;
      }

      .cls-2 {
        fill: #ff83ba;
      }

      .cls-3 {
        fill: #8e88ff;
      }

      .cls-4 {
        fill: #75f6f5;
      }
    </style>
  </defs>
  <g id="Layer_22" data-name="Layer 22">
    <g id="Elements_copy" data-name="Elements copy">
      <g>
        <g>
          <polygon class="cls-4" points="763.08 364.22 764.36 380.83 789.63 380.83 763.08 364.22"/>
          <polygon class="cls-4" points="599.24 337.41 629.12 378.1 627.47 379.31 628.58 380.83 648.94 380.83 672.79 362.47 678.89 370.39 677.22 371.68 678.89 373.85 669.83 380.83 691.28 380.83 702.93 370.32 709.63 377.75 707.91 379.3 709.28 380.83 725.44 380.83 731.84 352.03 741.6 354.19 740.87 357.49 741.6 357.66 736.45 380.83 754.06 380.83 752.66 362.66 752.93 362.64 752.66 359.2 754.8 359.04 704.95 327.86 695.49 345.92 686.63 341.28 696.45 322.54 683.36 314.36 668.86 342.11 660 337.48 674.86 309.04 647.53 291.94 649.48 295.41 640.77 300.32 629.81 280.86 602.62 263.86 599.24 290.44 599.24 337.41"/>
          <polygon class="cls-4" points="599.24 380.83 616.17 380.83 599.24 357.77 599.24 380.83"/>
          <path class="cls-3" d="m180.06,363.45l63.43,37.66-.19-96.82c0-.96.11-1.9.32-2.8l-63.55-39.75v101.71Z"/>
          <polygon class="cls-3" points="180.06 468.38 243.7 506.17 243.55 430.59 180.06 392.9 180.06 468.38"/>
          <polygon class="cls-3" points="180.06 560.86 243.89 598.76 243.76 535.65 180.06 497.83 180.06 560.86"/>
          <polygon class="cls-3" points="180.06 643.56 243.98 643.56 243.95 628.24 180.06 590.31 180.06 643.56"/>
          <polygon class="cls-2" points="244.07 689.75 244.03 671.17 214.36 671.17 244.07 689.75"/>
          <polygon class="cls-2" points="325.23 676.49 316.26 671.17 269.35 671.17 269.42 705.61 325.12 740.44 325.23 676.49"/>
          <polygon class="cls-3" points="325.39 584.11 269.11 550.7 269.24 613.81 319.35 643.56 325.29 643.56 325.39 584.11"/>
          <polygon class="cls-3" points="325.58 479.29 268.9 445.64 269.05 521.22 325.44 554.7 325.58 479.29"/>
          <polygon class="cls-3" points="325.8 352.9 268.64 317.15 268.84 416.16 325.63 449.88 325.8 352.9"/>
          <polygon class="cls-2" points="402.06 722.11 350.52 691.51 350.41 756.26 402.06 788.57 402.06 722.11"/>
          <polygon class="cls-2" points="402.06 671.17 365.86 671.17 402.06 692.66 402.06 671.17"/>
          <polygon class="cls-3" points="402.06 629.63 350.69 599.13 350.61 643.56 402.06 643.56 402.06 629.63"/>
          <polygon class="cls-3" points="402.06 524.7 350.87 494.31 350.74 569.71 402.06 600.18 402.06 524.7"/>
          <polygon class="cls-3" points="402.06 400.6 351.09 368.72 350.92 464.89 402.06 495.25 402.06 400.6"/>
          <polygon class="cls-4" points="418.2 380.83 433.26 380.83 431.66 378.76 473.7 346.06 479.84 353.96 478.16 355.26 479.84 357.42 449.74 380.83 483.03 380.83 492.38 373.55 498.04 380.83 526.64 380.83 528.23 371.31 538.09 372.96 537.53 376.33 538.09 376.42 537.36 380.83 571.63 380.83 571.63 371 566.97 364.65 568.62 363.44 566.97 361.19 571.63 357.77 571.63 290.11 569.89 311.4 559.92 310.59 564.26 257.49 571.63 258.09 571.63 251.98 544.82 251.98 547.84 255.86 505.79 288.57 499.65 280.68 536.54 251.98 514.49 251.98 496.08 268.94 489.3 261.58 499.73 251.98 432.32 251.98 434.03 266.9 424.09 268.04 422.25 251.98 407.93 251.98 414.84 273.59 405.32 276.63 397.43 251.98 349.77 251.98 354.16 285.88 344.25 287.17 339.68 251.98 320.54 251.98 329.34 289.18 319.61 291.48 310.26 251.98 294.85 251.98 293.05 260.99 283.54 259.09 284.96 251.98 227.12 251.98 217.53 255.32 299.99 306.89 309.85 299.62 315.79 307.67 309.1 312.59 389.77 363.05 395.45 360.74 398.66 368.61 418.2 380.83"/>
          <path class="cls-1" d="m449.12,800.17s0-.01,0-.02c-1.21-2.63-2.68-5.12-4.39-7.45-2.11-2.59-4.49-4.95-7.09-7.06-3.17-2.34-6.59-4.31-10.2-5.91-.13-.05-.25-.09-.38-.14v20.57h22.06Z"/>
          <path class="cls-1" d="m573.19,800.17c-2.2-2.6-4.64-5-7.29-7.15-3.42-2.53-7.1-4.67-10.99-6.38-3.79-1.48-7.73-2.55-11.75-3.19-3.79-.42-7.61-.43-11.39-.02-3.74.6-7.4,1.6-10.94,2.97-3.85,1.7-7.5,3.82-10.88,6.32-2.77,2.23-5.31,4.73-7.62,7.44h70.86Z"/>
          <path class="cls-1" d="m658.23,800.17s-.08-.04-.12-.06c-3.95-1.54-8.07-2.64-12.26-3.29-4.51-.51-9.07-.51-13.58,0-4.1.64-8.12,1.71-11.98,3.22-.1.04-.19.09-.29.14h38.24Z"/>
          <path class="cls-1" d="m821.25,406.15h-59.53c5.39,1.32,10.64,3.41,15.54,5.98,5.24,2.75,10.12,6.29,14.48,10.28,4.35,3.97,8.17,8.64,11.29,13.63,6.19,9.9,9.32,21.67,9.07,33.33-.26,11.58-3.55,23.13-9.39,33.13-5.81,9.96-14.31,18.63-24.5,24.11-2.13,1.14-4.37,1.41-6.7.88-2.22-.51-4-2.14-5.2-4-1.19-1.85-1.45-4.62-.88-6.7.56-2.03,2.11-4.19,4-5.2,2.11-1.14,4.14-2.42,6.07-3.84,3.16-2.53,6.01-5.41,8.55-8.56,2.7-3.64,4.97-7.58,6.79-11.72,1.63-4.16,2.81-8.49,3.5-12.91.45-4.05.49-8.14.06-12.19-.58-3.82-1.59-7.56-3.01-11.15-1.59-3.53-3.56-6.87-5.86-9.98-2.74-3.4-5.86-6.49-9.28-9.21-3.54-2.6-7.35-4.81-11.36-6.6-4.04-1.61-8.24-2.78-12.53-3.45-3.68-.41-7.39-.45-11.07-.08-1.39.3-2.77.28-4.16-.09-.69-.29-1.39-.58-2.08-.88-2.01-1.06-3.32-3.09-4-5.2-.68-2.09-.21-4.84.88-6.7.55-1.01,1.29-1.83,2.24-2.44.17-.16.36-.3.55-.44h-37.96c.05.1.11.19.16.29,2.19,4.32,4.03,8.89,5.28,13.57,1.26,4.7,1.99,9.6,2.23,14.45.24,4.88-.23,9.77-1.09,14.57-.39,2.2-2.19,4.03-4,5.2-1.98,1.27-4.48,1.38-6.7.88-2.07-.47-4.14-2.19-5.2-4-.64-1-.98-2.08-1.03-3.23-.26-1.16-.21-2.31.16-3.47.08-.44.14-.87.21-1.31.44-4.06.42-8.15-.04-12.21-.67-4.31-1.82-8.54-3.41-12.6-1.79-4.08-4.03-7.94-6.68-11.52-.17-.21-.35-.41-.52-.62h-181.88c-.23.3-.47.59-.75.87-.59.45-1.17.91-1.76,1.36-1.98,1.27-4.48,1.38-6.7.88-1.73-.39-3.44-1.65-4.58-3.1h-11.6c-.04,1.32-.13,2.64-.3,3.96-.37,2.91-.8,5.77-1.64,8.58-.81,2.72-1.91,5.37-3.16,7.91-.95,1.93-2.07,3.78-3.36,5.5-1.73,2.31-3.51,4.53-5.66,6.46-1.78,1.6-3.78,2.44-6.15,2.55-2.32.1-4.49-1.03-6.15-2.55-1.6-1.47-2.55-4.02-2.55-6.15s.94-4.7,2.55-6.15c1.22-1.1,2.33-2.31,3.38-3.58,1.27-1.8,2.37-3.7,3.3-5.7.98-2.53,1.68-5.15,2.13-7.83.1-1,.16-2,.19-3h-24.38v109.26c.21,1.3.21,2.64,0,3.96v8.42c2.23.28,4.45.62,6.63,1.18,1.75.46,3.48,1.03,5.16,1.72,2.35.96,4.68,1.96,6.89,3.21,3.76,2.13,7.29,4.81,10.39,7.82,1.33,1.29,2.56,2.66,3.71,4.12,1.54,1.96,3.04,3.92,4.3,6.07,1.28,2.19,2.28,4.5,3.24,6.85.68,1.67,1.23,3.39,1.65,5.14.98,4.12,1.46,8.48,1.25,12.72-.2,4.28-.9,8.63-2.19,12.72-1.28,4.04-3.02,8.02-5.25,11.63-2.22,3.58-4.89,6.99-7.96,9.89-3.06,2.89-6.54,5.48-10.29,7.41-2.16,1.11-4.35,1.41-6.7.88-2.22-.51-4-2.14-5.2-4-1.19-1.85-1.45-4.62-.88-6.7.55-1.99,2.12-4.24,4-5.2,1.61-.83,3.16-1.78,4.63-2.83,2.02-1.65,3.87-3.51,5.53-5.53,1.71-2.35,3.18-4.86,4.38-7.51,1.07-2.75,1.86-5.6,2.34-8.51.27-2.66.29-5.33.02-7.99-.4-2.35-1.03-4.65-1.88-6.87-1.05-2.28-2.33-4.45-3.81-6.49-1.76-2.15-3.73-4.11-5.88-5.87-2.35-1.72-4.87-3.19-7.52-4.4-2.13-.83-4.31-1.47-6.54-1.92v75.02c.21,1.3.21,2.64,0,3.96v88.52c.21,1.3.21,2.64,0,3.96v44.57c4.61,1.3,9.09,3.09,13.33,5.41,4.54,2.48,8.81,5.64,12.56,9.2,3.74,3.56,7.06,7.76,9.6,12.26,2.1,3.73,3.79,7.78,4.83,11.96h14.25c1.48-2.95,3.24-5.76,5.24-8.39,2.76-3.62,5.68-7.02,9.13-10.01,6.89-5.98,14.77-10.54,23.48-13.31,4.35-1.38,8.88-2.15,13.43-2.55,4.65-.41,9.2-.04,13.81.6,3.92.54,7.77,1.49,11.49,2.84,4.35,1.58,8.61,3.51,12.55,5.95,7.91,4.89,14.63,11.38,19.75,19.14,1.11,1.67,1.33,3.77,1.05,5.73h11.35c-.08-.11-.16-.22-.24-.34-1.19-1.85-1.45-4.62-.88-6.7.58-2.12,2.11-4.08,4-5.2.93-.55,1.88-1.08,2.84-1.57,9.03-4.64,19.01-7.11,29.16-7.32,5.06-.11,10.17.45,15.13,1.43,4.97.98,9.69,2.69,14.32,4.75,4.61,2.06,8.7,4.8,12.67,7.89,2.71,2.11,5.2,4.48,7.46,7.06h133.88v-23.72c-4.1-.31-8.23-.23-12.32.24-5.95.9-11.77,2.54-17.36,4.79-1.88.82-3.74,1.7-5.56,2.65-2.15,1.12-4.36,1.41-6.7.88-2.22-.51-4-2.14-5.2-4-1.19-1.85-1.45-4.62-.88-6.7.55-2.01,2.12-4.21,4-5.2,1.21-.63,2.43-1.24,3.66-1.81,11.02-5.13,22.88-8.35,35.1-8.45,1.75-.02,3.51.05,5.25.17v-155.95c-.9.31-1.83.48-2.73.46-2.18-.05-4.35.05-6.52.29-3.64.59-7.21,1.57-10.65,2.9-3.82,1.68-7.43,3.79-10.78,6.26-3.09,2.49-5.92,5.3-8.42,8.39-2.17,2.95-4.04,6.11-5.55,9.45-1.31,3.34-2.25,6.81-2.79,10.35-.37,3.67-.34,7.36.06,11.03.63,4.02,1.7,7.95,3.18,11.74,1.68,3.8,3.77,7.4,6.24,10.74,2.27,2.8,4.81,5.36,7.61,7.64,1.46,1.07,2.96,2.08,4.53,2.99,2,1.15,3.3,3.05,4,5.2.72,2.24.19,4.68-.88,6.7-.99,1.88-3.18,3.44-5.2,4-2.19.6-4.74.26-6.7-.88-.97-.56-1.93-1.15-2.86-1.78-8.62-5.8-15.77-13.77-20.47-23.05-4.71-9.31-7.38-19.72-7.17-30.19.22-10.56,3.3-21.04,9.03-29.93,5.71-8.87,13.64-16.37,22.88-21.47,9.25-5.11,19.85-8.02,30.45-7.77.97.02,1.87.19,2.73.49v-42.76c-.67-.41-1.3-.88-1.84-1.38-1.71-1.57-2.45-3.9-2.55-6.15-.1-2.17,1.04-4.64,2.55-6.15.54-.58,1.16-1.04,1.84-1.39v-122.64Z"/>
        </g>
        <path d="m449.53,272.94l-7.07-7.07,5.71-5.71,7.07,7.07-5.71,5.71Zm31.04,56.44l-29.92-44.08-8.27,5.62,29.92,44.08,8.27-5.62Zm122.46-40.02l2.94,9.56,12.37-3.81-2.94-9.56-12.37,3.81Zm27.99,33.36l-9.29,3.71,3.8,9.51,9.29-3.71-3.8-9.51Zm-175.65,23.75l-29.9-44.08-8.28,5.61,29.9,44.08,8.28-5.61Zm-75.78-83.84l-3.71-9.29-9.51,3.8,3.71,9.29,9.51-3.8Zm23.94,73.31l3.8,9.51,9.29-3.71-3.8-9.51-9.29,3.71Zm-8.06-54.65l-48.23,22.61,4.25,9.05,48.23-22.61-4.25-9.05Zm12.92,27.56l-48.23,22.61,4.25,9.05,48.23-22.61-4.25-9.05Zm-169.06-41.44l48.38,22.3,4.19-9.08-48.38-22.3-4.19,9.08Zm306.09,20.98l-9.29-3.71-3.81,9.51,9.29,3.71,3.81-9.51Zm178.53,51.99l-8.68-4.96-7.61,13.32,8.68,4.96,7.61-13.32Zm-177.98-6.25l-29.93-26.17-6.58,7.53,29.93,26.17,6.58-7.53Zm-15.02,19.21l-33.2-32.46-6.99,7.15,33.2,32.46,6.99-7.15Zm316.07,463.14c-1.7,5.92-7.11,10-13.27,10h-419.19c-2.59,0-5.13-.73-7.32-2.1l-248.31-155.31c-.07-.04-.13-.09-.2-.13-.15-.1-.3-.2-.44-.3-.21-.15-.41-.3-.6-.45-.12-.1-.25-.19-.36-.3-.22-.19-.43-.38-.63-.58-.09-.09-.18-.17-.27-.26-.26-.26-.51-.54-.74-.82-.03-.03-.06-.07-.09-.1-.26-.32-.51-.65-.74-.99-.07-.11-.14-.22-.21-.33-.15-.23-.29-.46-.42-.7-.09-.16-.17-.31-.25-.47-.1-.2-.2-.41-.3-.61-.08-.18-.16-.35-.23-.53-.08-.21-.16-.43-.23-.64-.06-.17-.12-.34-.18-.52-.11-.38-.21-.76-.29-1.14-.02-.1-.03-.21-.05-.31-.06-.32-.11-.64-.15-.96-.01-.13-.02-.26-.03-.4-.03-.31-.04-.63-.05-.94,0-.07-.01-.14-.01-.22V238.18c0-7.62,6.18-13.81,13.81-13.81h419.19c4.72,0,8.88,2.37,11.37,5.99l243.65,152.4c4.33,2.71,6.56,7.72,5.79,12.68v411.39c1.38,2.95,1.72,6.37.77,9.66Zm-83.94-452.26l1.28,16.61h25.28l-26.56-16.61Zm-163.84-102.25l.45.06-.45-.28v.23Zm0,75.44l29.88,40.69-1.65,1.21,1.11,1.51h20.36l23.85-18.36,6.1,7.92-1.67,1.29,1.67,2.17-9.06,6.98h21.45l11.65-10.5,6.7,7.43-1.72,1.55,1.37,1.52h16.16l6.4-28.8,9.76,2.17-.73,3.3.73.16-5.15,23.17h17.61l-1.4-18.16.26-.02-.26-3.44,2.13-.16-49.84-31.18-9.46,18.06-8.86-4.64,9.81-18.73-13.09-8.19-14.5,27.75-8.86-4.63,14.86-28.44-27.33-17.1,1.95,3.47-8.71,4.91-10.96-19.46-27.19-17-3.38,26.58v46.97Zm0,43.41h16.93l-16.93-23.06v23.06Zm-419.19-17.37l63.43,37.66-.19-96.82c0-.96.11-1.9.32-2.8l-63.55-39.75v101.71Zm0,104.93l63.64,37.78-.15-75.57-63.49-37.69v75.48Zm0,92.48l63.83,37.89-.13-63.11-63.7-37.82v63.03Zm0,82.69h63.92l-.03-15.32-63.89-37.93v53.25Zm64.01,46.19l-.04-18.58h-29.67l29.71,18.58Zm25.23-46.19h.45l-.45-.27v.27Zm55.93,32.94l-8.97-5.33h-46.91l.07,34.44,55.7,34.84.11-63.95Zm.16-92.38l-56.28-33.41.13,63.11,50.11,29.75h5.94l.1-59.44Zm.18-104.82l-56.68-33.65.15,75.57,56.39,33.48.13-75.41Zm.22-126.39l-57.16-35.75.2,99.01,56.79,33.71.17-96.98Zm76.27,369.21l-51.54-30.6-.11,64.75,51.65,32.31v-66.46Zm0-50.94h-36.21l36.21,21.49v-21.49Zm0-41.54l-51.38-30.5-.08,44.43h51.46v-13.93Zm0-104.93l-51.19-30.39-.13,75.41,51.33,30.47v-75.48Zm0-124.1l-50.97-31.88-.17,96.17,51.14,30.36v-94.65Zm16.13-19.77h15.06l-1.61-2.06,42.05-32.7,6.14,7.89-1.68,1.31,1.68,2.16-30.1,23.41h33.29l9.35-7.27,5.66,7.27h28.6l1.59-9.51,9.86,1.64-.56,3.37.56.09-.73,4.41h34.27v-9.83l-4.66-6.35,1.65-1.21-1.65-2.25,4.66-3.42v-67.66l-1.74,21.29-9.97-.81,4.34-53.1,7.37.6v-6.11h-26.81l3.02,3.88-42.05,32.71-6.14-7.89,36.89-28.69h-22.05l-18.42,16.95-6.77-7.36,10.42-9.59h-67.41l1.71,14.92-9.94,1.14-1.84-16.06h-14.32l6.91,21.6-9.52,3.05-7.89-24.65h-47.66l4.4,33.9-9.92,1.29-4.56-35.19h-19.15l8.8,37.2-9.73,2.3-9.35-39.5h-15.41l-1.8,9.01-9.51-1.9,1.42-7.1h-57.84l-9.59,3.33,82.46,51.57,9.87-7.27,5.93,8.05-6.68,4.92,80.67,50.45,5.68-2.31,3.21,7.87,19.54,12.22Zm30.93,419.35s0-.01,0-.02c-1.21-2.63-2.68-5.12-4.39-7.45-2.11-2.59-4.49-4.95-7.09-7.06-3.17-2.34-6.59-4.31-10.2-5.91-.13-.05-.25-.09-.38-.14v20.57h22.06Zm124.07,0c-2.2-2.6-4.64-5-7.29-7.15-3.42-2.53-7.1-4.67-10.99-6.38-3.79-1.48-7.73-2.55-11.75-3.19-3.79-.42-7.61-.43-11.39-.02-3.74.6-7.4,1.6-10.94,2.97-3.85,1.7-7.5,3.82-10.88,6.32-2.77,2.23-5.31,4.73-7.62,7.44h70.86Zm85.04,0s-.08-.04-.12-.06c-3.95-1.54-8.07-2.64-12.26-3.29-4.51-.51-9.07-.51-13.58,0-4.1.64-8.12,1.71-11.98,3.22-.1.04-.19.09-.29.14h38.24Zm163.02-394.02h-59.53c5.39,1.32,10.64,3.41,15.54,5.98,5.24,2.75,10.12,6.29,14.48,10.28,4.35,3.97,8.17,8.64,11.29,13.63,6.19,9.9,9.32,21.67,9.07,33.33-.26,11.58-3.55,23.13-9.39,33.13-5.81,9.96-14.31,18.63-24.5,24.11-2.13,1.14-4.37,1.41-6.7.88-2.22-.51-4-2.14-5.2-4-1.19-1.85-1.45-4.62-.88-6.7.56-2.03,2.11-4.19,4-5.2,2.11-1.14,4.14-2.42,6.07-3.84,3.16-2.53,6.01-5.41,8.55-8.56,2.7-3.64,4.97-7.58,6.79-11.72,1.63-4.16,2.81-8.49,3.5-12.91.45-4.05.49-8.14.06-12.19-.58-3.82-1.59-7.56-3.01-11.15-1.59-3.53-3.56-6.87-5.86-9.98-2.74-3.4-5.86-6.49-9.28-9.21-3.54-2.6-7.35-4.81-11.36-6.6-4.04-1.61-8.24-2.78-12.53-3.45-3.68-.41-7.39-.45-11.07-.08-1.39.3-2.77.28-4.16-.09-.69-.29-1.39-.58-2.08-.88-2.01-1.06-3.32-3.09-4-5.2-.68-2.09-.21-4.84.88-6.7.55-1.01,1.29-1.83,2.24-2.44.17-.16.36-.3.55-.44h-37.96c.05.1.11.19.16.29,2.19,4.32,4.03,8.89,5.28,13.57,1.26,4.7,1.99,9.6,2.23,14.45.24,4.88-.23,9.77-1.09,14.57-.39,2.2-2.19,4.03-4,5.2-1.98,1.27-4.48,1.38-6.7.88-2.07-.47-4.14-2.19-5.2-4-.64-1-.98-2.08-1.03-3.23-.26-1.16-.21-2.31.16-3.47.08-.44.14-.87.21-1.31.44-4.06.42-8.15-.04-12.21-.67-4.31-1.82-8.54-3.41-12.6-1.79-4.08-4.03-7.94-6.68-11.52-.17-.21-.35-.41-.52-.62h-181.88c-.23.3-.47.59-.75.87-.59.45-1.17.91-1.76,1.36-1.98,1.27-4.48,1.38-6.7.88-1.73-.39-3.44-1.65-4.58-3.1h-11.6c-.04,1.32-.13,2.64-.3,3.96-.37,2.91-.8,5.77-1.64,8.58-.81,2.72-1.91,5.37-3.16,7.91-.95,1.93-2.07,3.78-3.36,5.5-1.73,2.31-3.51,4.53-5.66,6.46-1.78,1.6-3.78,2.44-6.15,2.55-2.32.1-4.49-1.03-6.15-2.55-1.6-1.47-2.55-4.02-2.55-6.15s.94-4.7,2.55-6.15c1.22-1.1,2.33-2.31,3.38-3.58,1.27-1.8,2.37-3.7,3.3-5.7.98-2.53,1.68-5.15,2.13-7.83.1-1,.16-2,.19-3h-24.38v109.26c.21,1.3.21,2.64,0,3.96v8.42c2.23.28,4.45.62,6.63,1.18,1.75.46,3.48,1.03,5.16,1.72,2.35.96,4.68,1.96,6.89,3.21,3.76,2.13,7.29,4.81,10.39,7.82,1.33,1.29,2.56,2.66,3.71,4.12,1.54,1.96,3.04,3.92,4.3,6.07,1.28,2.19,2.28,4.5,3.24,6.85.68,1.67,1.23,3.39,1.65,5.14.98,4.12,1.46,8.48,1.25,12.72-.2,4.28-.9,8.63-2.19,12.72-1.28,4.04-3.02,8.02-5.25,11.63-2.22,3.58-4.89,6.99-7.96,9.89-3.06,2.89-6.54,5.48-10.29,7.41-2.16,1.11-4.35,1.41-6.7.88-2.22-.51-4-2.14-5.2-4-1.19-1.85-1.45-4.62-.88-6.7.55-1.99,2.12-4.24,4-5.2,1.61-.83,3.16-1.78,4.63-2.83,2.02-1.65,3.87-3.51,5.53-5.53,1.71-2.35,3.18-4.86,4.38-7.51,1.07-2.75,1.86-5.6,2.34-8.51.27-2.66.29-5.33.02-7.99-.4-2.35-1.03-4.65-1.88-6.87-1.05-2.28-2.33-4.45-3.81-6.49-1.76-2.15-3.73-4.11-5.88-5.87-2.35-1.72-4.87-3.19-7.52-4.4-2.13-.83-4.31-1.47-6.54-1.92v75.02c.21,1.3.21,2.64,0,3.96v88.52c.21,1.3.21,2.64,0,3.96v44.57c4.61,1.3,9.09,3.09,13.33,5.41,4.54,2.48,8.81,5.64,12.56,9.2,3.74,3.56,7.06,7.76,9.6,12.26,2.1,3.73,3.79,7.78,4.83,11.96h14.25c1.48-2.95,3.24-5.76,5.24-8.39,2.76-3.62,5.68-7.02,9.13-10.01,6.89-5.98,14.77-10.54,23.48-13.31,4.35-1.38,8.88-2.15,13.43-2.55,4.65-.41,9.2-.04,13.81.6,3.92.54,7.77,1.49,11.49,2.84,4.35,1.58,8.61,3.51,12.55,5.95,7.91,4.89,14.63,11.38,19.75,19.14,1.11,1.67,1.33,3.77,1.05,5.73h11.35c-.08-.11-.16-.22-.24-.34-1.19-1.85-1.45-4.62-.88-6.7.58-2.12,2.11-4.08,4-5.2.93-.55,1.88-1.08,2.84-1.57,9.03-4.64,19.01-7.11,29.16-7.32,5.06-.11,10.17.45,15.13,1.43,4.97.98,9.69,2.69,14.32,4.75,4.61,2.06,8.7,4.8,12.67,7.89,2.71,2.11,5.2,4.48,7.46,7.06h133.88v-23.72c-4.1-.31-8.23-.23-12.32.24-5.95.9-11.77,2.54-17.36,4.79-1.88.82-3.74,1.7-5.56,2.65-2.15,1.12-4.36,1.41-6.7.88-2.22-.51-4-2.14-5.2-4-1.19-1.85-1.45-4.62-.88-6.7.55-2.01,2.12-4.21,4-5.2,1.21-.63,2.43-1.24,3.66-1.81,11.02-5.13,22.88-8.35,35.1-8.45,1.75-.02,3.51.05,5.25.17v-155.95c-.9.31-1.83.48-2.73.46-2.18-.05-4.35.05-6.52.29-3.64.59-7.21,1.57-10.65,2.9-3.82,1.68-7.43,3.79-10.78,6.26-3.09,2.49-5.92,5.3-8.42,8.39-2.17,2.95-4.04,6.11-5.55,9.45-1.31,3.34-2.25,6.81-2.79,10.35-.37,3.67-.34,7.36.06,11.03.63,4.02,1.7,7.95,3.18,11.74,1.68,3.8,3.77,7.4,6.24,10.74,2.27,2.8,4.81,5.36,7.61,7.64,1.46,1.07,2.96,2.08,4.53,2.99,2,1.15,3.3,3.05,4,5.2.72,2.24.19,4.68-.88,6.7-.99,1.88-3.18,3.44-5.2,4-2.19.6-4.74.26-6.7-.88-.97-.56-1.93-1.15-2.86-1.78-8.62-5.8-15.77-13.77-20.47-23.05-4.71-9.31-7.38-19.72-7.17-30.19.22-10.56,3.3-21.04,9.03-29.93,5.71-8.87,13.64-16.37,22.88-21.47,9.25-5.11,19.85-8.02,30.45-7.77.97.02,1.87.19,2.73.49v-42.76c-.67-.41-1.3-.88-1.84-1.38-1.71-1.57-2.45-3.9-2.55-6.15-.1-2.17,1.04-4.64,2.55-6.15.54-.58,1.16-1.04,1.84-1.39v-122.64Zm-171.23,302.96c-1.88-4.14-4.44-7.83-7.28-11.37-2.41-2.99-5.17-5.69-8.17-8.09-3.91-3.13-8-5.95-12.45-8.27-4.51-2.35-9.26-4.31-14.08-5.93-2.07-.69-4.86-.2-6.7.88-1.8,1.06-3.52,3.12-4,5.2-.51,2.23-.4,4.73.88,6.7,1.27,1.96,2.97,3.25,5.2,4,1.81.61,3.61,1.28,5.38,2,4.71,2.08,9.22,4.61,13.37,7.67,2.99,2.39,5.73,5.07,8.14,8.04,1.83,2.52,3.41,5.21,4.7,8.04,1.06,2.72,1.85,5.53,2.32,8.41.24,2.4.25,4.8.01,7.2-.34,1.94-.85,3.83-1.54,5.67-.82,1.74-1.8,3.4-2.92,4.97-1.23,1.48-2.59,2.84-4.07,4.07-1.38.98-2.83,1.83-4.36,2.56-1.4.52-2.84.91-4.3,1.17-.39.03-.78.05-1.17.07-2.28.08-4.52.92-6.15,2.55-1.51,1.51-2.64,3.98-2.55,6.15.1,2.25.84,4.58,2.55,6.15,1.67,1.53,3.82,2.63,6.15,2.55,8.96-.3,17.32-4.15,23.76-10.32,2.91-2.78,5.47-6.13,7.37-9.68,1.96-3.67,3.47-7.68,4.11-11.81.41-2.61.73-5.23.71-7.87-.02-2.64-.36-5.27-.78-7.88-.71-4.48-2.27-8.71-4.15-12.83Zm-35.29-101.5c3.9-3.69,7.27-8.14,9.7-12.93,5.18-10.24,7-21.91,4.49-33.17-2.39-10.7-9.29-19.85-18.51-25.64-8.98-5.64-20.24-7.78-30.58-5.24-1.02.25-2.03.57-3.02.94-1.13.27-2.12.79-2.96,1.56-.95.61-1.69,1.43-2.24,2.44-1.09,1.86-1.55,4.61-.88,6.7.68,2.1,1.99,4.14,4,5.2,1.96,1.04,4.54,1.69,6.7.88,1.49-.56,3.02-.97,4.58-1.26,1.83-.17,3.67-.17,5.5,0,2.11.37,4.18.94,6.19,1.7,2.03.94,3.96,2.07,5.78,3.38,1.59,1.32,3.06,2.78,4.38,4.37,1.09,1.54,2.04,3.16,2.84,4.87.81,2.12,1.4,4.3,1.78,6.54.27,2.64.26,5.3-.01,7.94-.48,2.9-1.26,5.73-2.33,8.47-1.15,2.5-2.53,4.89-4.14,7.12-1.77,2.16-3.76,4.13-5.93,5.9-2.8,2.06-5.82,3.79-9,5.2-3.51,1.36-7.15,2.34-10.86,2.94-3.76.44-7.55.51-11.32.18-2.1-.19-4.71,1.1-6.15,2.55-1.51,1.51-2.64,3.98-2.55,6.15.1,2.25.84,4.58,2.55,6.15.59.45,1.17.91,1.76,1.36,1.36.79,2.82,1.18,4.39,1.19,5.6.49,11.19.05,16.72-.92,5.45-.96,10.69-2.82,15.67-5.21,4.92-2.36,9.5-5.6,13.46-9.34Zm127.78,98.1c-3.39.47-6.72,1.28-9.94,2.46-3.65,1.35-7.24,2.97-10.55,5.03-3.26,2.03-6.36,4.41-9.19,7.02-2.85,2.63-5.3,5.59-7.62,8.7-2.16,2.89-4.02,6.02-5.51,9.31-1.78,3.93-3.28,7.93-4.14,12.16-.47,2.31-.34,4.62.88,6.7,1.06,1.8,3.12,3.52,5.2,4,2.23.51,4.73.4,6.7-.88,1.83-1.18,3.55-2.99,4-5.2.54-2.65,1.32-5.23,2.29-7.75,1.48-3.3,3.31-6.42,5.45-9.33,2.23-2.75,4.74-5.26,7.49-7.5,2.74-2.01,5.67-3.74,8.76-5.14,3.11-1.22,6.34-2.09,9.64-2.62,3.66-.4,7.34-.39,11,0,3.7.59,7.31,1.57,10.79,2.95,3.05,1.38,5.94,3.06,8.64,5.04.75.75,1.62,1.3,2.61,1.62,1.04.54,2.15.79,3.35.75,2.13,0,4.68-.95,6.15-2.55,1.52-1.66,2.65-3.83,2.55-6.15-.1-2.16-.79-4.74-2.55-6.15-3.24-2.6-6.58-4.97-10.31-6.82-3.63-1.8-7.45-3.33-11.36-4.38-3.94-1.06-8.05-1.66-12.11-1.93-4.12-.27-8.15.08-12.23.65Zm-169.96-2.29c-.69-.29-1.39-.58-2.08-.88-1.54-.41-3.08-.41-4.62,0-.61.12-1.23.2-1.84.3-3.8.4-7.63.37-11.43-.05-4.21-.66-8.32-1.79-12.29-3.34-4.16-1.82-8.09-4.11-11.74-6.81-3.21-2.58-6.14-5.49-8.73-8.69-2.2-2.98-4.08-6.17-5.61-9.54-1.43-3.62-2.43-7.38-3.02-11.23-.43-4.12-.4-8.27.06-12.38.68-4.39,1.85-8.68,3.47-12.82,1.77-4.02,3.96-7.83,6.57-11.36,2.41-2.99,5.12-5.72,8.11-8.13.93-.68,1.87-1.34,2.84-1.95,1.89-1.2,3.4-3.01,4-5.2.57-2.08.31-4.85-.88-6.7-1.2-1.86-2.98-3.49-5.2-4-2.24-.51-4.71-.39-6.7.88-9.62,6.11-17.55,14.93-22.61,25.15-2.55,5.16-4.6,10.62-5.79,16.25-1.18,5.56-1.79,11.34-1.52,17.02.54,11.5,4.09,22.9,10.86,32.28,3.41,4.73,7.26,9.06,11.8,12.72,4.51,3.62,9.26,6.82,14.53,9.21,5.32,2.41,10.8,4.35,16.58,5.32,5.71.95,11.46,1.39,17.22.71,1.98-.23,3.96-.5,5.93-.87,2.04-.39,4.18-2.26,5.2-4,1.09-1.86,1.55-4.61.88-6.7-.68-2.1-1.99-4.14-4-5.2Zm138.21-26.54c2.13-.63,4.07-2.07,5.2-4,1.09-1.86,1.55-4.61.88-6.7-.68-2.1-1.99-4.14-4-5.2-2.05-1.08-4.43-1.56-6.7-.88-2.89.86-5.84,1.51-8.83,1.96-4.99.57-10.03.57-15.02,0-4.38-.68-8.68-1.81-12.8-3.42-3.55-1.57-6.93-3.51-10.06-5.81-2.41-1.96-4.64-4.15-6.61-6.56-1.78-2.45-3.3-5.08-4.55-7.84-1.27-3.22-2.18-6.56-2.73-9.98-.36-3.35-.38-6.72-.01-10.06.47-2.81,1.2-5.56,2.23-8.22.99-2.15,2.18-4.2,3.57-6.12.66-.8,1.35-1.58,2.08-2.32,1.57-1.59,2.55-3.91,2.55-6.15s-.95-4.68-2.55-6.15c-1.66-1.52-3.83-2.65-6.15-2.55-2.3.1-4.5.88-6.15,2.55-6.65,6.73-11.13,15.74-12.5,25.1-.7,4.83-1.02,9.59-.43,14.44.59,4.87,1.51,9.6,3.32,14.17,1.79,4.52,3.91,8.83,6.87,12.71,1.7,2.22,3.42,4.37,5.42,6.33,2.08,2.03,4.36,3.83,6.68,5.57,4.1,3.06,8.59,5.28,13.3,7.23,4.11,1.71,8.42,2.93,12.81,3.69,5.13.88,10.32,1.38,15.53,1.19,5.18-.18,10.4-.89,15.44-2.11,1.08-.26,2.15-.56,3.21-.87Zm-29.43-148.19c-4.62-1.67-9.4-2.57-14.28-3.11-4.9-.55-9.7-.22-14.57.47-1.03.15-2.05.33-3.06.54-2.06.43-4.16,2.22-5.2,4-1.09,1.86-1.55,4.61-.88,6.7.68,2.1,1.99,4.14,4,5.2,2.14,1.13,4.32,1.38,6.7.88.65-.14,1.31-.26,1.97-.37,3.76-.43,7.56-.41,11.32.03,3.65.6,7.22,1.59,10.67,2.93,3.62,1.6,7.05,3.59,10.24,5.94,2.73,2.21,5.22,4.68,7.43,7.41,1.9,2.6,3.53,5.38,4.86,8.31,1.36,3.47,2.33,7.08,2.89,10.77.39,3.73.38,7.48,0,11.21-.61,4-1.66,7.92-3.15,11.68-1.45,3.22-3.22,6.27-5.32,9.11-.65.79-1.31,1.57-2.01,2.32-1.55,1.67-2.55,3.84-2.55,6.15,0,2.13.95,4.68,2.55,6.15,1.66,1.52,3.83,2.65,6.15,2.55,2.26-.1,4.57-.85,6.15-2.55,6.73-7.22,11.56-16.16,13.96-25.73,2.42-9.65,2.52-19.83.25-29.52-2.24-9.55-7.13-18.37-13.84-25.51-6.68-7.1-15.16-12.27-24.29-15.57Zm-80.3-49.05c-.57,2.08-.31,4.85.88,6.7,1.2,1.86,2.98,3.49,5.2,4,2.27.52,4.66.34,6.7-.88,4.38-2.61,8.91-4.95,13.59-6.98,6.59-2.68,13.46-4.7,20.51-5.76,5.04-.58,10.13-.63,15.18-.05,3.62.57,7.16,1.48,10.58,2.8,3.44,1.53,6.7,3.43,9.73,5.66,2.72,2.21,5.22,4.68,7.43,7.4,1.77,2.42,3.3,5,4.55,7.73.92,2.39,1.61,4.86,2.03,7.39.2,2.15.22,4.31.03,6.47-.19,2.1,1.11,4.71,2.55,6.15,1.51,1.51,3.98,2.64,6.15,2.55,2.25-.1,4.58-.84,6.15-2.55.45-.59.91-1.17,1.36-1.76.79-1.36,1.18-2.82,1.19-4.39.4-4.41-.07-8.94-1.05-13.25-.97-4.26-2.69-8.43-4.79-12.26-4.34-7.89-10.8-14.42-18.17-19.51-3.73-2.57-7.76-4.51-11.95-6.19-3.82-1.54-7.82-2.55-11.9-3.13-5.24-.75-10.43-1.13-15.71-.77-5.26.36-10.53,1.18-15.65,2.46-9.64,2.41-18.97,6.41-27.62,11.27-.99.56-1.97,1.13-2.95,1.71-1.89,1.13-3.41,3.07-4,5.2Zm-67.98,17.45c2.21,4.2,5.11,8.14,8.4,11.55.7.73,1.44,1.43,2.19,2.1,1.72,1.54,3.79,2.55,6.15,2.55,2.13,0,4.68-.95,6.15-2.55,1.52-1.66,2.65-3.83,2.55-6.15-.1-2.23-.83-4.61-2.55-6.15-1.55-1.39-2.99-2.9-4.31-4.5-1.85-2.51-3.42-5.21-4.71-8.05-1.28-3.24-2.19-6.61-2.74-10.06-.37-3.42-.38-6.87,0-10.29.5-3.05,1.3-6.03,2.42-8.91,1.13-2.47,2.5-4.82,4.1-7.02,1.84-2.25,3.91-4.3,6.15-6.14,2.67-1.96,5.55-3.63,8.57-4.99,3.24-1.27,6.61-2.2,10.05-2.75,3.24-.35,6.5-.36,9.75,0,2.6.43,5.15,1.09,7.62,2.01,1.16.36,2.31.41,3.47.16,1.16-.05,2.24-.4,3.23-1.03,1.8-1.06,3.52-3.12,4-5.2.51-2.23.4-4.73-.88-6.7-.45-.59-.91-1.17-1.36-1.76-1.09-1.08-2.36-1.82-3.84-2.24-8.97-3.33-18.84-3.56-28.16-1.75-9.35,1.81-18.01,6.28-25.26,12.37-7.3,6.13-12.61,14.55-15.34,23.65-.58,1.93-1.03,3.9-1.34,5.9-.43,2.73-.78,5.48-.85,8.25-.13,4.8.45,9.7,1.52,14.38,1.07,4.62,2.83,9.14,5.03,13.34Zm-61.19,235.74c-2.87-1.33-5.59-2.96-8.14-4.82-2.77-2.24-5.29-4.77-7.54-7.54-2.21-3-4.1-6.23-5.63-9.63-1.31-3.33-2.27-6.78-2.83-10.31-.35-3.3-.35-6.62,0-9.92.58-3.59,1.55-7.1,2.88-10.48,1.53-3.4,3.41-6.62,5.62-9.62,2.25-2.77,4.77-5.3,7.54-7.54,1.98-1.44,4.05-2.73,6.23-3.85,1.88-.97,3.45-3.2,4-5.2.57-2.08.31-4.85-.88-6.7-1.2-1.86-2.98-3.49-5.2-4-2.35-.54-4.54-.23-6.7.88-3.86,1.99-7.41,4.54-10.72,7.35-3.32,2.81-6.09,6.05-8.72,9.49-2.24,2.92-4.17,6.07-5.75,9.39-1.86,3.93-3.45,8.02-4.44,12.26-1.98,8.53-2.01,17.28-.04,25.81.97,4.2,2.54,8.25,4.37,12.14,1.53,3.26,3.41,6.35,5.59,9.22,2.62,3.45,5.37,6.7,8.65,9.54,3.24,2.8,6.75,5.37,10.54,7.39.79.42,1.59.81,2.39,1.19,1,.64,2.08.98,3.23,1.03,1.16.26,2.31.21,3.47-.16,2.02-.56,4.2-2.12,5.2-4,1.07-2.02,1.6-4.46.88-6.7-.66-2.04-1.97-4.26-4-5.2Zm39.55-183.91c.95-.2,1.89-.42,2.82-.68,2.11-.58,4.09-2.11,5.2-4,1.09-1.86,1.55-4.61.88-6.7-.68-2.1-1.99-4.14-4-5.2-2.07-1.09-4.4-1.51-6.7-.88-1.53.42-3.09.74-4.65.99-3.29.35-6.6.33-9.89-.02-3.57-.57-7.06-1.53-10.42-2.85-3.16-1.42-6.15-3.16-8.94-5.21-2.37-1.93-4.54-4.09-6.48-6.45-1.74-2.39-3.23-4.95-4.46-7.65-1.23-3.15-2.11-6.43-2.65-9.77-.39-3.61-.39-7.24,0-10.84.56-3.48,1.48-6.88,2.77-10.16,1.26-2.77,2.79-5.41,4.59-7.87.74-.75,1.29-1.61,1.61-2.6.54-1.04.79-2.15.75-3.35,0-2.13-.95-4.68-2.55-6.15-1.66-1.52-3.83-2.65-6.15-2.55-2.16.1-4.74.79-6.15,2.55-2.9,3.62-5.47,7.38-7.34,11.63-1.89,4.28-3.43,8.62-4.22,13.25-.79,4.59-1.22,9.23-.92,13.88.3,4.64,1.04,9.34,2.45,13.77,2.77,8.69,7.66,16.71,14.41,22.88,6.64,6.07,14.66,10.56,23.32,13.03,8.69,2.48,17.89,2.78,26.73.96Z"/>
      </g>
    </g>
  </g>
</svg>