<?xml version="1.0" encoding="UTF-8"?>
<svg id="Layer_8_copy" data-name="Layer 8 copy" xmlns="http://www.w3.org/2000/svg" viewBox="0 0 1000 1000">
  <defs>
    <style>
      .cls-1 {
        fill: #f59;
      }

      .cls-2 {
        fill: #6785ff;
      }

      .cls-3 {
        fill: #7be0ff;
      }
    </style>
  </defs>
  <g id="Layer_22" data-name="Layer 22">
    <g id="Elements_copy" data-name="Elements copy">
      <g>
        <g>
          <path d="m189.65,831.3c1.91,2.82,3.93,5.59,6.07,8.28h-14.63l8.56-8.28Z"/>
          <path class="cls-1" d="m596.58,386.69c1.85-3.98,3.91-7.8,6.36-11.43,1.43-1.61,2.94-3.15,4.54-4.6.04-.03.09-.06.14-.08.75,2.22,1.49,4.46,2.25,6.76.48,1.46.97,2.93,1.46,4.41l-19.41,18.77c1.35-4.67,2.9-9.29,4.67-13.83Z"/>
          <path class="cls-2" d="m457.87,687.08c7.83,10.54,16.03,19.16,26.79,26.9,13.35,9.61,31,12.75,46.87,8.66,15.61-4.03,27.93-14.87,36.94-27.79,6.64-9.51,11.1-21.3,15.13-32.04,14.1-37.6,13.78-79.06,10.02-118.47-3.04-31.91-8.15-63.9-7.98-96.01l38.01-36.77c.92,1.64,1.89,3.27,2.92,4.86,6.35,9.82,13.98,17.92,22.43,24.01,10.27,15.87,25.22,28.92,44.15,32.89,6.55,1.37,13.44,2.38,20.15,1.76,9.63-.9,16.69-2.78,25.43-6.98,11.54-5.54,20.1-15.16,27.47-25.31.72-.99,1.41-2.01,2.08-3.04v399.84h-396.88c.89-2.11,1.75-4.23,2.6-6.35,4.24-10.6,7.56-21.57,9.99-32.72,5.14-23.61,7.07-48,6.23-72.12-.96-27.51-4.94-54.74-9.51-81.87l33.38-32.29c1.55,6.96,3.56,13.57,6.03,19.7,4.42,10.98,8.62,20.03,14.79,28.45,7.36,10.05,14.63,17.89,22.96,24.7Z"/>
          <path class="cls-1" d="m392.24,516.56c.82.48,1.79.75,2.78.75,1.49,0,2.93-.59,3.94-1.62,1.03-1.02,1.64-2.48,1.64-3.9,0-.93-.26-1.84-.69-2.65l11.67-11.28c-.27,8.2-.78,16.39-1.28,24.47-.61,9.78-1.24,19.89-1.44,29.83-.01.61,0,1.19-.02,1.79-.94,1.02-1.5,2.39-1.5,3.8s.55,2.72,1.46,3.7c.01,2.07.03,4.12.08,6.14-14.58-3.91-28.71-9.22-42.22-15.85-.25-3.28-.46-6.55-.63-9.84l26.21-25.35Z"/>
          <path d="m365.47,522.97c0-5.82.2-11.64.77-17.4,1.59-9.16,4.26-18.12,7.65-26.77,3.81-8.4,8.32-16.47,13.7-23.97,1.51-1.81,3.08-3.56,4.71-5.25.25.77.65,1.51,1.24,2.18l.1.1c1.03,1.05,2.48,1.65,3.97,1.65s2.9-.62,3.87-1.68c1.08-1.01,1.65-2.36,1.65-3.91s-.6-2.94-1.7-4.02c-.41-.38-.88-.68-1.37-.92,1.4-.85,2.81-1.67,4.28-2.41.25-.08.5-.15.75-.23,2.41,7.38,4.29,15.17,5.6,23.28.52,4.86.83,9.76.99,14.68l-46.19,44.67Z"/>
          <path class="cls-2" d="m822.62,219.13v659.86h-479.58c3.72-3.2,7.16-6.69,10.2-10.36,3.97-4.77,7.85-9.75,11.13-15.05h417.92v-445.01c5.62-17.11,8.39-35.51,9.33-53.37,1.51-28.81-3.78-57.39-9.33-85.7v-11.36l40.33-39Z"/>
          <path class="cls-1" d="m644.39,292.9c-3.91-3.47-7.75-6.34-11.82-8.78l6.83-6.61c.51.15,1.03.25,1.56.25,1.48,0,2.92-.59,3.94-1.62,1.03-1.02,1.64-2.47,1.64-3.9,0-.49-.09-.97-.21-1.44l15.28-14.78c1.29-.05,2.53-.55,3.59-1.48l.16-.14.14-.16c.81-.94,1.27-2.1,1.36-3.29l15.41-14.91c2.32,4.73,4.49,9.53,6.48,14.4-2.51.5-4.28,2.65-4.28,5.39,0,1.37.47,2.67,1.33,3.67,1.01,1.18,2.46,1.83,4.09,1.83,1.02,0,1.95-.28,2.75-.74,1.71,4.81,3.26,9.67,4.65,14.59-1.62.93-2.68,2.67-2.68,4.77,0,1.37.47,2.67,1.33,3.67.99,1.16,2.42,1.8,4.01,1.82.68,2.9,1.31,5.83,1.89,8.76l-34,32.88c-2.5-5.55-5.33-10.98-8.72-16.17-3.56-5.46-8.45-12.43-14.73-18.01Z"/>
          <path d="m690.39,381.71c-.55-.54-1.09-1.09-1.62-1.67-.14-.22-.28-.45-.42-.67-2.56-7.52-5.21-15-8.43-22.22l28.1-27.18c-.16,2.68-.37,5.34-.65,7.94-1.84,11.72-4.51,22.12-8.11,31.58-1.8,3.85-3.72,7.28-5.78,10.37-.67.75-1.36,1.45-2.05,2.13-.35-.09-.69-.18-1.03-.27Z"/>
          <path class="cls-1" d="m303.69,173.12c5.89-5.89,12.04-11.41,18.41-16.59.28.87.77,1.65,1.41,2.21,1.01.98,2.44,1.56,3.82,1.56s2.87-.57,3.86-1.54c1.08-.96,1.73-2.45,1.73-3.99s-.56-2.9-1.63-3.96c-.28-.28-.59-.52-.93-.72,13.59-10.08,28.13-18.58,43.38-25.44.14.22.28.44.45.63,1.01,1.18,2.46,1.83,4.09,1.83,3.09,0,5.42-2.37,5.42-5.5,0-.38-.04-.75-.11-1.11,9.79-3.87,19.85-7.09,30.12-9.62.71.33,1.49.5,2.33.5,1.75,0,3.23-.77,4.21-2,9.22-1.99,18.6-3.43,28.1-4.31-.92,1.02-1.45,2.36-1.45,3.75s.64,2.92,1.67,3.87c.98,1.05,2.41,1.65,3.92,1.65,1.38,0,2.7-.52,3.84-1.52l.1-.1c1.03-1.02,1.64-2.48,1.64-3.9,0-1.5-.6-2.93-1.71-4.04-.11-.11-.25-.19-.37-.28,4.79-.29,9.6-.45,14.44-.45,24.63,0,48.68,3.77,71.51,11-2.06,1.84-1.32,6.19,2.24,6.19,2.63,0,3.71-2.38,3.28-4.36,7.06,2.43,13.99,5.2,20.78,8.3-.05.04-.1.07-.15.12-1.03,1.03-1.62,2.48-1.62,3.96s.61,2.89,1.62,3.89c1.07,1.07,2.44,1.63,3.97,1.63,1.42,0,2.87-.61,3.87-1.61.93-.92,1.52-2.2,1.62-3.49,12.62,6.45,24.68,14.07,36.06,22.8-.8-.45-1.72-.7-2.71-.7-3.09,0-5.42,2.37-5.42,5.5,0,1.37.47,2.67,1.33,3.67,1.01,1.18,2.46,1.83,4.09,1.83,3.09,0,5.42-2.37,5.42-5.5,0-1.37-.47-2.68-1.33-3.67-.09-.11-.19-.2-.29-.3,7.84,6.09,15.35,12.7,22.48,19.83,15.13,15.13,27.94,31.96,38.27,50.05l-56.42,54.57c-.2-.07-.4-.15-.61-.22-14.36-5.14-29.75-3.8-42.8.27-.53-.41-1.23-.67-2.09-.67-1.83,0-2.9,1.16-3.25,2.53-3.11,1.2-6.03,2.54-8.73,3.96.14-.49.23-1.01.23-1.56,0-3.13-2.33-5.5-5.42-5.5s-5.42,2.37-5.42,5.5c0,1.37.47,2.68,1.33,3.67.75.87,1.74,1.45,2.87,1.7-10.67,7.09-18.24,16.06-23.77,23.32-3.15,4.15-5.72,8.52-7.94,12.9-.35-1.35-1.42-2.49-3.24-2.49-4.5,0-4.51,7,0,7,.43,0,.81-.08,1.16-.2-1.63,3.55-3.08,7.06-4.46,10.4-7.29,17.7-10.53,35.78-12.45,50.19l-10.8,10.44c-.84-.5-1.82-.78-2.87-.78-1.51,0-2.94.57-3.94,1.57-1.03,1.03-1.62,2.47-1.62,3.96,0,.97.27,1.89.74,2.71l-12.44,12.03c-2.1-6.03-4.42-11.63-6.56-16.61-3.37-7.82-7.06-14.4-11.29-20.14-8.34-11.31-15.93-18.76-25.37-24.9-9.55-6.22-21.24-9.84-34.74-10.77-14.17-.98-27,3.6-37.75,8.32-.49-.14-1.01-.22-1.56-.22-2.38,0-4.29,1.41-5.05,3.48-7.28,4.05-14.51,9.6-21.54,16.57-15.16,15.01-27.32,34.84-37.16,60.64-3.78,9.91-6.49,20.54-8.19,32.07-2.82.81-3.09,4.88-.82,6.32-.34,3.06-.61,6.19-.82,9.38-5.04-6.61-9.71-13.44-13.99-20.48l.03-.02c1.04-1.04,1.63-2.48,1.63-3.96s-.63-2.99-1.65-3.91c-1-1.02-2.42-1.61-3.89-1.61-.51,0-1,.09-1.48.22-4.02-7.35-7.64-14.9-10.84-22.62,0-.07.02-.14.02-.21,0-1.42-.61-2.87-1.63-3.89-.02-.02-.04-.03-.06-.05-5.59-14.26-9.79-29.08-12.5-44.3.06-.34.1-.69.1-1.05,0-.96-.26-1.9-.74-2.75-1.33-8.22-2.23-16.55-2.69-24.97,1.06-.16,2.09-.62,2.97-1.38l.11-.11c1.04-1.04,1.63-2.48,1.63-3.96,0-1.59-.63-3.06-1.69-4.02-.88-.86-2.1-1.36-3.38-1.47,0-.73-.02-1.46-.02-2.19,0-35.48,7.78-69.77,22.54-100.91.96-.87,1.57-2.09,1.71-3.51,1.95-3.94,4-7.83,6.17-11.66.25.45.54.88.92,1.25,1.03,1.05,2.48,1.65,3.97,1.65s2.85-.58,3.87-1.61c1.03-1.02,1.65-2.48,1.65-3.91s-.59-2.93-1.63-3.96c-1.01-1.01-2.43-1.59-3.91-1.59,9.48-15.23,20.76-29.5,33.77-42.5Z"/>
          <path d="m511.09,585.2c-1.96,12.34-5.1,24.07-9.38,34.97-1.04,2.34-2.11,4.63-3.25,6.82-1.02-1.07-2.03-2.19-3.02-3.35-.17-.25-.34-.51-.51-.76-.53-2.48-1.01-4.98-1.42-7.49-2.89-26.17-.58-52.43.72-78.67l16.33-15.79c1.94,21.42,2.88,43.04.52,64.28Z"/>
          <path class="cls-1" d="m502.52,409.9c-1.16,25.34,1.47,50.39,4.01,73.2l-12.14,11.75c-.82-11.6-2.54-23.15-5.35-34.41,4.22-.29,4.14-6.97-.27-6.97-.59,0-1.1.13-1.54.34-2.21-7.29-4.98-14.34-7.99-21.38l23.28-22.52Z"/>
          <path class="cls-2" d="m250.28,792.99c-.73-1.07-1.45-2.18-2.16-3.32-1.07-4.02-2.02-8.07-2.87-12.14l61.68-59.65c-.15,8.66-.68,16.92-1.59,24.88-2.33,15.01-6.09,29.33-11.2,42.66-1.78,3.72-3.84,7.29-6.15,10.66-1.98,2.28-4.07,4.4-6.25,6.33-1.58,1.05-3.18,2-4.82,2.86-1.19.38-2.39.72-3.6,1-1.13.04-2.27.04-3.41,0-1.66-.38-3.32-.84-4.97-1.4-2.38-1.22-4.72-2.61-7-4.16-2.71-2.36-5.27-4.94-7.67-7.71Z"/>
          <path class="cls-3" d="m49.37,684.65c-1.76-19.71-2.1-36.92-1.05-52.62,1.5-22.27,4.7-39.58,10.07-54.49,3.95-10.98,7.86-19.5,12.31-26.83,5.76-9.49,11.94-17.34,18.37-23.34,9.67-9.02,20.38-15.33,31.84-18.76,10.75-3.22,22.81-3.45,34.88-.68,20.65,4.74,40.04,21.27,50.61,43.16,5.51,11.41,8.99,22.06,10.64,32.55,2.03,12.93,2.94,24.85,2.77,36.44-.14,10.11-.86,20.44-1.56,30.43-.66,9.47-1.34,19.27-1.55,29-.4,18.75.3,36.11,2.13,52.8h-.1s1.07,7.99,1.07,7.99l.12-.02c2.43,14.87,5.76,28.02,10.09,39.85l-.18.08s3.01,7.14,3.02,7.17l.24-.1c1.76,3.53,3.6,6.8,5.53,9.85l-.3.23,4.69,6.07.29-.23c1.35,1.46,2.75,2.86,4.18,4.22,0,0-.26.33-.25.34l6.06,4.68.23-.29c1.01.64,2.03,1.24,3.05,1.83l-.2.47,7.17,3.02.18-.43c.31.09.62.18.93.26l-.07.55,6.02.81.04.28,1.03-.14s.85.11.88.12l.03-.24,5.13-.69.05.12.45-.19.4-.05v-.11s6.32-2.67,6.32-2.67l-.19-.47c.34-.2.68-.39,1.01-.6l.29.37,6.07-4.69-.27-.35c1.06-1.02,2.11-2.08,3.13-3.17l.3.23,4.69-6.07-.31-.24c1.32-2.08,2.56-4.23,3.71-6.42l.31.13,3.02-7.17-.22-.09c4.39-12.04,7.75-24.78,10.04-38.04l.16.02,1.07-7.97-.14-.02c2.26-22.6,1.66-47.36-1.84-76.74h.06s-1.07-7.96-1.07-7.98h-.04c-.44-3.06-.91-6.17-1.4-9.31-1.89-12.14-4.04-24.46-6.11-36.38-6.33-36.37-12.88-73.97-13.05-111.23-.1-22.86,5.52-45.01,13.83-66.16,7.22-18.4,15.87-35.96,30.09-50.03,7.92-7.83,15.96-13.59,23.92-17.11,23.38-10.34,50.26-10.33,70.16,7.7,38.07,34.51,43.25,89.27,38.97,137.47-.33,3.73-.51,7.55-.97,11.25-1.16,20.73-2.35,42.09-.35,63.39l-.16.02,1.07,7.94s0,.02,0,.03c0,0,.22-.03.22-.03,2.66,14.17,7.67,25.92,15.78,38.15,3.02,4.55,7.27,9.41,12.72,9.04,3.96-.27,7.13-3.29,9.74-6.29,5.08-5.83,4.55-11.48,6.82-18.46.68-2.09,6.87-25.2,6.33-25.27l.17.02,1.07-7.98-.18-.02c2.89-31.06-.62-62.24-4.03-92.48l-.6-5.3c-1.67-14.66-1.9-29.51-3.79-43.98-2.06-15.77-1.04-31.81.94-47.53,1.78-14.13,4.76-32.63,12.07-50.37,3.5-8.5,7.12-17.28,12.93-24.92,8.17-10.74,15.61-17.72,24.14-22.64,15.71-9.07,35.06-11.64,49.29-6.55,8.69,3.11,15.08,6.9,22.04,13.07,5.22,4.63,9.5,10.76,12.64,15.58,8.03,12.32,12.7,26.16,17.63,40.8,3.29,9.77,6.11,19.84,11.92,28.48,1.33,1.98,2.81,3.92,4.72,5.35,4.38,3.29,11.43,3.49,15.61-.2,1.98-1.75,3.39-4.02,4.78-6.27,8.12-13.14,12.21-26.98,14.87-42.15l.17.02s.01-.09.02-.13l1.05-7.84-.19-.03c1.15-13.12.92-27.16-.7-42.51l.12-.02s-1.07-7.94-1.07-7.98h-.09c-1.79-11.45-4.01-22.86-6.17-33.97-1.37-7.04-2.79-14.32-4.07-21.48-1.37-7.69-.65-13.45,2.42-19.26,3.44-6.51,10.54-9.61,14.47-10.88,5.21-1.69,12.89-.64,18.24,2.49,4.54,2.65,10,8.69,10.91,13.81,1.4,7.86,2.98,15.87,4.5,23.61,5.69,28.95,11.57,58.88,10.03,88.33-1.1,20.96-4.6,39.76-10.42,55.85-3.53,9.77-7.64,19.98-13.85,28.52-5.88,8.1-14.06,18.08-25.21,23.43-7.98,3.83-14.32,5.57-23.39,6.41-6.42.6-13.19-.57-18.37-1.66-19.85-4.16-32.9-18.77-40.35-30.3-5.4-8.35-9.48-17.91-12.41-27.41-3.16-10.24-8.21-19.95-13.19-29.46-2.1-4.02-4.34-8.08-7.65-11.18s-7.93-5.14-12.39-4.3c-3.9.74-6.88,3.46-9.3,6.45-.52.65-6.57,9.27-6.25,9.4,0,0-.26-.11-.27-.09l-3.02,7.15.18.08c-3.38,9.27-6.01,19.06-7.85,29.25,0,0-.2-.03-.2,0l-1.07,7.94.15.02c-.21,2.12-.38,4.23-.53,6.31-2,29.05,1.25,57.99,4.53,86.83,1,8.78,2.03,17.87,2.88,26.77,3.19,33.41,4.97,76.76-9.67,115.8-3.81,10.16-8.13,21.68-14.43,30.71-6.51,9.33-17.61,21.31-33.52,25.41-14.36,3.7-30.01.82-41.86-7.72-9.85-7.09-17.93-15.29-26.2-26.58-5.43-7.41-9.26-15.69-13.34-25.83-2.64-6.56-4.72-13.77-6.2-21.41-3.26-16.86-4.63-35.06-4.21-55.64.2-9.69.82-19.68,1.42-29.33,1.17-18.76,2.37-38.08.68-57.25l.19-.03c.36-.05-3.82-20.08-4.31-21.81-2.35-8.42-5.59-16.59-9.68-24.31-5.03-9.5-12.1-16.62-23.58-12.59-5.28,1.85-9.71,5.53-13.62,9.53-7.94,8.1-14.23,17.75-19,28.02-9.96,21.43-11.44,45.09-10.38,68.35.48,10.56,1.46,21.89,2.99,34.45h-.05s1.07,7.98,1.07,7.98h.05c.42,2.89.87,5.83,1.33,8.79,1.88,12.07,4.01,24.31,6.06,36.15,5.74,33.02,11.67,67.16,12.85,101.01.85,24.39-1.2,48.16-6.09,70.64-2.39,10.97-5.65,21.66-9.69,31.77-2.68,6.71-5.17,12.7-8.41,18.17-3.45,5.82-7.7,11.16-11.41,15.62-6.92,8.32-15.71,15.39-24.75,19.91-12.67,6.34-24.98,9.3-36.56,8.81-12.87-.54-25.34-4.09-37.05-10.53-9.33-5.13-18.26-12.4-25.16-20.46-14.77-17.26-34.83-49.03-38.62-125.42-.84-16.98-.53-35.44.95-56.44l.16-2.26c1.17-16.6,2.38-33.69,1-50.75l.22-.03-1.07-7.93s0-.03,0-.05c0,0-.28.04-.28.04-2.05-10.07-5.26-20.4-11.8-28.57-9.02-11.27-22.96-12.43-34.08-3.44-34.64,28.01-30.76,80.97-27.27,120.57.02.24.04.47.06.71.43,4.83.92,9.65,1.46,14.47.07.59.83,7.18.84,7.18,0,0-.05,0-.04.03l1.07,7.95h.05c2.34,15.96,5.21,31.92,8,47.43,1.79,9.96,3.64,20.26,5.32,30.4l.12.58c1.13,4.19,1.16,8.27.1,12.46l-2.75,6.51c-3.48,6.36-10.47,9.41-14.36,10.67-5.21,1.69-12.88.64-18.24-2.49-4.61-2.7-10.09-8.86-10.9-13.73-.59-3.54-1.19-7.07-1.82-10.6-.88-4.97-1.76-9.94-2.65-14.91-5.43-30.39-11.04-61.82-13.83-93Z"/>
          <path d="m122.97,732.72c-3.55-28.04-5.48-56.58-2.26-84.71,1.72-10.96,4.36-21.76,8.34-32.12,2.74-5.87,5.95-11.49,9.68-16.78,2.31-2.73,4.77-5.3,7.44-7.67,1.64-1.09,3.33-2.11,5.08-3.02,1.35-.44,2.72-.83,4.11-1.15.36-.01.72-.02,1.08-.02,1.01,3.53,1.86,7.21,2.53,11.11,1.73,17.15.48,34.83-.73,51.98l-.16,2.27c-1.51,21.48-1.83,40.42-.96,57.87.21,4.21.48,8.63.82,13.21l-31.65,30.62c-1.19-7.18-2.31-14.37-3.31-21.58Z"/>
          <path class="cls-2" d="m166.61,853.59h42.43c1.39,1.22,2.83,2.39,4.28,3.53,2.25,3.2,4.65,6.31,7.22,9.32,3.87,4.52,8.29,8.75,13.04,12.55h-93.23l26.27-25.4Z"/>
        </g>
        <path d="m395.09,333.31c1.06,1.05,1.63,2.47,1.63,4.02s-.54,2.89-1.57,3.91c-1.03,1.03-2.47,1.62-3.94,1.62s-2.92-.6-3.96-1.64c-1.05-1.03-1.63-2.42-1.63-3.89s.59-2.92,1.63-3.96c1.11-1.04,2.5-1.6,3.96-1.6s2.84.54,3.89,1.53Zm88.93-65.95c0,3.13,2.33,5.5,5.42,5.5s5.42-2.37,5.42-5.5-2.33-5.5-5.42-5.5-5.42,2.37-5.42,5.5Zm-71.45-103.49c4.5,0,4.51-7,0-7s-4.51,7,0,7Zm40.16,156.7c-3.09,0-5.42,2.37-5.42,5.5s2.33,5.5,5.42,5.5,5.42-2.37,5.42-5.5-2.33-5.5-5.42-5.5Zm31.63-103.7c-1.51,0-2.95.59-3.83,1.54-1.09,1.07-1.71,2.52-1.71,3.98s.64,3.01,1.69,3.95c1.05,1.02,2.51,1.63,3.89,1.63,1.48,0,2.86-.58,3.89-1.62,1.04-1.04,1.63-2.48,1.63-3.96s-.63-3-1.66-3.92c-1-1.01-2.43-1.6-3.91-1.6Zm-17.73,38.84c1.03-1.02,1.64-2.48,1.64-3.91,0-1.5-.6-2.93-1.71-4.04-1.05-.98-2.44-1.51-3.91-1.51s-2.91.57-3.93,1.59-1.63,2.48-1.63,3.96.61,2.88,1.63,3.89c1.04,1.04,2.48,1.63,3.96,1.63s2.92-.59,3.94-1.62Zm15.2-55.42c-1.52,0-2.99.61-3.9,1.59-1.07,1.06-1.63,2.44-1.63,3.96,0,1.43.61,2.88,1.61,3.88,1.05,1.06,2.43,1.65,3.91,1.65s2.93-.59,3.94-1.62c1.03-1.02,1.65-2.48,1.65-3.91,0-1.59-.63-3.07-1.7-4.03-1.01-.97-2.42-1.53-3.88-1.53Zm-29.34,146.83c-1.45,0-2.85.55-3.82,1.49-1.13,1.02-1.78,2.5-1.78,4.04,0,1.43.61,2.88,1.63,3.89,1.04,1.04,2.48,1.64,3.96,1.64s2.91-.59,3.94-1.62c1.03-1.02,1.64-2.48,1.64-3.9,0-1.54-.65-3.01-1.75-4.01-1.01-.98-2.36-1.51-3.83-1.51Zm-35.41-78.46c3.09,0,5.42-2.37,5.42-5.5,0-1.37-.47-2.67-1.33-3.67-1.01-1.18-2.46-1.83-4.09-1.83-3.09,0-5.42,2.37-5.42,5.5,0,1.37.47,2.68,1.33,3.67,1.01,1.18,2.46,1.83,4.09,1.83Zm49.34,9.83c-1.03,1.03-1.62,2.48-1.62,3.96s.64,3.02,1.69,3.95c1.06,1.02,2.4,1.57,3.9,1.57,1.4,0,2.77-.54,3.74-1.47,1.13-1.02,1.79-2.5,1.79-4.05s-.56-2.89-1.55-3.89c-.99-1.06-2.45-1.67-4-1.67s-3.01.61-3.93,1.59Zm-62.35,5.34l.13-.15c.98-1.12,1.5-2.43,1.5-3.82,0-1.49-.61-2.95-1.7-4.02-1.02-.96-2.44-1.51-3.89-1.51s-2.88.56-3.87,1.56c-1.05,1.03-1.65,2.48-1.65,3.97s.64,3,1.68,3.94c1.08,1.06,2.44,1.65,3.84,1.65s2.72-.54,3.81-1.49l.15-.13Zm1.47,25.21c-3.09,0-5.42,2.37-5.42,5.5,0,1.37.47,2.68,1.33,3.67,1.01,1.18,2.46,1.83,4.09,1.83,3.09,0,5.42-2.37,5.42-5.5,0-1.37-.47-2.67-1.33-3.67-1.01-1.18-2.46-1.83-4.09-1.83Zm11.22,16.3c-4.5,0-4.51,7,0,7s4.51-7,0-7Zm37.08-18.55c1.03-1.02,1.64-2.48,1.64-3.91,0-1.53-.56-2.9-1.63-3.96-1-1-2.43-1.57-3.94-1.57s-2.93.56-3.86,1.5c-1.07.98-1.68,2.44-1.68,4.02,0,1.48.58,2.86,1.62,3.89,1.07,1.07,2.44,1.63,3.96,1.63s2.84-.58,3.88-1.62Zm-16.8-42.96c-4.5,0-4.51,7,0,7s4.51-7,0-7Zm-7.56,71.79c-1.49,0-2.91.58-3.93,1.6l-.1.11c-.98,1.11-1.49,2.43-1.49,3.82,0,1.46.58,2.84,1.62,3.89,1.11,1.11,2.48,1.7,3.96,1.7s2.96-.66,3.94-1.75c1.02-1.04,1.58-2.41,1.58-3.84s-.59-2.85-1.7-3.96c-1.01-1.02-2.39-1.57-3.89-1.57Zm45.31-89.96c4.5,0,4.51-7,0-7s-4.51,7,0,7Zm51.76-21.1c-1.51,0-2.94.57-3.94,1.57-1.06,1.06-1.62,2.43-1.62,3.96,0,1.44.56,2.8,1.54,3.81.98,1.09,2.46,1.72,4.04,1.72,1.45,0,2.83-.58,3.88-1.62,1.06-1.05,1.64-2.43,1.64-3.91s-.59-2.92-1.62-3.95c-1.01-1.02-2.4-1.58-3.92-1.58Zm-25.51-55.34c1.45,0,2.83-.58,3.88-1.62,1.06-1.05,1.64-2.43,1.64-3.91s-.59-2.92-1.62-3.95c-1.01-1.02-2.4-1.58-3.92-1.58s-2.94.57-3.94,1.57c-1.06,1.06-1.62,2.43-1.62,3.96,0,1.44.56,2.8,1.54,3.81.98,1.09,2.46,1.72,4.04,1.72Zm5.05,156.19c-1.55,0-3.02.59-3.89,1.55-1.04,1.03-1.64,2.48-1.64,3.97s.64,3.01,1.68,3.95c1.1,1.07,2.45,1.64,3.91,1.64,1.37,0,2.74-.58,3.74-1.55,1.13-1.02,1.78-2.49,1.78-4.04s-.61-2.95-1.61-3.87c-.98-1.05-2.43-1.65-3.97-1.65Zm.86-12.65c4.5,0,4.51-7,0-7s-4.51,7,0,7Zm19.59-126.5c-1.49,0-2.89.55-3.8,1.48-1.11,1.01-1.75,2.48-1.75,4.02s.6,2.94,1.6,3.87c1,1.07,2.49,1.71,3.99,1.71s2.84-.58,3.89-1.62c1.04-1.03,1.63-2.48,1.63-3.96s-.64-3.01-1.66-3.93c-.99-1-2.41-1.57-3.9-1.57Zm58.9,71.27c-4.5,0-4.51,7,0,7s4.51-7,0-7Zm-43.34-17.48c-4.5,0-4.51,7,0,7s4.51-7,0-7Zm12.02,8.75c-1.52,0-2.97.6-3.85,1.56-1.08,1.08-1.7,2.52-1.7,3.96,0,1.52.64,3.01,1.69,3.95,1.07,1.04,2.49,1.64,3.9,1.64s2.92-.59,3.96-1.63c1.04-1.04,1.63-2.48,1.63-3.96,0-1.39-.62-2.88-1.63-3.89-1.04-1.04-2.49-1.63-4-1.63Zm-59.26,52.1c0-3.13-2.33-5.5-5.42-5.5s-5.42,2.37-5.42,5.5,2.33,5.5,5.42,5.5,5.42-2.37,5.42-5.5Zm-17.97,43.3c-4.5,0-4.51,7,0,7s4.51-7,0-7Zm-4.89,11.88c-4.5,0-4.51,7,0,7s4.51-7,0-7Zm10.04-36.71l-.13-.12c-1.03-.96-2.41-1.49-3.88-1.49-1.55,0-2.98.58-3.9,1.58-1.09,1.1-1.68,2.48-1.68,3.88,0,1.5.6,2.94,1.63,3.96,1.04,1.04,2.48,1.63,3.96,1.63s2.92-.59,3.94-1.62c1.04-1.03,1.64-2.48,1.64-3.98,0-1.29-.5-2.58-1.47-3.71l-.11-.13Zm8.13,66.07c-4.5,0-4.51,7,0,7s4.51-7,0-7Zm-22.75-9.31c-3.09,0-5.42,2.37-5.42,5.5s2.33,5.5,5.42,5.5,5.42-2.37,5.42-5.5-2.33-5.5-5.42-5.5Zm37.92-138.15c0-3.13-2.33-5.5-5.42-5.5s-5.42,2.37-5.42,5.5,2.33,5.5,5.42,5.5,5.42-2.37,5.42-5.5Zm-6.78-49.66c4.5,0,4.51-7,0-7s-4.51,7,0,7Zm164.12,97.5c-1.51,0-2.94.57-3.96,1.6l-.12.13c-.9,1.04-1.41,2.42-1.41,3.79,0,1.52.55,2.9,1.55,3.88,1.04,1.05,2.48,1.65,3.97,1.65s2.85-.58,3.88-1.62c1.03-1.02,1.65-2.48,1.65-3.91s-.59-2.92-1.62-3.95c-1.01-1.02-2.4-1.58-3.92-1.58Zm-408.08,57.68c4.5,0,4.51-7,0-7s-4.51,7,0,7Zm6.99-27.97c-4.5,0-4.51,7,0,7s4.51-7,0-7Zm14.73-6.48c-1.1,1-1.76,2.51-1.76,4.02,0,1.43.61,2.89,1.61,3.87,1.03,1.05,2.48,1.65,3.97,1.65s2.79-.56,3.8-1.54c1.08-.96,1.72-2.45,1.72-3.98s-.56-2.9-1.63-3.96c-1.01-1.01-2.44-1.59-3.92-1.59s-2.86.57-3.81,1.53Zm-1.83,40.33c3.09,0,5.42-2.37,5.42-5.5,0-1.37-.47-2.68-1.33-3.67-1.01-1.18-2.46-1.83-4.09-1.83-3.09,0-5.42,2.37-5.42,5.5s2.33,5.5,5.42,5.5Zm-23.07-57.67c3.09,0,5.42-2.37,5.42-5.5,0-1.37-.47-2.67-1.33-3.67-1.01-1.18-2.46-1.83-4.09-1.83-3.09,0-5.42,2.37-5.42,5.5,0,1.37.47,2.68,1.33,3.67,1.01,1.18,2.46,1.83,4.09,1.83Zm-1.5,22.59c0-1.48-.58-2.86-1.63-3.9-1.01-1.01-2.44-1.59-3.92-1.59s-2.91.58-3.91,1.58c-1.06,1.05-1.64,2.44-1.64,3.91s.59,2.92,1.62,3.94c1.03,1.04,2.47,1.64,3.97,1.64s2.86-.58,3.89-1.62c1.08-1.08,1.63-2.41,1.63-3.96Zm9.88,84.15l-.08-.07c-1.02-.95-2.42-1.49-3.85-1.49-1.53,0-2.97.6-3.93,1.63-1.05,1.05-1.62,2.43-1.62,3.89s.59,2.93,1.62,3.96c1.02,1.02,2.48,1.63,3.89,1.63s2.93-.59,3.96-1.63c1.04-1.04,1.63-2.48,1.63-3.96,0-1.38-.52-2.7-1.5-3.81l-.13-.14Zm-10.1-29.1c-4.5,0-4.51,7,0,7s4.51-7,0-7Zm16.78-73.39c4.5,0,4.51-7,0-7s-4.51,7,0,7Zm120.91,251.96c1.44,0,2.8-.56,3.8-1.54,1.08-.96,1.72-2.45,1.72-3.98s-.56-2.9-1.63-3.96c-1.01-1.01-2.44-1.59-3.92-1.59s-2.87.57-3.81,1.54c-1.15,1.05-1.75,2.44-1.75,4.02s.64,3.02,1.69,3.95c1.02,1,2.44,1.57,3.9,1.57Zm15.4-15.49c4.5,0,4.51-7,0-7s-4.51,7,0,7Zm199.79-150.55c-1.06,1.05-1.65,2.44-1.65,3.91,0,1.38.59,2.81,1.54,3.8.09.1.19.19.28.28,2.63-2.57,5.26-5.13,7.9-7.68-.09-.1-.16-.21-.25-.3-1.01-1.01-2.45-1.59-3.95-1.59s-2.98.6-3.88,1.58Zm-215.25,91.11c-1.47,0-2.89.58-3.92,1.62l-.1.11c-.98,1.11-1.5,2.43-1.5,3.82,0,1.52.64,3,1.68,3.94,1.05,1.03,2.51,1.64,3.9,1.64s2.62-.52,3.77-1.52l.12-.11c1.04-1.04,1.63-2.48,1.63-3.96s-.58-2.84-1.55-3.81c-1.02-1.1-2.49-1.74-4.03-1.74Zm287.58-197.3c4.5,0,4.51-7,0-7s-4.51,7,0,7Zm-35.65-34.26c-4.5,0-4.51,7,0,7s4.51-7,0-7Zm-248.35,217.59c-4.5,0-4.51,7,0,7s4.51-7,0-7Zm284.11-152.36c0,1.31.52,2.7,1.43,3.75l.13.14c1.04,1.04,2.48,1.64,3.96,1.64s2.93-.59,3.94-1.62c1.06-1.05,1.65-2.43,1.65-3.91s-.59-2.92-1.62-3.95c-1.01-1.02-2.4-1.58-3.92-1.58s-2.94.57-3.94,1.57c-1.04,1.04-1.63,2.48-1.63,3.96Zm-347.52,16.48c-1.01-1.02-2.44-1.61-3.93-1.61s-2.92.58-3.92,1.6c-1.07,1.07-1.63,2.43-1.63,3.96s.58,2.85,1.61,3.87c1.05,1.06,2.44,1.65,3.91,1.65s2.93-.59,3.94-1.62c1.03-1.02,1.65-2.48,1.65-3.91s-.59-2.92-1.62-3.95Zm21.5-38.02l.17.14c1.03.87,2.42,1.4,3.71,1.4,1.48,0,2.92-.59,3.95-1.62,1.06-1.04,1.65-2.43,1.65-3.91s-.59-2.92-1.62-3.95c-1.01-1.02-2.44-1.6-3.93-1.6s-2.91.58-3.93,1.6c-1.03,1.03-1.63,2.47-1.63,3.96,0,1.39.52,2.71,1.49,3.83l.14.16Zm1.42-39.64c1.03-1.02,1.65-2.48,1.65-3.91s-.59-2.93-1.63-3.96c-.99-1-2.42-1.57-3.9-1.57s-2.89.56-3.83,1.51c-1.11,1.02-1.75,2.49-1.75,4.02s.58,2.85,1.61,3.87c1.03,1.05,2.48,1.65,3.97,1.65,1.34,0,2.64-.52,3.77-1.52l.1-.1Zm-16.64,101.59c-1.48,0-2.92.58-3.92,1.6-1.07,1.07-1.63,2.44-1.63,3.96s.64,3.02,1.69,3.95c1.01.99,2.45,1.58,3.83,1.58,1.46,0,2.85-.57,3.83-1.57,1.12-.97,1.76-2.41,1.76-3.96s-.59-2.92-1.62-3.95c-1.01-1.02-2.44-1.6-3.93-1.6Zm20.43-30.64c-1.48,0-2.92.58-3.93,1.6-1.06,1.07-1.63,2.44-1.63,3.96s.64,3.01,1.69,3.95c1.04,1.02,2.4,1.58,3.83,1.58s2.85-.57,3.83-1.57c1.12-.97,1.76-2.41,1.76-3.96s-.56-2.89-1.62-3.95c-1.01-1.02-2.44-1.6-3.93-1.6Zm-32.36-37.57c0-1.37-.47-2.67-1.33-3.67-1.01-1.18-2.46-1.83-4.09-1.83-3.09,0-5.42,2.37-5.42,5.5,0,1.37.47,2.68,1.33,3.67,1.01,1.18,2.46,1.83,4.09,1.83,3.09,0,5.42-2.37,5.42-5.5Zm52.78-68.38c-1.45,0-2.85.56-3.83,1.5-1.09.98-1.72,2.46-1.72,4.05s.64,3.02,1.69,3.95c1.01.98,2.44,1.57,3.83,1.57,1.46,0,2.85-.57,3.83-1.56,1.12-.96,1.76-2.41,1.76-3.96s-.56-2.9-1.63-3.96c-1.01-1.01-2.44-1.59-3.92-1.59Zm-1.89,105.05c-4.5,0-4.51,7,0,7s4.51-7,0-7Zm2.06-42.13l-.13-.12c-1.04-.97-2.43-1.5-3.92-1.5s-2.89.55-3.87,1.52c-1.07,1.08-1.68,2.55-1.68,4.01s.61,2.87,1.63,3.89c1.04,1.04,2.48,1.63,3.96,1.63s3.01-.64,3.95-1.69c1.06-1.08,1.64-2.44,1.64-3.83s-.49-2.63-1.47-3.79l-.11-.13Zm-77.23,70.73c1.62,0,3.08-.65,4.09-1.83.86-1,1.33-2.3,1.33-3.67,0-3.13-2.33-5.5-5.41-5.5s-5.42,2.37-5.42,5.5c0,1.37.47,2.67,1.33,3.67,1.01,1.18,2.46,1.83,4.09,1.83Zm-11.04,81.66c-1.48,0-2.91.58-3.91,1.58-1.06,1.04-1.64,2.43-1.64,3.91s.59,2.93,1.62,3.96c1.05,1.05,2.43,1.62,3.89,1.62s2.9-.56,3.99-1.65l.11-.12c.98-1.12,1.5-2.43,1.5-3.82,0-1.48-.58-2.86-1.63-3.9-1.01-1.01-2.44-1.59-3.92-1.59Zm-7.18-55.32c0-1.42-.63-2.9-1.71-3.97-1.06-.98-2.46-1.52-3.94-1.52s-2.86.56-3.84,1.53c-1.03,1.03-1.62,2.48-1.62,3.96,0,1.39.48,2.7,1.42,3.81l.14.15c1.03,1.03,2.48,1.63,3.96,1.63s3.02-.64,3.96-1.69c1.03-1.08,1.63-2.49,1.63-3.89Zm94.84-119.98c0,1.47.58,2.85,1.62,3.88,1.05,1.06,2.44,1.65,3.9,1.65s2.87-.58,3.86-1.55c1.08-.96,1.72-2.45,1.72-3.98s-.59-2.92-1.62-3.95c-1.01-1.02-2.45-1.6-3.93-1.6s-2.92.58-3.92,1.6c-1.04,1.04-1.63,2.48-1.63,3.96Zm-108.4,186.86c-4.5,0-4.51,7,0,7s4.51-7,0-7Zm36.06-143.86c-1.48,0-2.91.58-3.91,1.58-1.06,1.04-1.64,2.43-1.64,3.91s.59,2.93,1.62,3.96c1.05,1.05,2.43,1.62,3.89,1.62s2.9-.56,3.96-1.62c1.04-1.04,1.63-2.48,1.63-3.96s-.58-2.86-1.63-3.9c-1.01-1.01-2.44-1.59-3.92-1.59Zm-4.6,73.07c-4.5,0-4.51,7,0,7s4.51-7,0-7Zm6.29-13.28c-4.5,0-4.51,7,0,7s4.51-7,0-7Zm188.54,5.33c-1.49,0-2.91.57-3.91,1.56-1.07,1.07-1.63,2.44-1.63,3.96s.58,2.92,1.56,3.89c1.04,1.04,2.48,1.63,3.96,1.63s2.95-.6,3.86-1.6c1.11-1.02,1.72-2.42,1.72-3.92s-.6-2.93-1.7-4.03c-1.03-.96-2.4-1.5-3.86-1.5Zm-101.86-224.12c4.5,0,4.51-7,0-7s-4.51,7,0,7Zm-22.02,18.16c1.33,0,2.71-.54,3.83-1.5l.13-.12c1.04-1.04,1.63-2.48,1.63-3.96s-.63-2.99-1.65-3.92c-1-1.02-2.42-1.61-3.89-1.61s-2.82.55-3.78,1.48c-1.13,1.01-1.78,2.49-1.78,4.04s.64,3.01,1.68,3.95c1.06,1.03,2.49,1.64,3.83,1.64Zm1.54,33.95c0,1.37.47,2.67,1.33,3.67,1.01,1.18,2.46,1.83,4.09,1.83,3.09,0,5.42-2.37,5.42-5.5,0-1.37-.47-2.68-1.33-3.67-1.01-1.18-2.46-1.83-4.09-1.83-3.09,0-5.42,2.37-5.42,5.5Zm12.75,107.74c-3.09,0-5.42,2.37-5.42,5.5,0,1.37.47,2.67,1.33,3.67,1.01,1.18,2.46,1.83,4.09,1.83,3.09,0,5.42-2.37,5.42-5.5,0-1.37-.47-2.68-1.33-3.67-1.01-1.18-2.46-1.83-4.09-1.83Zm-1.49-131.48c1.38,0,2.7-.52,3.83-1.52l.12-.11c1-1,1.56-2.41,1.56-3.96s-.54-2.87-1.48-3.81c-1.01-1.09-2.48-1.71-4.04-1.71-1.46,0-2.88.55-3.96,1.56l-.13.14c-.95,1.08-1.43,2.36-1.43,3.82,0,1.6.6,3.04,1.68,4.01,1.04,1.02,2.41,1.58,3.84,1.58Zm-43.54,58.35c1.03,1.04,2.47,1.64,3.97,1.64s2.86-.58,3.89-1.62c1.04-1.04,1.63-2.48,1.63-3.96s-.65-3.03-1.7-3.97c-1.01-.97-2.42-1.53-3.88-1.53s-2.85.56-3.82,1.52c-1.09,1.07-1.71,2.52-1.71,3.98,0,1.32.54,2.71,1.5,3.82l.12.13Zm28.28,127.18c4.5,0,4.51-7,0-7s-4.51,7,0,7Zm-16.78-183.15c4.5,0,4.51-7,0-7s-4.51,7,0,7Zm-.32,26.49c0,1.48.59,2.92,1.62,3.94,1.04,1.06,2.43,1.64,3.9,1.64s2.94-.59,3.96-1.62c1.04-1.04,1.63-2.48,1.63-3.96s-.58-2.86-1.63-3.9c-1.01-1.01-2.44-1.59-3.92-1.59s-2.91.58-3.91,1.58c-1.06,1.05-1.64,2.44-1.64,3.91Zm66.17,13.74c0,1.37.47,2.68,1.33,3.67,1.01,1.18,2.46,1.83,4.09,1.83,3.09,0,5.42-2.37,5.42-5.5,0-1.37-.47-2.67-1.33-3.67-1.01-1.18-2.46-1.83-4.09-1.83-3.09,0-5.42,2.37-5.42,5.5Zm20.24-69.44c1.48,0,2.86-.58,3.89-1.62,1.08-1.08,1.7-2.52,1.7-3.96s-.6-2.82-1.63-3.82c-1.01-1.08-2.47-1.7-4.01-1.7s-2.86.56-3.78,1.5c-1.12,1.02-1.75,2.48-1.75,4.02,0,1.38.59,2.81,1.54,3.8,1.01,1.13,2.49,1.78,4.04,1.78Zm5.27,25.4c0-3.13-2.33-5.5-5.42-5.5s-5.42,2.37-5.42,5.5,2.33,5.5,5.42,5.5,5.42-2.37,5.42-5.5Zm-3.64,31.59c0,1.39.61,2.85,1.63,3.89,1.08,1.08,2.52,1.69,3.96,1.69s2.84-.58,3.91-1.65c1.07-1.08,1.68-2.52,1.68-3.94s-.62-2.88-1.63-3.89c-1.04-1.04-2.5-1.63-4-1.63s-2.97.6-3.85,1.56c-1.08,1.08-1.7,2.52-1.7,3.96Zm-4.62,60.46c1.46,0,2.85-.58,3.91-1.64,1.07-1.08,1.68-2.52,1.68-3.94s-.58-2.87-1.64-3.9c-1.03-1.02-2.42-1.59-3.93-1.59s-2.92.57-3.86,1.53c-1.13,1.03-1.76,2.43-1.76,3.96,0,1.37.59,2.8,1.54,3.8,1.02,1.13,2.5,1.78,4.05,1.78Zm-30.64-63.86c1.42,0,2.78-.56,3.8-1.55,1.12-1,1.79-2.49,1.79-3.98s-.65-3.01-1.75-4.01c-1.01-.98-2.38-1.51-3.86-1.51s-2.94.57-3.94,1.57c-1.03,1.04-1.63,2.48-1.63,3.96s.61,2.87,1.63,3.89c1.04,1.04,2.48,1.64,3.96,1.64Zm-7.72,67.89c4.5,0,4.51-7,0-7s-4.51,7,0,7Zm26.44,40.23c0,1.43.56,2.79,1.54,3.8.96,1.08,2.45,1.72,3.98,1.72s2.93-.59,3.94-1.62c1.03-1.02,1.64-2.48,1.64-3.9s-.59-2.93-1.63-3.96c-1.01-1.01-2.4-1.57-3.91-1.57s-2.94.57-3.94,1.57c-1.04,1.04-1.63,2.48-1.63,3.96Zm-8.5-154.08c1.38,0,2.69-.52,3.83-1.52l.11-.1c1.06-1.05,1.64-2.43,1.64-3.91s-.65-3.02-1.76-4.01c-.99-.96-2.4-1.51-3.85-1.51s-2.9.57-3.83,1.52c-1.11,1.02-1.75,2.48-1.75,4.01s.58,2.86,1.63,3.89c1.04,1.04,2.48,1.64,3.96,1.64Zm-82.12,155.31c0,1.61.61,3.04,1.68,4.01,1.04,1.01,2.4,1.57,3.84,1.57s2.7-.52,3.81-1.49l.16-.14.15-.17c.88-1.04,1.39-2.42,1.39-3.77s-.5-2.68-1.4-3.73l-.11-.13-.12-.12c-1.05-.98-2.44-1.51-3.91-1.51s-2.9.56-3.92,1.58c-1.03,1.01-1.57,2.37-1.57,3.91Zm-38.57-60.33c4.5,0,4.51-7,0-7s-4.51,7,0,7Zm-14.63,34.65c-1.1,1-1.76,2.51-1.76,4.02,0,1.43.61,2.89,1.61,3.87,1.03,1.05,2.48,1.65,3.97,1.65s2.79-.56,3.8-1.54c1.08-.96,1.72-2.45,1.72-3.98s-.56-2.9-1.63-3.96c-1.01-1.01-2.44-1.59-3.92-1.59s-2.86.57-3.81,1.53Zm220.03,160.57c0-1.48-.59-2.92-1.62-3.95-1.01-1.02-2.4-1.58-3.92-1.58s-2.94.57-3.94,1.57-1.62,2.47-1.62,3.96.6,2.95,1.61,3.88c.96,1.02,2.46,1.65,3.9,1.65s2.86-.57,3.87-1.54c1.08-.96,1.73-2.45,1.73-3.99Zm-218.78-177.85c1.49,0,2.93-.59,3.94-1.62,1.03-1.02,1.65-2.48,1.65-3.91s-.59-2.92-1.62-3.95c-1.01-1.02-2.4-1.58-3.92-1.58s-2.94.57-3.94,1.57c-1.07,1.07-1.63,2.44-1.63,3.96s.58,2.85,1.62,3.88c1.05,1.07,2.44,1.65,3.9,1.65Zm369.94,91.52c-.34.31-.68.62-1.02.94.39-.26.72-.58,1.02-.94Zm-149.64,106.61c4.5,0,4.51-7,0-7s-4.51,7,0,7Zm-174.55-198.54c-.98,1.11-1.49,2.43-1.49,3.82,0,1.46.58,2.84,1.62,3.89,1.06,1.06,2.52,1.7,3.89,1.7s2.71-.54,3.8-1.48l.16-.14.14-.16c.98-1.12,1.5-2.43,1.5-3.81s-.52-2.7-1.52-3.84l-.1-.11c-1.01-1.02-2.45-1.6-3.93-1.6s-2.92.58-3.95,1.62l-.11.12Zm317.71,50.97c-.32-.32-.69-.59-1.08-.82.94,1.44,1.85,2.92,2.72,4.43-.08-1.41-.69-2.76-1.64-3.61Zm-321.31-118.17c1.38,0,2.7-.52,3.81-1.49l.15-.13.13-.15c.94-1.08,1.42-2.36,1.42-3.81,0-1.37-.51-2.75-1.41-3.79l-.14-.16-.16-.14c-1.04-.91-2.4-1.41-3.83-1.41s-2.9.56-3.87,1.55c-1.03,1.03-1.63,2.47-1.63,3.96s.55,2.88,1.62,3.96c1.05,1.05,2.43,1.63,3.9,1.63Zm-32.47,208.95c0-1.37-.47-2.68-1.33-3.67-1.01-1.18-2.46-1.83-4.09-1.83-3.09,0-5.42,2.37-5.42,5.5,0,1.37.47,2.67,1.33,3.67,1.01,1.18,2.46,1.83,4.09,1.83,3.09,0,5.42-2.37,5.42-5.5Zm24.84-156.86c1.11.98,2.43,1.5,3.82,1.5,1.53,0,3.02-.64,3.95-1.69,1-1.02,1.57-2.45,1.57-3.9,0-1.32-.53-2.7-1.49-3.82-1-1.07-2.47-1.69-4.01-1.69s-2.93.57-3.97,1.61c-1.02,1.02-1.63,2.48-1.63,3.89,0,1.5.6,2.95,1.67,4l.1.09Zm11.02-29.1c4.5,0,4.51-7,0-7s-4.51,7,0,7Zm-13.69,166.85c1.05,1.06,2.43,1.64,3.9,1.64s2.93-.59,3.94-1.61c1.05-1.03,1.65-2.48,1.65-3.98,0-1.42-.61-2.87-1.63-3.89-1.01-1.01-2.44-1.59-3.92-1.59s-2.91.58-3.92,1.59c-1.05,1.05-1.63,2.43-1.63,3.89,0,1.54.56,2.91,1.62,3.95Zm132.79-150.83c-1.05,1.05-1.63,2.43-1.63,3.89,0,1.38.51,2.76,1.42,3.82l.13.14c1.04,1.04,2.48,1.63,3.96,1.63s2.92-.58,3.94-1.61c1.08-1.06,1.65-2.44,1.65-3.98,0-1.46-.58-2.84-1.63-3.89s-2.44-1.59-3.92-1.59-2.91.58-3.93,1.59Zm-149.15-30c4.5,0,4.51-7,0-7s-4.51,7,0,7Zm.25,14.76c0,1.48.59,2.92,1.62,3.94,1.03,1.04,2.47,1.64,3.97,1.64s2.86-.58,3.89-1.62c1.04-1.04,1.63-2.48,1.63-3.96s-.58-2.86-1.63-3.9c-1.01-1.01-2.44-1.59-3.92-1.59s-2.91.58-3.91,1.57c-1.06,1.04-1.65,2.43-1.65,3.91Zm5.14,43.64c0,1.37.47,2.67,1.33,3.67,1.01,1.18,2.46,1.83,4.09,1.83,3.09,0,5.42-2.37,5.42-5.5,0-1.37-.47-2.68-1.33-3.67-1.01-1.18-2.46-1.83-4.09-1.83-3.09,0-5.42,2.37-5.42,5.5Zm280.71-41.62c4.5,0,4.51-7,0-7s-4.51,7,0,7Zm-9.79,13.28c4.5,0,4.51-7,0-7s-4.51,7,0,7Zm-25.16-60.13c-4.5,0-4.51,7,0,7s4.51-7,0-7Zm111.84,62.22c4.5,0,4.51-7,0-7s-4.51,7,0,7Zm-69.94-39.93c1.43,0,2.8-.56,3.81-1.55.78-.7,1.71-1.96,1.71-3.97,0-1.48-.59-2.92-1.62-3.95-1.01-1.02-2.4-1.58-3.91-1.58s-2.94.57-3.94,1.57c-1.03,1.04-1.63,2.48-1.63,3.96s.58,2.85,1.62,3.88c1.04,1.05,2.48,1.65,3.97,1.65Zm-35.61,4.28c4.5,0,4.51-7,0-7s-4.51,7,0,7Zm7.49-15.72c1.49,0,2.94-.6,3.96-1.63,1.04-1.04,1.63-2.48,1.63-3.96s-.61-2.95-1.69-4.02c-1.03-.97-2.4-1.51-3.85-1.51s-2.84.55-3.92,1.56c-1.05,1.03-1.65,2.48-1.65,3.97s.59,2.92,1.62,3.94c1.02,1.03,2.48,1.65,3.9,1.65Zm1.18,21.13l-.1.11c-.98,1.12-1.5,2.43-1.5,3.82s.58,2.9,1.56,3.89c1.08,1.08,2.52,1.7,3.96,1.7s2.83-.59,3.81-1.56c1.13-1.02,1.77-2.49,1.77-4.03,0-1.38-.52-2.7-1.51-3.83l-.11-.12c-1-1-2.43-1.58-3.92-1.58s-2.95.58-3.97,1.61Zm26.94-42.85c1.48,0,2.86-.58,3.89-1.62,1.04-1.04,1.63-2.48,1.63-3.96,0-1.4-.52-2.72-1.53-3.85l-.11-.11c-1.01-1.01-2.4-1.56-3.91-1.56s-2.94.57-3.95,1.59l-.1.11c-.99,1.11-1.51,2.44-1.51,3.83,0,1.51.6,2.93,1.6,3.86,1.01,1.09,2.46,1.72,3.99,1.72Zm-23.73-9.39c4.5,0,4.51-7,0-7s-4.51,7,0,7Zm4.42,96.97c-1.03,1.04-1.6,2.42-1.6,3.87s.64,3.01,1.69,3.95c1.09,1.07,2.44,1.63,3.9,1.63s2.86-.58,3.89-1.62c1.08-1.08,1.7-2.52,1.7-3.96s-.6-2.82-1.63-3.82c-.99-1.06-2.44-1.67-3.97-1.67s-3,.6-3.97,1.62Zm51.5,21.17c4.5,0,4.51-7,0-7s-4.51,7,0,7Zm13.62-37.65c1.08,1.08,2.52,1.7,3.96,1.7s2.7-.52,3.81-1.49l.15-.13.13-.15c.98-1.11,1.5-2.43,1.5-3.82,0-1.46-.58-2.84-1.63-3.89-1.04-1.04-2.5-1.63-4-1.63s-2.97.6-3.85,1.56c-1.11,1.11-1.7,2.48-1.7,3.96s.58,2.84,1.63,3.89Zm-6.25-45.56c1.53,0,3.02-.64,3.96-1.69,1.04-1.08,1.63-2.49,1.63-3.89,0-1.47-.58-2.86-1.64-3.91-1.03-1.02-2.42-1.58-3.93-1.58s-2.92.57-3.86,1.53c-1.13,1.03-1.76,2.43-1.76,3.96,0,1.37.58,2.8,1.54,3.8,1.02,1.13,2.5,1.78,4.05,1.78Zm17.91,19.14c1.42,0,2.87-.61,3.87-1.61,1.03-1.02,1.65-2.48,1.65-3.91s-.59-2.93-1.63-3.96c-1.01-1.01-2.4-1.56-3.91-1.56s-2.94.57-3.94,1.57c-1.03,1.03-1.62,2.48-1.62,3.96s.61,2.89,1.62,3.89c1.07,1.07,2.44,1.63,3.96,1.63Zm-39.11,46.28c0,1.37.47,2.68,1.33,3.67,1.01,1.18,2.46,1.83,4.09,1.83,3.09,0,5.42-2.37,5.42-5.5,0-1.37-.47-2.68-1.33-3.67-1.01-1.18-2.46-1.83-4.09-1.83-3.09,0-5.42,2.37-5.42,5.5Zm-150.63-66.79c4.5,0,4.51-7,0-7s-4.51,7,0,7Zm143.6,91.58c1.01,1.09,2.46,1.72,3.99,1.72s2.86-.58,3.89-1.62c1.08-1.08,1.7-2.52,1.7-3.96s-.66-2.97-1.73-3.93c-1-1.01-2.38-1.57-3.88-1.57s-2.9.56-3.86,1.52c-1.09,1.07-1.71,2.52-1.71,3.98s.6,2.93,1.6,3.86Zm6.43-56.31c-1.03,1.03-1.62,2.47-1.62,3.96s.56,2.8,1.54,3.81c.98,1.09,2.46,1.72,4.04,1.72,1.41,0,2.86-.61,3.87-1.62,1.06-1.04,1.65-2.43,1.65-3.91s-.59-2.92-1.62-3.95c-1.01-1.02-2.4-1.58-3.92-1.58s-2.94.57-3.94,1.57Zm-18.27,9.5c0,1.37.47,2.68,1.33,3.67,1.01,1.18,2.46,1.83,4.09,1.83,3.09,0,5.42-2.37,5.42-5.5,0-1.37-.47-2.67-1.33-3.67-1.01-1.18-2.46-1.83-4.09-1.83-3.09,0-5.42,2.37-5.42,5.5Zm18.35-17.87c1.5,0,2.94-.59,3.96-1.62,1.04-1.04,1.63-2.48,1.63-3.96s-.65-3.03-1.7-3.96c-1.02-.99-2.41-1.53-3.89-1.53s-2.91.55-3.87,1.52c-1.04,1.03-1.64,2.48-1.64,3.98,0,1.42.56,2.84,1.47,3.8,1.02,1.13,2.5,1.78,4.05,1.78Zm-116.59-52.13c3.09,0,5.42-2.37,5.42-5.5s-2.33-5.5-5.42-5.5-5.42,2.37-5.42,5.5,2.33,5.5,5.42,5.5Zm8.59-27.05c1.52,0,3-.64,3.94-1.69.99-1.01,1.58-2.44,1.58-3.84,0-1.54-.59-2.93-1.61-3.87-.98-1.05-2.43-1.65-3.97-1.65s-3.01.59-3.91,1.56c-1.06,1.06-1.62,2.43-1.62,3.96,0,1.44.56,2.81,1.54,3.81.99,1.09,2.46,1.72,4.04,1.72Zm10.31,13.13c4.5,0,4.51-7,0-7s-4.51,7,0,7Zm-34.81,38.83c0,3.13,2.33,5.5,5.42,5.5s5.42-2.37,5.42-5.5-2.33-5.5-5.42-5.5-5.42,2.37-5.42,5.5Zm4.05-65.39c4.5,0,4.51-7,0-7s-4.51,7,0,7Zm-8.97,42.84c1.4,0,2.83-.59,3.81-1.56,1.13-1.02,1.77-2.49,1.77-4.03,0-1.38-.52-2.7-1.52-3.84l-.1-.11c-.99-1-2.41-1.57-3.89-1.57s-3.04.62-3.97,1.63c-1.05,1.05-1.63,2.43-1.63,3.89s.58,2.9,1.56,3.89c1.08,1.08,2.52,1.7,3.96,1.7Zm-4.34,62.65c3.09,0,5.42-2.37,5.42-5.5s-2.33-5.5-5.42-5.5-5.42,2.37-5.42,5.5,2.33,5.5,5.42,5.5Zm38.62-14.94c0,3.13,2.33,5.5,5.42,5.5s5.42-2.37,5.42-5.5-2.33-5.5-5.42-5.5-5.42,2.37-5.42,5.5Zm-35.1-77.27c4.5,0,4.51-7,0-7s-4.51,7,0,7Zm76.01,99.55c3.09,0,5.42-2.37,5.42-5.5,0-1.37-.47-2.67-1.33-3.67-1.01-1.18-2.46-1.83-4.09-1.83-3.09,0-5.42,2.37-5.42,5.5,0,1.37.47,2.68,1.33,3.67,1.01,1.18,2.46,1.83,4.09,1.83Zm-4.51,51.44c4.5,0,4.51-7,0-7s-4.51,7,0,7Zm-10.62-155.95c1.45,0,2.83-.58,3.88-1.62,1.06-1.05,1.64-2.43,1.64-3.91s-.59-2.92-1.62-3.95c-1-1-2.43-1.58-3.94-1.58s-2.86.55-3.8,1.5c-1.11.97-1.75,2.43-1.75,4.03,0,1.44.56,2.8,1.54,3.81.98,1.09,2.46,1.72,4.04,1.72Zm-22.63,150.39c0,3.13,2.33,5.5,5.42,5.5s5.42-2.37,5.42-5.5-2.33-5.5-5.42-5.5-5.42,2.37-5.42,5.5Zm20.09-123.47c3.09,0,5.42-2.37,5.42-5.5s-2.33-5.5-5.42-5.5-5.42,2.37-5.42,5.5,2.33,5.5,5.42,5.5Zm17.67,3.15c3.09,0,5.42-2.37,5.42-5.5,0-1.37-.47-2.67-1.33-3.67-1.01-1.18-2.46-1.83-4.09-1.83-3.09,0-5.42,2.37-5.42,5.5,0,1.37.47,2.68,1.33,3.67,1.01,1.18,2.46,1.83,4.09,1.83Zm-20.09,12.64c4.5,0,4.51-7,0-7s-4.51,7,0,7Zm-12.15,130.51c0,1.47.58,2.85,1.62,3.88,1.04,1.05,2.48,1.65,3.97,1.65s2.85-.58,3.87-1.62c1.06-1.05,1.65-2.43,1.65-3.91s-.56-2.88-1.49-3.82c-1.01-1.08-2.49-1.7-4.05-1.7s-2.9.56-3.82,1.51c-1.14,1.05-1.75,2.43-1.75,4.01Zm13.51-37.25c3.09,0,5.42-2.37,5.42-5.5s-2.33-5.5-5.42-5.5-5.42,2.37-5.42,5.5,2.33,5.5,5.42,5.5Zm340.84-39.18v710.23H129.47l22.01-21.29h-85.3l57.28-55.4H23.62l37.73-36.49c-2.75-3.67-4.84-7.81-5.53-11.97-.58-3.5-1.18-6.99-1.8-10.48-.88-4.96-1.76-9.92-2.65-14.89-5.47-30.65-11.13-62.34-13.96-94.04-1.82-20.34-2.17-38.17-1.07-54.5,1.58-23.41,4.99-41.76,10.75-57.74,4.23-11.75,8.47-20.96,13.34-28.99,6.33-10.43,13.21-19.14,20.44-25.89,11.03-10.29,23.34-17.52,36.59-21.49,12.73-3.81,26.91-4.12,41-.88,24.11,5.53,46.62,24.55,58.74,49.63,4.13,8.55,7.2,16.76,9.33,24.83.93,1.66,1.82,3.33,2.64,5.02,5.28,10.93,9.28,22.24,11.16,34.23,1.64,10.43,2.64,20.81,2.82,31.31l49.09-47.48c-4.46-26.36-8.49-53.26-9.69-80.31-43.88-47.4-67.95-108.64-67.95-173.6,0-68.33,26.61-132.58,74.93-180.89,48.32-48.32,112.56-74.93,180.89-74.93s132.58,26.61,180.89,74.93c15.17,15.17,28.19,31.93,38.93,49.87l92.03-89v96.56l70.33-68.02v82.5l11.21-10.84Zm-130.58-33.29c5.46.45,11,2.09,15.63,4.8,7.06,4.13,15.05,13.03,16.66,22.05.83,4.66,1.73,9.39,2.64,14.09.04.03.07.07.11.1v-74.93l-35.04,33.89Zm-50.96,49.28l-15.41,14.91c-.09,1.2-.56,2.35-1.36,3.29l-.14.16-.16.14c-1.05.93-2.29,1.43-3.59,1.48l-15.28,14.78c.13.47.21.95.21,1.44,0,1.43-.61,2.89-1.64,3.9-1.02,1.02-2.46,1.62-3.94,1.62-.53,0-1.06-.1-1.56-.25l-6.83,6.61c4.06,2.45,7.9,5.31,11.82,8.78,6.29,5.58,11.18,12.55,14.73,18.01,3.39,5.2,6.23,10.63,8.72,16.17l34-32.88c-.57-2.94-1.2-5.86-1.89-8.76-1.59-.02-3.01-.66-4.01-1.82-.86-1-1.33-2.3-1.33-3.67,0-2.1,1.06-3.84,2.68-4.77-1.39-4.92-2.94-9.78-4.65-14.59-.8.46-1.72.74-2.75.74-1.62,0-3.08-.65-4.09-1.83-.86-1-1.33-2.3-1.33-3.67,0-2.74,1.78-4.89,4.28-5.39-1.99-4.87-4.16-9.67-6.48-14.4Zm-2.38,121.12c3.22,7.22,5.88,14.7,8.43,22.22.14.22.28.45.42.67.53.58,1.07,1.14,1.62,1.67.34.09.69.19,1.03.27.69-.67,1.37-1.38,2.05-2.13,2.06-3.09,3.98-6.52,5.78-10.37,3.6-9.46,6.27-19.85,8.11-31.58.28-2.6.48-5.26.65-7.94l-28.1,27.18Zm-387.39,77.67c9.84-25.8,22-45.63,37.16-60.64,7.04-6.97,14.26-12.51,21.54-16.57.76-2.08,2.68-3.48,5.05-3.48.54,0,1.06.08,1.56.22,10.75-4.71,23.58-9.29,37.75-8.32,13.5.93,25.18,4.55,34.74,10.77,9.44,6.15,17.03,13.59,25.37,24.9,4.23,5.73,7.92,12.32,11.29,20.14,2.15,4.99,4.46,10.59,6.56,16.61l12.44-12.03c-.46-.81-.74-1.74-.74-2.71,0-1.48.59-2.92,1.62-3.96,1-1,2.43-1.57,3.94-1.57,1.05,0,2.03.28,2.87.78l10.8-10.44c1.92-14.4,5.16-32.49,12.45-50.19,1.38-3.34,2.82-6.85,4.46-10.4-.35.12-.73.2-1.16.2-4.51,0-4.5-7,0-7,1.81,0,2.88,1.14,3.24,2.49,2.22-4.38,4.79-8.76,7.94-12.9,5.52-7.26,13.09-16.23,23.77-23.32-1.13-.24-2.12-.82-2.87-1.7-.86-1-1.33-2.3-1.33-3.67,0-3.14,2.33-5.5,5.42-5.5s5.42,2.36,5.42,5.5c0,.55-.09,1.07-.23,1.56,2.69-1.42,5.62-2.76,8.73-3.96.34-1.37,1.42-2.53,3.25-2.53.86,0,1.55.26,2.09.67,13.05-4.07,28.44-5.4,42.8-.27.21.07.4.15.61.22l56.42-54.57c-10.33-18.09-23.14-34.92-38.27-50.05-7.13-7.13-14.64-13.74-22.48-19.83.1.1.2.19.29.3.86,1,1.33,2.3,1.33,3.67,0,3.14-2.33,5.5-5.42,5.5-1.62,0-3.08-.65-4.09-1.83-.86-1-1.33-2.3-1.33-3.67,0-3.14,2.33-5.5,5.42-5.5.99,0,1.91.24,2.71.7-11.38-8.73-23.44-16.35-36.06-22.8-.11,1.29-.69,2.57-1.62,3.49-1.01,1.01-2.46,1.61-3.87,1.61-1.53,0-2.9-.56-3.97-1.63-1.01-1-1.62-2.45-1.62-3.89s.59-2.93,1.62-3.96c.04-.04.1-.08.15-.12-6.79-3.1-13.72-5.87-20.78-8.3.44,1.99-.65,4.36-3.28,4.36-3.56,0-4.29-4.35-2.24-6.19-22.83-7.23-46.88-11-71.51-11-4.84,0-9.65.16-14.44.45.12.1.26.18.37.28,1.11,1.11,1.71,2.54,1.71,4.04s-.61,2.89-1.64,3.9l-.1.1c-1.14,1-2.46,1.52-3.84,1.52-1.51,0-2.94-.6-3.92-1.65-1.03-.95-1.67-2.41-1.67-3.87s.54-2.73,1.45-3.75c-9.5.88-18.88,2.32-28.1,4.31-.98,1.23-2.46,2-4.21,2-.83,0-1.62-.17-2.33-.5-10.27,2.52-20.33,5.74-30.12,9.62.07.36.11.73.11,1.11,0,3.14-2.33,5.5-5.42,5.5-1.62,0-3.08-.65-4.09-1.83-.17-.2-.31-.42-.45-.63-15.26,6.86-29.79,15.37-43.38,25.44.33.21.65.45.93.72,1.07,1.07,1.63,2.44,1.63,3.96s-.65,3.02-1.73,3.99c-1,.96-2.42,1.54-3.86,1.54s-2.81-.58-3.82-1.56c-.64-.57-1.13-1.35-1.41-2.21-6.38,5.18-12.53,10.7-18.41,16.59-13,13-24.29,27.27-33.77,42.5,1.48,0,2.9.58,3.91,1.59,1.03,1.03,1.63,2.48,1.63,3.96s-.62,2.89-1.65,3.91c-1.02,1.04-2.4,1.61-3.87,1.61s-2.94-.6-3.97-1.65c-.38-.37-.67-.8-.92-1.25-2.17,3.83-4.22,7.72-6.17,11.66-.14,1.42-.76,2.64-1.71,3.51-14.76,31.14-22.54,65.43-22.54,100.91,0,.73.02,1.46.02,2.19,1.28.1,2.49.61,3.38,1.47,1.06.96,1.69,2.43,1.69,4.02,0,1.48-.59,2.93-1.63,3.96l-.11.11c-.89.76-1.91,1.22-2.97,1.38.46,8.41,1.36,16.75,2.69,24.97.48.85.74,1.79.74,2.75,0,.36-.04.71-.1,1.05,2.71,15.22,6.91,30.04,12.5,44.3.02.02.04.03.06.05,1.02,1.02,1.63,2.47,1.63,3.89,0,.07-.02.14-.02.21,3.2,7.72,6.82,15.27,10.84,22.62.48-.13.97-.22,1.48-.22,1.47,0,2.89.59,3.89,1.61,1.02.92,1.65,2.4,1.65,3.91s-.59,2.92-1.63,3.96l-.03.02c4.28,7.04,8.95,13.88,13.99,20.48.21-3.19.48-6.32.82-9.38-2.27-1.45-1.99-5.52.82-6.32,1.7-11.52,4.41-22.16,8.19-32.07Zm196.53,25.61c2.81,11.25,4.53,22.81,5.35,34.41l12.14-11.75c-2.55-22.8-5.18-47.86-4.01-73.2l-23.28,22.52c3.01,7.04,5.78,14.09,7.99,21.38.44-.21.95-.34,1.54-.34,4.41,0,4.49,6.68.27,6.97Zm4.48,154.96c.4,2.51.89,5.01,1.42,7.49.17.25.33.51.51.76.99,1.16,2,2.28,3.02,3.35,1.14-2.19,2.21-4.48,3.25-6.82,4.28-10.89,7.42-22.62,9.38-34.97,2.36-21.24,1.42-42.86-.52-64.28l-16.33,15.79c-1.3,26.24-3.62,52.5-.72,78.67Zm-252.86,124.85l64.58-62.46c-.51-5.44-1.13-11.04-1.87-16.84-.58-4.1-1.2-8.31-1.87-12.57-1.88-12.04-4.01-24.31-6.08-36.17-.1-.57-.2-1.15-.3-1.72l-52.44,50.71c-.8,15.23-2.28,30.43-2.61,45.69-.24,11.12-.06,22.25.58,33.35Zm4.6,37.29c.84,4.07,1.79,8.12,2.87,12.14.71,1.15,1.42,2.25,2.16,3.32,2.4,2.77,4.96,5.35,7.67,7.71,2.29,1.56,4.63,2.95,7,4.16,1.66.56,3.31,1.02,4.97,1.4,1.14.04,2.27.05,3.41,0,1.21-.28,2.4-.62,3.6-1,1.63-.86,3.24-1.81,4.82-2.86,2.18-1.94,4.27-4.05,6.25-6.33,2.31-3.37,4.37-6.94,6.15-10.66,5.12-13.33,8.88-27.65,11.2-42.66.91-7.97,1.43-16.23,1.59-24.88l-61.68,59.65Zm-162.56,62.06c-1.8-2.63-3.13-5.46-3.58-8.2-.07-.42-.14-.83-.21-1.25-2.25-.76-4.41-1.72-6.4-2.89-.3-.18-.61-.38-.92-.57l-13.34,12.9h24.46Zm43.59-85.29l31.65-30.62c-.35-4.58-.61-9-.82-13.21-.87-17.46-.55-36.39.96-57.87l.16-2.27c1.21-17.14,2.46-34.83.73-51.98-.67-3.91-1.52-7.58-2.53-11.11-.36,0-.72,0-1.08.02-1.39.32-2.75.71-4.11,1.15-1.75.92-3.43,1.93-5.08,3.02-2.67,2.37-5.13,4.94-7.44,7.67-3.74,5.29-6.95,10.91-9.68,16.78-3.98,10.36-6.62,21.16-8.34,32.12-3.22,28.13-1.29,56.68,2.26,84.71,1,7.21,2.13,14.4,3.31,21.58Zm11.65,85.29l37.08-35.86c-8.44-20.5-12.89-42.25-15.33-62.25l-30.53,29.52c2.61,14.81,5.36,29.6,7.82,44.44,1.43,5.32,1.43,10.63,0,15.95-1.01,2.39-2.02,4.78-3.02,7.17-.19.35-.39.69-.59,1.03h4.58Zm95.64,39.4c-4.75-3.8-9.17-8.03-13.04-12.55-2.57-3-4.96-6.12-7.22-9.32-1.46-1.14-2.89-2.32-4.28-3.53h-42.43l-26.27,25.4h93.23Zm-37.86-39.4c-2.14-2.69-4.16-5.46-6.07-8.28l-8.56,8.28h14.63Zm146.94-17.65c3.24-5.46,5.72-11.46,8.41-18.17,4.04-10.11,7.31-20.8,9.69-31.77,4.89-22.48,6.94-46.24,6.09-70.64-1.18-33.85-7.11-67.99-12.85-101.01-2.06-11.84-4.18-24.08-6.06-36.15-.46-2.96-.91-5.9-1.33-8.8h-.05s-1.07-7.97-1.07-7.97h.05c-1.53-12.56-2.51-23.9-2.99-34.45-1.06-23.27.43-46.93,10.38-68.35,4.77-10.27,11.06-19.91,19-28.02,3.91-4,8.35-7.68,13.62-9.53,11.48-4.03,18.55,3.09,23.58,12.59,4.09,7.72,7.34,15.89,9.68,24.31.48,1.73,4.67,21.77,4.31,21.81,0,0-.19.03-.19.03,1.7,19.16.49,38.49-.68,57.25-.6,9.66-1.22,19.64-1.42,29.33-.42,20.58.96,38.78,4.21,55.64,1.48,7.65,3.56,14.85,6.2,21.41,4.08,10.14,7.91,18.42,13.34,25.83,8.27,11.29,16.35,19.49,26.2,26.58,11.86,8.54,27.5,11.42,41.86,7.72,15.91-4.1,27.01-16.08,33.52-25.41,6.3-9.03,10.62-20.55,14.43-30.71,14.64-39.04,12.85-82.39,9.67-115.8-.85-8.9-1.88-17.98-2.88-26.77-3.28-28.85-6.54-57.78-4.53-86.83.14-2.08.32-4.19.53-6.31l-.15-.02,1.07-7.94s.2,0,.2,0c1.84-10.19,4.47-19.98,7.85-29.25l-.18-.08,3.02-7.15s.27.09.27.09c-.31-.13,5.73-8.75,6.25-9.4,2.42-2.99,5.4-5.71,9.3-6.45,4.46-.84,9.08,1.2,12.39,4.3,3.31,3.1,5.55,7.16,7.65,11.18,4.98,9.52,10.03,19.22,13.19,29.46,2.93,9.49,7.01,19.05,12.41,27.41,7.45,11.53,20.5,26.14,40.35,30.3,5.18,1.08,11.95,2.26,18.37,1.66,9.07-.84,15.41-2.58,23.39-6.41,11.15-5.35,19.33-15.33,25.21-23.43,6.2-8.54,10.32-18.75,13.85-28.52,5.81-16.1,9.32-34.89,10.42-55.85,1.55-29.45-4.34-59.39-10.03-88.33-1.52-7.74-3.09-15.74-4.5-23.61-.91-5.12-6.38-11.15-10.91-13.81-5.35-3.13-13.02-4.18-18.24-2.49-3.93,1.27-11.03,4.38-14.47,10.88-3.07,5.81-3.8,11.57-2.42,19.26,1.28,7.16,2.7,14.44,4.07,21.48,2.16,11.1,4.38,22.52,6.17,33.98h.09s1.07,7.96,1.07,7.96l-.12.02c1.62,15.36,1.85,29.39.7,42.51l.19.03-1.05,7.84s-.01.09-.02.13l-.17-.02c-2.66,15.17-6.74,29.01-14.87,42.15-1.39,2.24-2.8,4.52-4.78,6.27-4.18,3.69-11.23,3.49-15.61.2-1.91-1.44-3.39-3.37-4.72-5.35-5.81-8.64-8.62-18.71-11.92-28.48-4.94-14.65-9.6-28.48-17.63-40.8-3.15-4.83-7.43-10.96-12.64-15.58-6.96-6.17-13.35-9.96-22.04-13.07-14.23-5.09-33.58-2.52-49.29,6.55-8.53,4.92-15.97,11.91-24.14,22.64-5.81,7.64-9.43,16.43-12.93,24.92-7.31,17.74-10.29,36.24-12.07,50.37-1.98,15.72-3.01,31.76-.94,47.53,1.89,14.46,2.12,29.32,3.79,43.98l.6,5.3c3.41,30.24,6.92,61.42,4.03,92.48l.18.02-1.07,7.98-.17-.02c.54.07-5.65,23.18-6.33,25.27-2.27,6.98-1.74,12.63-6.82,18.46-2.61,2.99-5.78,6.01-9.74,6.29-5.45.37-9.7-4.49-12.72-9.04-8.12-12.23-13.12-23.98-15.78-38.15,0,0-.22.03-.22.03,0-.01,0-.02,0-.03l-1.07-7.94.16-.02c-2-21.3-.81-42.65.35-63.39.46-3.7.64-7.52.97-11.25,4.28-48.2-.9-102.96-38.97-137.47-19.89-18.03-46.77-18.04-70.16-7.7-7.96,3.52-16,9.27-23.92,17.11-14.22,14.07-22.86,31.63-30.09,50.03-8.31,21.15-13.93,43.3-13.83,66.16.17,37.26,6.72,74.87,13.05,111.23,2.08,11.92,4.22,24.24,6.11,36.38.49,3.14.96,6.25,1.4,9.32h.04s1.07,7.97,1.07,7.97h-.06c3.5,29.38,4.1,54.14,1.84,76.75l.14.02-1.07,7.97-.16-.02c-2.28,13.27-5.65,26.01-10.04,38.04l.22.09-3.02,7.17-.31-.13c-1.15,2.19-2.39,4.34-3.71,6.42l.31.24-4.69,6.07-.3-.23c-1.02,1.09-2.06,2.15-3.13,3.17l.27.35-6.07,4.69-.29-.37c-.34.2-.67.4-1.01.6l.19.47-6.34,2.67v.11s-.38.05-.38.05l-.45.19-.05-.12-5.13.69-.03.24s-.88-.12-.88-.12l-1.03.14-.04-.28-6.02-.81.07-.55c-.31-.08-.62-.17-.93-.26l-.18.43-7.17-3.02.2-.47c-1.02-.58-2.04-1.19-3.05-1.83l-.23.29-6.06-4.68s.25-.34.25-.34c-1.43-1.35-2.83-2.76-4.18-4.22l-.29.23-4.69-6.07.3-.23c-1.94-3.05-3.78-6.32-5.53-9.85l-.24.1s-3.02-7.17-3.02-7.17l.18-.08c-4.33-11.83-7.66-24.99-10.09-39.85l-.12.02-1.07-7.98h.1c-1.83-16.71-2.53-34.07-2.13-52.82.21-9.73.89-19.53,1.55-29,.69-9.99,1.41-20.32,1.56-30.43.17-11.59-.74-23.51-2.77-36.44-1.65-10.49-5.13-21.14-10.64-32.55-10.57-21.88-29.96-38.42-50.61-43.16-12.07-2.77-24.13-2.53-34.88.68-11.46,3.43-22.17,9.74-31.84,18.76-6.43,6-12.61,13.85-18.37,23.34-4.45,7.32-8.36,15.85-12.31,26.83-5.37,14.91-8.56,32.22-10.07,54.49-1.06,15.7-.72,32.91,1.05,52.62,2.79,31.18,8.4,62.61,13.83,93,.89,4.97,1.77,9.94,2.65,14.91.62,3.53,1.23,7.06,1.82,10.6.81,4.87,6.29,11.03,10.9,13.73,5.35,3.13,13.03,4.18,18.24,2.49,3.89-1.26,10.88-4.31,14.36-10.67l2.75-6.51c1.06-4.19,1.03-8.27-.1-12.46l-.12-.58c-1.68-10.14-3.53-20.44-5.32-30.4-2.79-15.51-5.66-31.47-8-47.43h-.05s-1.07-7.95-1.07-7.95c0-.02.04-.03.04-.03-.01,0-.78-6.59-.84-7.18-.53-4.82-1.03-9.64-1.46-14.47-.02-.24-.04-.47-.06-.71-3.49-39.6-7.36-92.56,27.27-120.57,11.11-8.99,25.06-7.83,34.08,3.44,6.54,8.18,9.76,18.51,11.8,28.57,0,0,.28-.04.28-.04,0,.02,0,.04,0,.05l1.07,7.93-.22.03c1.38,17.06.18,34.15-1,50.75l-.16,2.26c-1.48,21-1.79,39.46-.95,56.44,3.79,76.38,23.85,108.16,38.62,125.42,6.9,8.06,15.83,15.33,25.16,20.46,11.71,6.45,24.18,9.99,37.05,10.53,11.59.49,23.89-2.48,36.56-8.81,9.05-4.52,17.84-11.6,24.75-19.91,3.71-4.46,7.96-9.8,11.41-15.62Zm60.47-374.02c0,1.55-.57,2.9-1.65,3.91-.97,1.06-2.37,1.68-3.87,1.68s-2.94-.6-3.97-1.65l-.1-.1c-.59-.67-.99-1.41-1.24-2.18-1.63,1.69-3.2,3.44-4.71,5.25-5.37,7.5-9.89,15.57-13.7,23.97-3.39,8.66-6.06,17.61-7.65,26.77-.57,5.76-.77,11.58-.77,17.4l46.19-44.67c-.15-4.92-.47-9.82-.99-14.68-1.31-8.11-3.19-15.9-5.6-23.28-.25.08-.5.15-.75.23-1.46.74-2.88,1.56-4.28,2.41.5.24.97.53,1.37.92,1.1,1.08,1.7,2.51,1.7,4.02Zm-37.1,93.99c.17,3.28.38,6.56.63,9.84,13.52,6.63,27.65,11.93,42.22,15.85-.05-2.02-.07-4.08-.08-6.14-.91-.98-1.46-2.35-1.46-3.7s.55-2.78,1.5-3.8c0-.6,0-1.19.02-1.79.2-9.94.83-20.05,1.44-29.83.5-8.08,1.01-16.27,1.28-24.47l-11.67,11.28c.43.81.69,1.72.69,2.65,0,1.43-.61,2.89-1.64,3.9-1.01,1.02-2.45,1.62-3.94,1.62-.99,0-1.96-.27-2.78-.75l-26.21,25.35Zm2.96,32.93c.09.72.17,1.44.27,2.16.63,4.51,1.29,9.02,1.99,13.52,1.05,6.74,2.17,13.48,3.32,20.21l25.63-24.78c-8.12-2.3-16.1-5.01-23.93-8.11-.03.17-.06.34-.11.51-2.42-.83-4.73-1.96-6.92-3.41-.08-.03-.16-.07-.24-.1Zm2.42,264.75h396.88v-399.84c-.67,1.03-1.36,2.05-2.08,3.04-7.37,10.15-15.93,19.77-27.47,25.31-8.74,4.19-15.8,6.08-25.43,6.98-6.71.62-13.61-.39-20.15-1.76-18.93-3.96-33.88-17.02-44.15-32.89-8.45-6.09-16.08-14.19-22.43-24.01-1.03-1.59-2-3.22-2.92-4.86l-38.01,36.77c-.17,32.11,4.93,64.11,7.98,96.01,3.76,39.41,4.08,80.87-10.02,118.47-4.03,10.74-8.49,22.53-15.13,32.04-9.02,12.92-21.34,23.76-36.94,27.79-15.87,4.09-33.52.95-46.87-8.66-10.76-7.75-18.96-16.36-26.79-26.9-8.33-6.81-15.6-14.65-22.96-24.7-6.17-8.42-10.37-17.46-14.79-28.45-2.46-6.13-4.48-12.75-6.03-19.7l-33.38,32.29c4.57,27.14,8.55,54.36,9.51,81.87.84,24.13-1.09,48.52-6.23,72.12-2.43,11.15-5.75,22.12-9.99,32.72-.85,2.12-1.71,4.24-2.6,6.35Zm239.92-457.84c-.49-1.47-.97-2.94-1.46-4.41-.76-2.29-1.5-4.54-2.25-6.76-.05.03-.09.06-.14.08-1.6,1.45-3.11,2.98-4.54,4.6-2.45,3.63-4.52,7.45-6.36,11.43-1.77,4.54-3.32,9.16-4.67,13.83l19.41-18.77Zm211.29-162.61l-40.33,39v11.36c5.55,28.32,10.84,56.9,9.33,85.7-.94,17.87-3.71,36.27-9.33,53.37v445.01h-417.92c-3.28,5.3-7.16,10.28-11.13,15.05-3.04,3.66-6.49,7.16-10.2,10.36h479.58V219.13Z"/>
      </g>
    </g>
  </g>
</svg>