<?xml version="1.0" encoding="UTF-8"?>
<svg id="Layer_8_copy" data-name="Layer 8 copy" xmlns="http://www.w3.org/2000/svg" viewBox="0 0 296.18 433.4">
  <defs>
    <style>
      .cls-1 {
        fill: #ffff68;
      }

      .cls-2 {
        fill: #231f20;
      }
    </style>
  </defs>
  <g id="Basic_Shapes_copy" data-name="Basic Shapes copy">
    <g>
      <path d="m228.49,98.52c-7.24-35.95-39.06-63.11-77.11-63.11-43.38,0-78.66,35.29-78.66,78.66v211.37c0,38.05,27.16,69.87,63.11,77.11,10.81,7.6,23.99,12.07,38.2,12.07,36.74,0,66.53-29.79,66.53-66.53v-211.37c0-14.22-4.47-27.39-12.07-38.2Z"/>
      <path d="m96.98,325.45V114.08c0-29.99,24.4-54.39,54.39-54.39s54.39,24.4,54.39,54.39v211.37c0,29.99-24.4,54.39-54.39,54.39s-54.39-24.4-54.39-54.39Z"/>
      <g>
        <path class="cls-2" d="m130.42,349.33v-211.37c0-29.99,24.4-54.39,54.39-54.39s54.39,24.4,54.39,54.39v211.37c0,29.99-24.4,54.39-54.39,54.39s-54.39-24.4-54.39-54.39Z"/>
        <path class="cls-1" d="m96.98,325.45V114.08c0-29.99,24.4-54.39,54.39-54.39s54.39,24.4,54.39,54.39v211.37c0,29.99-24.4,54.39-54.39,54.39s-54.39-24.4-54.39-54.39Z"/>
      </g>
    </g>
  </g>
</svg>