<?xml version="1.0" encoding="UTF-8"?>
<svg id="Layer_8_copy" data-name="Layer 8 copy" xmlns="http://www.w3.org/2000/svg" viewBox="0 0 305.76 320.41">
  <defs>
    <style>
      .cls-1 {
        fill: #ffbf0b;
      }

      .cls-2 {
        fill: #231f20;
      }
    </style>
  </defs>
  <g id="Basic_Shapes_copy" data-name="Basic Shapes copy">
    <g>
      <path d="m264.42,123.28c-13.81-51.81-61.14-90.09-117.24-90.09-66.9,0-121.32,54.42-121.32,121.32,0,56.1,38.28,103.42,90.09,117.24,16.29,9.82,35.37,15.48,55.77,15.48,59.74,0,108.17-48.43,108.17-108.17,0-20.41-5.65-39.49-15.48-55.77Z"/>
      <circle cx="147.18" cy="154.51" r="95.02"/>
      <g>
        <path class="cls-2" d="m76.71,179.05c0-52.39,42.62-95.02,95.02-95.02s95.02,42.62,95.02,95.02-42.62,95.02-95.02,95.02-95.02-42.62-95.02-95.02Z"/>
        <path class="cls-1" d="m52.16,154.51c0-52.39,42.62-95.02,95.02-95.02s95.02,42.62,95.02,95.02-42.62,95.02-95.02,95.02-95.02-42.62-95.02-95.02Z"/>
      </g>
    </g>
  </g>
</svg>