<?xml version="1.0" encoding="UTF-8"?>
<svg id="Layer_8_copy" data-name="Layer 8 copy" xmlns="http://www.w3.org/2000/svg" viewBox="0 0 510.75 320.41">
  <defs>
    <style>
      .cls-1 {
        fill: #231f20;
      }

      .cls-2 {
        fill: #50f8c3;
      }
    </style>
  </defs>
  <g id="Basic_Shapes_copy" data-name="Basic Shapes copy">
    <g>
      <path d="m364.75,78.53c-35.43-23.75-76.77-35.7-119.55-34.56-42.78,1.14-83.43,15.27-117.55,40.86-33.36,25.03-58.04,59.05-71.37,98.39-6.54,19.31-3.22,40.66,8.9,57.09,10.63,14.42,26.87,23.51,44.47,25.19,8.71,7.09,19.95,11.33,32.44,11h.54c20.51-.56,38.8-13.64,45.34-33.09,12.05-35.81,45.43-62.03,85.4-63.09,6.75-.18,13.35.39,19.73,1.59,13.94,8.81,25.16,21.89,31.48,37.84,8.56,21.58,28.83,36.41,51.87,38.64,8.99,7.28,20.51,11.34,32.58,11.02h.55c34.34-.93,57.38-35.75,44.64-67.66-3.16-7.92-6.84-15.57-10.98-22.92-.57-1.97-1.23-3.92-2-5.84-15.4-38.58-41.86-71.24-76.5-94.46Zm52.07,104.21c4.44,11.12,3.2,23.24-3.4,33.27-6.63,10.07-17.34,16.03-29.38,16.35h-.55c-15.15.42-29-8.56-34.46-22.31-16.31-41.11-56.97-67.94-101.2-66.76-44.22,1.17-83.41,30.13-97.51,72.04-4.72,14.03-18.07,23.72-33.23,24.12h-.54c-12.04.33-23.05-5.05-30.21-14.75-7.12-9.66-9-21.7-5.16-33.04,11.62-34.3,33.14-63.96,62.24-85.79,29.73-22.31,65.16-34.62,102.46-35.61,37.3-.99,73.33,9.43,104.21,30.12,30.22,20.26,53.29,48.74,66.72,82.37Z"/>
      <g>
        <path class="cls-1" d="m441.36,207.29c4.44,11.12,3.2,23.24-3.4,33.27-6.63,10.07-17.34,16.03-29.38,16.35h-.55c-15.15.42-29-8.56-34.46-22.31-16.31-41.11-56.97-67.94-101.2-66.76-44.22,1.17-83.41,30.13-97.51,72.04-4.72,14.03-18.07,23.72-33.23,24.12h-.54c-12.04.33-23.05-5.05-30.21-14.75-7.12-9.66-9-21.7-5.16-33.04,11.62-34.3,33.14-63.96,62.24-85.79,29.73-22.31,65.16-34.62,102.46-35.61,37.3-.99,73.33,9.43,104.21,30.12,30.22,20.26,53.29,48.74,66.72,82.37Z"/>
        <path class="cls-2" d="m416.82,182.74c4.44,11.12,3.2,23.24-3.4,33.27-6.63,10.07-17.34,16.03-29.38,16.35h-.55c-15.15.42-29-8.56-34.46-22.31-16.31-41.11-56.97-67.94-101.2-66.76-44.22,1.17-83.41,30.13-97.51,72.04-4.72,14.03-18.07,23.72-33.23,24.12h-.54c-12.04.33-23.05-5.05-30.21-14.75-7.12-9.66-9-21.7-5.16-33.04,11.62-34.3,33.14-63.96,62.24-85.79,29.73-22.31,65.16-34.62,102.46-35.61,37.3-.99,73.33,9.43,104.21,30.12,30.22,20.26,53.29,48.74,66.72,82.37Z"/>
      </g>
    </g>
  </g>
</svg>