<?xml version="1.0" encoding="UTF-8"?>
<svg id="Layer_8_copy" data-name="Layer 8 copy" xmlns="http://www.w3.org/2000/svg" viewBox="0 0 747.08 616.04">
  <defs>
    <style>
      .cls-1 {
        fill: #ffff1e;
      }

      .cls-2 {
        fill: #b97eff;
      }
    </style>
  </defs>
  <g id="Other_Shapes_copy" data-name="Other Shapes copy">
    <g>
      <g>
        <path class="cls-1" d="m557.21,476.82c-41.09,41.09-95.71,63.71-153.82,63.71-14.48,0-28.75-1.42-42.64-4.17,58.21-5.18,112.26-30.34,154.09-72.16,47.19-47.19,73.18-109.94,73.18-176.68,0-41.01-9.83-80.5-28.34-115.81,39.52,40.79,61.25,94.37,61.25,151.29s-22.63,112.74-63.72,153.82Z"/>
        <path class="cls-2" d="m495.89,129.78c-42.13-42.14-98.15-65.34-157.73-65.34s-115.6,23.2-157.74,65.34c-42.13,42.13-65.33,98.15-65.33,157.73s23.2,115.61,65.33,157.74c42.13,42.13,98.15,65.33,157.74,65.33s115.6-23.2,157.73-65.33c42.14-42.13,65.34-98.15,65.34-157.74s-23.2-115.6-65.34-157.73Zm-157.73,300.81c-78.89,0-143.08-64.19-143.08-143.08s64.19-143.08,143.08-143.08,143.08,64.19,143.08,143.08-64.19,143.08-143.08,143.08Z"/>
        <path class="cls-1" d="m221.87,287.51c0-64.12,52.17-116.29,116.29-116.29,12.81,0,25.14,2.09,36.67,5.93-68.33,13.35-120.05,73.66-120.05,145.84,0,19.49,3.79,38.11,10.65,55.18-26.53-21.33-43.55-54.04-43.55-90.66Z"/>
      </g>
      <path d="m583.98,142.4c-31.3-31.3-69.29-53.45-110.74-65.17-39.93-25.76-86.44-39.58-135.08-39.58-66.74,0-129.49,25.99-176.68,73.18-47.19,47.19-73.18,109.94-73.18,176.68s25.99,129.49,73.18,176.68c21.74,21.74,46.79,38.97,74,51.24,46.53,40.71,105.51,62.96,167.91,62.96,68.22,0,132.35-26.57,180.59-74.8,48.24-48.24,74.81-112.38,74.81-180.59s-26.57-132.35-74.81-180.59ZM115.08,287.51c0-59.58,23.2-115.6,65.33-157.73,42.13-42.13,98.15-65.34,157.74-65.34s115.6,23.2,157.73,65.34c42.13,42.13,65.34,98.15,65.34,157.73s-23.2,115.6-65.34,157.74c-42.13,42.13-98.15,65.33-157.73,65.33s-115.6-23.2-157.74-65.33-65.33-98.15-65.33-157.74Zm442.12,189.3c-41.09,41.09-95.71,63.71-153.82,63.71-14.48,0-28.75-1.42-42.64-4.17,58.21-5.18,112.26-30.34,154.09-72.16,47.19-47.19,73.18-109.94,73.18-176.68,0-41.01-9.83-80.5-28.34-115.81,39.52,40.79,61.25,94.37,61.25,151.29s-22.63,112.74-63.72,153.82Zm-75.97-189.3c0-78.89-64.18-143.08-143.08-143.08s-143.08,64.18-143.08,143.08,64.18,143.08,143.08,143.08,143.08-64.18,143.08-143.08Zm-143.08,116.29c-3.69,0-7.35-.18-10.95-.52-21.27-20.19-34.57-48.71-34.57-80.29,0-61.07,49.68-110.75,110.75-110.75,8.9,0,17.56,1.07,25.85,3.06,15.77,19.85,25.2,44.95,25.2,72.21,0,64.12-52.17,116.29-116.29,116.29Zm-116.29-116.29c0-64.12,52.17-116.29,116.29-116.29,12.81,0,25.14,2.09,36.67,5.93-68.33,13.35-120.05,73.66-120.05,145.84,0,19.49,3.79,38.11,10.65,55.18-26.53-21.33-43.55-54.04-43.55-90.66Z"/>
    </g>
  </g>
</svg>