<?xml version="1.0" encoding="UTF-8"?>
<svg id="Layer_8_copy" data-name="Layer 8 copy" xmlns="http://www.w3.org/2000/svg" viewBox="0 0 957.47 910.21">
  <defs>
    <style>
      .cls-1 {
        fill: #ffff68;
      }

      .cls-2 {
        fill: #8e88ff;
      }

      .cls-3 {
        fill: #50f8c3;
      }
    </style>
  </defs>
  <g id="Squiggles_copy" data-name="Squiggles copy">
    <g>
      <g>
        <circle class="cls-3" cx="184.42" cy="352.57" r="27.95"/>
        <path class="cls-1" d="m744.21,644.29c-3.67-10.23-5.66-22.94-5.76-36.74-.09-12.42,1.7-25.89,5.31-40.02,5.41-21.19,15.64-39.38,26.47-58.62,1.68-2.98,3.37-5.99,5.05-9.02,2.52-4.53,5.17-9.16,7.73-13.63,12.78-22.28,25.99-45.32,31.62-72.14,3-14.31.69-28.62-6.18-38.29-5.46-7.69-13.51-12.41-23.27-13.67-2.29-.29-4.51-.43-6.69-.43-40.74,0-62.32,49.38-70.71,68.58-2.74,6.28-5.48,12.62-8.23,18.98-25.61,59.32-52.09,120.67-97.99,165.13-11.64,11.28-24.4,21.41-37.92,30.12-15.69,10.11-30.76,16.66-44.78,19.48-23.12,4.65-43.5,3.06-62.28-4.87-9.98-4.21-17.14-9.24-25.46-15.99-6-4.87-11.12-11.95-16.07-18.79-4.44-6.14-7.46-13.64-10.65-21.58l-.44-1.08c-1.92-4.78-3.29-9.79-4.07-14.91l-.1-.63c-1.37-8.95-2.66-17.4-2.09-25.49,5.67-80.17,56.1-154.82,104.87-227.02,20.4-30.2,39.77-58.87,56.01-87.85.29-.41.56-.84.8-1.29.58-1.07,1.19-2.18,1.81-3.32,8.01-14.61,18.98-34.61,11.72-51.68-3.88-9.12-11.95-15.4-24-18.66-19.14-5.18-38.25,1.86-56.8,20.94-13.87,14.27-25.1,32.77-33.3,46.27-1.25,2.07-2.44,4.02-3.55,5.82-.11.19-.22.37-.33.56-27.3,39.27-51.68,83.13-78.19,140.49-4.34,9.39-8.7,18.95-12.92,28.2-16.6,36.42-33.78,74.08-53.52,109.4-13.23,23.68-26.33,43.97-40.03,62.03-21.23,28-45.3,59.73-79.84,70.98-5.56,1.81-12.36,2.45-18.95,3.06-2.34.22-4.71.21-7.25-.04-13.76-1.34-23.2-3.97-36.09-10.08-8.68-4.11-16.93-11.16-22.38-16.1-6.03-5.47-11.92-12.7-18.01-22.1-10.95-16.91-14.59-36.46-16.9-55.07-1.94-15.64-.65-30.83,2.05-50.28,3.82-27.44,13.63-56.75,30.89-92.23,8.25-16.97,17.86-33.65,28.68-49.83,4.83,24.26,26.27,42.6,51.93,42.6.87,0,1.74-.02,2.6-.07-9.98,15.68-18.85,31.72-26.53,48-.57.77-1.06,1.62-1.44,2.55l-4.74,11.23c-.33.77-.57,1.56-.73,2.35-9.02,23.5-15.53,46.45-19.38,68.39-1.54,8.79-3.87,22.07,3.12,33.86,7.09,11.96,16.32,14.91,22.81,15.28.52.03,1.03.04,1.55.04,16.12,0,30.91-14.26,44.61-31.35.11-.13.21-.26.32-.4l.06-.08c1.79-2.25,3.57-4.54,5.32-6.86.63-.83,1.19-1.58,1.7-2.23l.27-.35c.51-.66.94-1.35,1.3-2.07,1.87-2.59,3.71-5.18,5.5-7.77,34.3-49.48,59.46-104.72,83.8-158.13,2.34-5.14,4.68-10.28,7.03-15.4,12.83-28.03,26.64-57.79,42.1-86.42,16.64-30.83,35.3-59.22,57.06-86.81,20.33-25.78,44.44-48.65,73.7-69.9,14.5-10.53,31.74-22.03,49.75-27.41,22.29-6.67,48.29-2.91,66.23,9.57,20.91,14.54,34.94,34.21,40.58,56.87,4.62,18.58,4.04,39.21-1.83,64.89-4.63,20.25-13.02,39.92-21.4,58.16-6.84,14.89-15.2,30.55-26.31,49.3-9.01,15.19-18.75,30.41-28.17,45.12-9.95,15.53-20.23,31.59-29.81,47.86-2.24,3.81-4.48,7.61-6.71,11.42-7.22,12.29-14.69,25.01-22.16,37.41-9.36,15.53-17.3,29.38-24.12,43.42-.66.85-1.23,1.8-1.67,2.84l-4.74,11.23c-.53,1.26-.84,2.55-.95,3.84-1.5,4.49-2.8,8.88-3.91,13.2-.89,1.44-1.5,3.09-1.74,4.88l-.62,4.64c-1.12,2.19-1.61,4.73-1.26,7.36l.14,1.05c-.13,1.49,0,2.94.37,4.32-.24,2.07.04,4.22.91,6.28l.22.53.04.33c.06.43.14.85.24,1.26.23,2.03.95,4.02,2.2,5.79.08.3.17.6.28.89.53,3.19,2.3,6.12,5,8.08,1.57,2.02,3.75,3.57,6.32,4.33.95.51,1.95.9,2.98,1.15,3.29,2.23,7.31,2.68,10.88,1.52.73-.1,1.44-.26,2.14-.48,2.23.03,4.32-.56,6.16-1.59l1.9-.26c2.15-.29,4.1-1.11,5.73-2.31l8.33-3.52c1.92-.81,3.53-2.05,4.77-3.55,1.88-1.12,3.77-2.3,5.67-3.53,1.28-.43,2.51-1.08,3.64-1.95h.02s0-.02,0-.02l9.49-7.33c1.05-.81,1.94-1.76,2.66-2.8,8.12-7.28,15.96-15.33,23.62-24.29.8-.63,1.53-1.36,2.18-2.2l7.35-9.51c.66-.85,1.19-1.77,1.6-2.72,23.84-34.13,41.21-71.66,55.8-104.74,15.87-35.98,33.8-73.42,62.78-100.98,24.12-22.93,49.29-34.56,74.81-34.56h.02c26,0,53.88,11.72,76.5,32.14,15.88,14.33,26.89,34.14,31.86,57.3,4.71,21.94,3.61,45.87-3.08,67.39-7.64,24.56-20.9,46.98-32.87,65.67-1.5,2.34-3.93,5.8-6.75,9.8-23.19,32.93-47.06,70.22-36.8,95.99,2.31,5.81,7.16,12.91,17.25,17.51-9.71,11.47-15.58,26.28-15.58,42.45,0,10.8,2.63,20.98,7.26,29.98-5.16-1.57-10.26-3.43-15.15-5.58-31.21-13.71-46.16-44.46-52.3-61.57Z"/>
        <path class="cls-2" d="m870.2,722.26c-22.5,0-40.81-18.31-40.81-40.81s18.31-40.81,40.81-40.81,40.81,18.31,40.81,40.81-18.31,40.81-40.81,40.81Z"/>
      </g>
      <path d="m910.47,629.46c-7.13-8.28-19.39-16.28-40.07-15.66-6.16.18-11.82,1.36-17.3,2.5-6.72,1.4-12.52,2.6-17.47,1.6-8.08-1.63-9.29-4.66-9.69-5.66-1.06-2.65-2.38-11.04,8.18-31.63,7.6-14.81,18.14-29.79,25.83-40.72,2.99-4.24,5.57-7.91,7.36-10.71,12.87-20.1,27.17-44.34,35.69-71.73,17.18-55.23,2.75-115.78-35.9-150.67-27.56-24.87-60.67-38.58-93.25-38.58h-.02c-32.15,0-63.11,13.94-92.04,41.44-32.33,30.74-51.53,70.71-68.43,109.01-15.08,34.18-33.18,73.23-58.21,107.19-10.32,12.75-20.86,23.55-32,32.78-6.8,4.89-13.31,8.89-19.67,12.1-2.56.87-5.1,1.6-7.65,2.19-.74.02-1.48.04-2.22.03-.32-.53-.63-1.07-.93-1.62-.39-1.28-.74-2.56-1.05-3.87-.06-2.17-.03-4.4.11-6.69,1.68-8.58,4.33-17.52,8.02-27.05,7.07-15.58,15.7-30.74,26.23-48.22,7.54-12.52,15.05-25.3,22.3-37.65,2.23-3.8,4.46-7.6,6.7-11.4,9.34-15.86,19.5-31.72,29.32-47.06,9.54-14.89,19.4-30.29,28.63-45.85,11.57-19.52,20.32-35.92,27.53-51.62,8.94-19.46,17.91-40.56,23.05-63.02,6.78-29.65,7.32-53.96,1.72-76.5-7.02-28.22-24.98-53.56-50.56-71.36-23.95-16.66-58.37-21.77-87.67-13-21.6,6.46-41.07,19.36-57.27,31.13-31.14,22.62-56.86,47.04-78.63,74.65-22.66,28.73-42.1,58.31-59.43,90.42-15.82,29.31-29.83,59.49-42.83,87.89-2.35,5.14-4.7,10.29-7.05,15.44-23.88,52.41-48.57,106.61-81.6,154.26-4.26,6.14-8.77,12.31-13.4,18.32-.13.17-.25.34-.37.51-3.28,4.1-7.1,8.59-11.17,12.54-9.38,9.11-13.54,8.98-13.72,8.97-.39-.02-1.49-.99-2.73-3.07-2.1-3.54-1.15-10.24,0-16.79,3.92-22.33,10.84-45.9,20.61-70.16,12.7-28.64,29.32-56.59,49.46-83.16,7.78-10.26,9.95-25.89,8.41-38.83-1.12-24.67-19.2-44.99-42.83-49.55-11.2-3.28-22.38-3.37-32.47-.1-.34.11-.68.24-1.01.38l-11.23,4.74c-.52.22-1.02.47-1.51.76-8.65,5.12-15.66,12.05-20.87,20.61-18.01,23.83-33.51,49.01-46.07,74.84-18.44,37.91-28.98,69.6-33.17,99.71-2.34,16.82-4.62,36.46-2.1,56.8,2.67,21.57,7.03,44.44,20.72,65.58,7.28,11.24,14.54,20.09,22.2,27.03,6.63,6.01,16.79,14.63,28.47,20.17,15.4,7.29,27.84,10.76,44.38,12.37,4.14.4,8.06.42,12.01.05,7.57-.71,16.16-1.51,24.36-4.19,41.98-13.68,68.56-48.73,92.01-79.65,14.41-19,28.12-40.24,41.93-64.94,20.24-36.21,37.63-74.35,54.44-111.23,4.2-9.22,8.55-18.75,12.86-28.08,27.9-60.37,53.28-105.27,82.29-145.56,1.07-1.48,1.76-3.12,2.11-4.8,13.85-22.51,36.42-56.06,58.55-50.07,1.94.52,6.54,1.99,7.53,4.32,2.06,4.85-3.34,16.24-7.88,24.79-.22.33-.42.67-.61,1.02l-.12.22c-16.54,30.82-37.38,61.66-59.43,94.3-50.61,74.92-102.95,152.4-109.09,239.25-.77,10.88.8,21.12,2.31,31.03l.1.63c1.07,7.02,2.95,13.91,5.6,20.47l.43,1.07c3.62,8.99,7.35,18.29,13.59,26.91,5.63,7.78,12.01,16.6,20.58,23.55,9.75,7.9,18.83,14.26,31.49,19.61,23.56,9.94,48.73,12.02,76.94,6.34,17.09-3.44,35.05-11.17,53.39-22.97,14.9-9.6,28.95-20.76,41.77-33.18,49.48-47.93,76.97-111.61,103.55-173.18,2.73-6.33,5.45-12.64,8.18-18.88,22.23-50.88,39.92-54.82,51.3-53.36,3.61.46,5.14,2.04,6.08,3.36,2.77,3.9,3.61,11.4,2.09,18.67-4.82,22.95-16.48,43.3-28.84,64.84-2.61,4.55-5.3,9.25-7.9,13.93-1.66,3-3.33,5.96-4.98,8.9-11.67,20.73-22.68,40.31-28.91,64.7-4.14,16.21-6.18,31.81-6.08,46.38.12,16.82,2.55,31.96,7.23,45,12.94,36.07,36.29,63.06,65.77,76.02,18.22,8.01,39.09,12.83,57.26,13.24.24,0,.48,0,.72,0,7.92,3.38,16.63,5.26,25.78,5.26,36.29,0,65.81-29.52,65.81-65.81,0-21.13-10.02-39.95-25.54-52ZM184.42,324.62c15.41,0,27.95,12.54,27.95,27.95s-12.54,27.95-27.95,27.95-27.95-12.54-27.95-27.95,12.54-27.95,27.95-27.95Zm559.79,319.67c-3.67-10.23-5.66-22.94-5.76-36.74-.09-12.42,1.7-25.89,5.31-40.02,5.41-21.19,15.64-39.38,26.47-58.62,1.68-2.98,3.37-5.99,5.05-9.02,2.52-4.53,5.17-9.16,7.73-13.63,12.78-22.28,25.99-45.32,31.62-72.14,3-14.31.69-28.62-6.18-38.29-5.46-7.69-13.51-12.41-23.27-13.67-2.29-.29-4.51-.43-6.69-.43-40.74,0-62.32,49.38-70.71,68.58-2.74,6.28-5.48,12.62-8.23,18.98-25.61,59.32-52.09,120.67-97.99,165.13-11.64,11.28-24.4,21.41-37.92,30.12-15.69,10.11-30.76,16.66-44.78,19.48-23.12,4.65-43.5,3.06-62.28-4.87-9.98-4.21-17.14-9.24-25.46-15.99-6-4.87-11.12-11.95-16.07-18.79-4.44-6.14-7.46-13.64-10.65-21.58l-.44-1.08c-1.92-4.78-3.29-9.79-4.07-14.91l-.1-.63c-1.37-8.95-2.66-17.4-2.09-25.49,5.67-80.17,56.1-154.82,104.87-227.02,20.4-30.2,39.77-58.87,56.01-87.85.29-.41.56-.84.8-1.29.58-1.07,1.19-2.18,1.81-3.32,8.01-14.61,18.98-34.61,11.72-51.68-3.88-9.12-11.95-15.4-24-18.66-19.14-5.18-38.25,1.86-56.8,20.94-13.87,14.27-25.1,32.77-33.3,46.27-1.25,2.07-2.44,4.02-3.55,5.82-.11.19-.22.37-.33.56-27.3,39.27-51.68,83.13-78.19,140.49-4.34,9.39-8.7,18.95-12.92,28.2-16.6,36.42-33.78,74.08-53.52,109.4-13.23,23.68-26.33,43.97-40.03,62.03-21.23,28-45.3,59.73-79.84,70.98-5.56,1.81-12.36,2.45-18.95,3.06-2.34.22-4.71.21-7.25-.04-13.76-1.34-23.2-3.97-36.09-10.08-8.68-4.11-16.93-11.16-22.38-16.1-6.03-5.47-11.92-12.7-18.01-22.1-10.95-16.91-14.59-36.46-16.9-55.07-1.94-15.64-.65-30.83,2.05-50.28,3.82-27.44,13.63-56.75,30.89-92.23,8.25-16.97,17.86-33.65,28.68-49.83,4.83,24.26,26.27,42.6,51.93,42.6.87,0,1.74-.02,2.6-.07-9.98,15.68-18.85,31.72-26.53,48-.57.77-1.06,1.62-1.44,2.55l-4.74,11.23c-.33.77-.57,1.56-.73,2.35-9.02,23.5-15.53,46.45-19.38,68.39-1.54,8.79-3.87,22.07,3.12,33.86,7.09,11.96,16.32,14.91,22.81,15.28.52.03,1.03.04,1.55.04,16.12,0,30.91-14.26,44.61-31.35.11-.13.21-.26.32-.4l.06-.08c1.79-2.25,3.57-4.54,5.32-6.86.63-.83,1.19-1.58,1.7-2.23l.27-.35c.51-.66.94-1.35,1.3-2.07,1.87-2.59,3.71-5.18,5.5-7.77,34.3-49.48,59.46-104.72,83.8-158.13,2.34-5.14,4.68-10.28,7.03-15.4,12.83-28.03,26.64-57.79,42.1-86.42,16.64-30.83,35.3-59.22,57.06-86.81,20.33-25.78,44.44-48.65,73.7-69.9,14.5-10.53,31.74-22.03,49.75-27.41,22.29-6.67,48.29-2.91,66.23,9.57,20.91,14.54,34.94,34.21,40.58,56.87,4.62,18.58,4.04,39.21-1.83,64.89-4.63,20.25-13.02,39.92-21.4,58.16-6.84,14.89-15.2,30.55-26.31,49.3-9.01,15.19-18.75,30.41-28.17,45.12-9.95,15.53-20.23,31.59-29.81,47.86-2.24,3.81-4.48,7.61-6.71,11.42-7.22,12.29-14.69,25.01-22.16,37.41-9.36,15.53-17.3,29.38-24.12,43.42-.66.85-1.23,1.8-1.67,2.84l-4.74,11.23c-.53,1.26-.84,2.55-.95,3.84-1.5,4.49-2.8,8.88-3.91,13.2-.89,1.44-1.5,3.09-1.74,4.88l-.62,4.64c-1.12,2.19-1.61,4.73-1.26,7.36l.14,1.05c-.13,1.49,0,2.94.37,4.32-.24,2.07.04,4.22.91,6.28l.22.53.04.33c.06.43.14.85.24,1.26.23,2.03.95,4.02,2.2,5.79.08.3.17.6.28.89.53,3.19,2.3,6.12,5,8.08,1.57,2.02,3.75,3.57,6.32,4.33.95.51,1.95.9,2.98,1.15,3.29,2.23,7.31,2.68,10.88,1.52.73-.1,1.44-.26,2.14-.48,2.23.03,4.32-.56,6.16-1.59l1.9-.26c2.15-.29,4.1-1.11,5.73-2.31l8.33-3.52c1.92-.81,3.53-2.05,4.77-3.55,1.88-1.12,3.77-2.3,5.67-3.53,1.28-.43,2.51-1.08,3.64-1.95h.02s0-.02,0-.02l9.49-7.33c1.05-.81,1.94-1.76,2.66-2.8,8.12-7.28,15.96-15.33,23.62-24.29.8-.63,1.53-1.36,2.18-2.2l7.35-9.51c.66-.85,1.19-1.77,1.6-2.72,23.84-34.13,41.21-71.66,55.8-104.74,15.87-35.98,33.8-73.42,62.78-100.98,24.12-22.93,49.29-34.56,74.81-34.56h.02c26,0,53.88,11.72,76.5,32.14,15.88,14.33,26.89,34.14,31.86,57.3,4.71,21.94,3.61,45.87-3.08,67.39-7.64,24.56-20.9,46.98-32.87,65.67-1.5,2.34-3.93,5.8-6.75,9.8-23.19,32.93-47.06,70.22-36.8,95.99,2.31,5.81,7.16,12.91,17.25,17.51-9.71,11.47-15.58,26.28-15.58,42.45,0,10.8,2.63,20.98,7.26,29.98-5.16-1.57-10.26-3.43-15.15-5.58-31.21-13.71-46.16-44.46-52.3-61.57Zm125.99,77.97c-22.5,0-40.81-18.31-40.81-40.81s18.31-40.81,40.81-40.81,40.81,18.31,40.81,40.81-18.31,40.81-40.81,40.81Z"/>
    </g>
  </g>
</svg>