<?xml version="1.0" encoding="UTF-8"?>
<svg id="Layer_8_copy" data-name="Layer 8 copy" xmlns="http://www.w3.org/2000/svg" viewBox="0 0 957.47 421.55">
  <defs>
    <style>
      .cls-1 {
        fill: #50f8c3;
      }
    </style>
  </defs>
  <g id="Squiggles_copy" data-name="Squiggles copy">
    <g>
      <path class="cls-1" d="m822.06,336.8c-4.28,7.79-12.44,13.96-22.97,17.37-11.56,3.74-23.28-.98-29.24-4.13-7.41-3.91-14.61-13.38-17.13-22.52-1.96-7.12-1.62-14.99.85-22.41.29-.32.56-.66.8-1.02,1.98-1.39,3.4-3.58,3.75-6.17h0c1.25-1.74,1.88-3.92,1.65-6.19l.18-.43c1.01-2.39.91-4.97-.07-7.17-.02-1.99-.7-3.86-1.85-5.37-.3-1.92-1.19-3.61-2.46-4.91l-1.32-3.14c-.09-.24-.19-.48-.3-.71l-.39-.93c-.66-1.55-1.7-2.83-2.96-3.76l-2.24-2.9c-.56-1.25-1.42-2.39-2.56-3.31l-.2-.27c-1.04-1.35-2.4-2.33-3.88-2.9l-.88-.68c-.93-1.31-2.23-2.38-3.82-3.05l-.28-.12-.59-.46c-1.47-1.13-3.18-1.75-4.9-1.86l-5.45-2.3c-.72-.31-1.47-.51-2.21-.62-.66-.26-1.37-.45-2.11-.55l-12.49-1.68c-1.6-.22-3.16,0-4.56.57-1.36,0-2.71.01-4.08.05-1.25-.41-2.6-.55-4-.36l-12.45,1.67s-.02,0-.03,0h-.02c-1.44.2-2.75.72-3.87,1.48-5.26,1.27-10.54,2.79-15.83,4.55-1.1.03-2.22.25-3.29.71l-11.23,4.74c-1,.42-1.89,1.01-2.65,1.71-22.59,11.35-43.33,25.77-63.51,39.8-6.7,4.66-13.63,9.47-20.47,14.07-36.34,24.4-66.88,38.79-96.1,45.3-21.39,4.77-41.43,5.79-61.26,3.12-24.09-3.24-43.15-11.92-56.66-25.81-8.39-8.62-14.39-18.72-18.89-31.79-1.78-5.16-2.42-11.37-3.04-17.37l-.19-1.84c-.31-2.94-.37-5.62-.18-8.17,1.55-21.09,7.83-39.8,18.16-54.1,5.25-7.26,11.72-15.66,19.93-22.82,7.48-6.53,15.88-12.95,25.67-19.61,4.65-3.17,9.53-6.28,14.25-9.3,3.97-2.54,8.01-5.12,12.03-7.8,1.08-.3,2.11-.81,3.05-1.54l9.51-7.35c1.06-.82,1.89-1.83,2.48-2.95,1.4-.58,2.68-1.52,3.67-2.81l2.96-3.84c.17-.11.34-.22.51-.33,3.72-.56,6.57-3.32,7.41-6.78.97-1.68,1.39-3.66,1.14-5.63.23-1.36.16-2.76-.24-4.1.48-2.05.22-4.15-.65-5.96-.28-4.18-3.46-7.73-7.78-8.32-.56-.08-1.12-.1-1.67-.07-.49-.19-.99-.34-1.5-.45-.83-.46-1.71-.78-2.63-.96l-1.23-.95c-1.63-1.26-3.56-1.88-5.48-1.88-.79-.48-1.67-.84-2.61-1.05l-.77-.33c-1.74-.73-3.58-.88-5.29-.53l-7.25-.97c-1.69-.23-3.34.03-4.79.67-1.61,0-3.23.05-4.88.11-1.16-.33-2.41-.44-3.69-.27l-12.49,1.68c-1.13.15-2.18.51-3.12,1.02-14.5,2.96-29.29,7.23-44.2,12.75-.8.1-1.6.31-2.38.64h-.03s0,.01,0,.01l-11.2,4.73c-.83.35-1.58.81-2.23,1.35-16.16,7.75-31.71,16.84-46.45,27.14-.8.31-1.57.73-2.28,1.28h0s-.04.04-.06.05l-9.45,7.3c-.66.51-1.23,1.09-1.71,1.73-13.45,11.38-25.9,23.76-37.23,37.02-.71.5-1.35,1.12-1.91,1.84h0s0,.02,0,.02l-7.33,9.49c-.51.66-.92,1.37-1.22,2.11-.3.43-.6.85-.9,1.28h0c-6.6,9.46-13.84,15.07-23.48,18.19-11.56,3.74-23.28-.98-29.24-4.13-7.41-3.91-14.61-13.38-17.13-22.52-2.26-8.19-1.58-21.48,3.44-28.68,25.86-37.06,56.52-67.49,93.72-93.05,29.43-20.23,63.89-36.32,99.65-46.54,55-15.72,99.48-13.69,132.19,6.04,10.05,6.06,18.51,12.95,24.46,19.93,9.69,11.36,15.48,21.19,20.66,35.07,7.85,21.03,4.94,47.25-7.99,71.94-11.49,21.94-31.12,37.88-46.93,49.32-2.44,1.76-7.82,4.58-13.51,7.56-19.25,10.07-32.14,17.36-35.81,26.6-4.55,11.48-.21,18.11,2.79,21.04,6.38,6.25,17.78,7.45,35.87,3.8,3.68-.74,7.31-1.63,10.67-2.54,1.67.31,3.45.15,5.13-.56l11.23-4.74c.92-.39,1.75-.92,2.46-1.55,23.7-11.73,45.39-26.77,66.48-41.38,3.85-2.67,7.7-5.34,11.56-7.98,22.79-15.63,53.38-34.99,87.98-46.11,16.46-5.29,34.7-8.42,52.73-9.07,8.17-.29,16.15.5,25.62,1.77,9.44,1.27,17.26,2.65,24.72,5.26,18.52,6.49,33.33,15.2,46.6,27.41,6.07,5.58,11.1,12.32,16.43,19.45l.58.78c3.13,4.18,5.83,8.66,8.03,13.3,8.65,18.26,12.79,34.39,13.03,50.76.24,16.45-4.13,33.34-12.64,48.85Z"/>
      <path d="m346.27,58.65h3.12v2h-3.12v3.12h-2v-3.12h-3.12v-2h3.12v-3.12h2v3.12Zm59.3-22.89h-2v3.12h-3.12v2h3.12v3.12h2v-3.12h3.12v-2h-3.12v-3.12Zm-19.77,19.77h-2v3.12h-3.12v2h3.12v3.12h2v-3.12h3.12v-2h-3.12v-3.12Zm19.77,12.23h-2v3.12h-3.12v2h3.12v3.12h2v-3.12h3.12v-2h-3.12v-3.12Zm-59.3,19.77h-2v3.12h-3.12v2h3.12v3.12h2v-3.12h3.12v-2h-3.12v-3.12Zm39.54,0h-2v3.12h-3.12v2h3.12v3.12h2v-3.12h3.12v-2h-3.12v-3.12Zm-19.77-19.77h-2v3.12h-3.12v2h3.12v3.12h2v-3.12h3.12v-2h-3.12v-3.12Zm-51.76,19.77h-2v3.12h-3.12v2h3.12v3.12h2v-3.12h3.12v-2h-3.12v-3.12Zm-19.77-19.77h-2v3.12h-3.12v2h3.12v3.12h2v-3.12h3.12v-2h-3.12v-3.12Zm0,39.54h-2v3.12h-3.12v2h3.12v3.12h2v-3.12h3.12v-2h-3.12v-3.12Zm19.77-51.76h-2v3.12h-3.12v2h3.12v3.12h2v-3.12h3.12v-2h-3.12v-3.12Zm19.77,12.23h-2v3.12h-3.12v2h3.12v3.12h2v-3.12h3.12v-2h-3.12v-3.12Zm0,39.54h-2v3.12h-3.12v2h3.12v3.12h2v-3.12h3.12v-2h-3.12v-3.12Zm12.23,170.36h-2v3.12h-3.12v2h3.12v3.12h2v-3.12h3.12v-2h-3.12v-3.12Zm79.07-190.13h-2v3.12h-3.12v2h3.12v3.12h2v-3.12h3.12v-2h-3.12v-3.12Zm-91.3,170.37h-2v3.12h-3.12v2h3.12v3.12h2v-3.12h3.12v-2h-3.12v-3.12Zm89.3-43.53h2v-3.12h3.12v-2h-3.12v-3.12h-2v3.12h-3.12v2h3.12v3.12Zm-148.6-126.84h-2v3.12h-3.12v2h3.12v3.12h2v-3.12h3.12v-2h-3.12v-3.12Zm148.6,87.3h2v-3.12h3.12v-2h-3.12v-3.12h-2v3.12h-3.12v2h3.12v3.12Zm-77.07,63.29h-2v3.12h-3.12v2h3.12v3.12h2v-3.12h3.12v-2h-3.12v-3.12Zm19.77,98.84h-2v3.12h-3.12v2h3.12v3.12h2v-3.12h3.12v-2h-3.12v-3.12Zm82.19-226.55h-3.12v-3.12h-2v3.12h-3.12v2h3.12v3.12h2v-3.12h3.12v-2Zm-5.12-34.42h2v-3.12h3.12v-2h-3.12v-3.12h-2v3.12h-3.12v2h3.12v3.12Zm0,150.6h2v-3.12h3.12v-2h-3.12v-3.12h-2v3.12h-3.12v2h3.12v3.12Zm-17.76-171.06h-2v3.12h-3.12v2h3.12v3.12h2v-3.12h3.12v-2h-3.12v-3.12Zm17.76,139.07h2v-3.12h3.12v-2h-3.12v-3.12h-2v3.12h-3.12v2h3.12v3.12Zm0-39.54h2v-3.12h3.12v-2h-3.12v-3.12h-2v3.12h-3.12v2h3.12v3.12Zm-96.84,162.13h-2v3.12h-3.12v2h3.12v3.12h2v-3.12h3.12v-2h-3.12v-3.12Zm116.6-221.43h2v-3.12h3.12v-2h-3.12v-3.12h-2v3.12h-3.12v2h3.12v3.12Zm0,39.53h2v-3.12h3.12v-2h-3.12v-3.12h-2v3.12h-3.12v2h3.12v3.12Zm19.77,59.3h2v-3.12h3.12v-2h-3.12v-3.12h-2v3.12h-3.12v2h3.12v3.12Zm-318.97,11.53h-2v3.12h-3.12v2h3.12v3.12h2v-3.12h3.12v-2h-3.12v-3.12Zm299.2,8.24h2v-3.12h3.12v-2h-3.12v-3.12h-2v3.12h-3.12v2h3.12v3.12Zm-188.13-87.31h-2v3.12h-3.12v2h3.12v3.12h2v-3.12h3.12v-2h-3.12v-3.12Zm188.13-63.29h2v-3.12h3.12v-2h-3.12v-3.12h-2v3.12h-3.12v2h3.12v3.12Zm19.77,91.3h2v-3.12h3.12v-2h-3.12v-3.12h-2v3.12h-3.12v2h3.12v3.12Zm12.23-19.77h2v-3.12h3.12v-2h-3.12v-3.12h-2v3.12h-3.12v2h3.12v3.12Zm0-39.53h2v-3.12h3.12v-2h-3.12v-3.12h-2v3.12h-3.12v2h3.12v3.12Zm0,79.07h2v-3.12h3.12v-2h-3.12v-3.12h-2v3.12h-3.12v2h3.12v3.12Zm-12.23-98.84h2v-3.12h3.12v-2h-3.12v-3.12h-2v3.12h-3.12v2h3.12v3.12Zm0,39.54h2v-3.12h3.12v-2h-3.12v-3.12h-2v3.12h-3.12v2h3.12v3.12Zm-19.77,59.3h2v-3.12h3.12v-2h-3.12v-3.12h-2v3.12h-3.12v2h3.12v3.12Zm-227.67-47.77h-2v3.12h-3.12v2h3.12v3.12h2v-3.12h3.12v-2h-3.12v-3.12Zm-71.53,39.54h-2v3.12h-3.12v2h3.12v3.12h2v-3.12h3.12v-2h-3.12v-3.12Zm51.76-19.77h-2v3.12h-3.12v2h3.12v3.12h2v-3.12h3.12v-2h-3.12v-3.12Zm39.54-39.53h-2v3.12h-3.12v2h3.12v3.12h2v-3.12h3.12v-2h-3.12v-3.12Zm0,39.53h-2v3.12h-3.12v2h3.12v3.12h2v-3.12h3.12v-2h-3.12v-3.12Zm-39.54,39.54h-2v3.12h-3.12v2h3.12v3.12h2v-3.12h3.12v-2h-3.12v-3.12Zm19.77-19.77h-2v3.12h-3.12v2h3.12v3.12h2v-3.12h3.12v-2h-3.12v-3.12Zm-39.54-39.54h-2v3.12h-3.12v2h3.12v3.12h2v-3.12h3.12v-2h-3.12v-3.12Zm-12.23,91.3h-2v3.12h-3.12v2h3.12v3.12h2v-3.12h3.12v-2h-3.12v-3.12Zm0-71.53h-2v3.12h-3.12v2h3.12v3.12h2v-3.12h3.12v-2h-3.12v-3.12Zm0,39.54h-2v3.12h-3.12v2h3.12v3.12h2v-3.12h3.12v-2h-3.12v-3.12Zm12.23,19.77h-2v3.12h-3.12v2h3.12v3.12h2v-3.12h3.12v-2h-3.12v-3.12Zm0-39.54h-2v3.12h-3.12v2h3.12v3.12h2v-3.12h3.12v-2h-3.12v-3.12Zm209.9,170.37h-2v3.12h-3.12v2h3.12v3.12h2v-3.12h3.12v-2h-3.12v-3.12Zm301.2-118.6h-2v3.12h-3.12v2h3.12v3.12h2v-3.12h3.12v-2h-3.12v-3.12Zm-19.77-12.23h-2v3.12h-3.12v2h3.12v3.12h2v-3.12h3.12v-2h-3.12v-3.12Zm19.77-19.77h-2v3.12h-3.12v2h3.12v3.12h2v-3.12h3.12v-2h-3.12v-3.12Zm19.77,19.77h-2v3.12h-3.12v2h3.12v3.12h2v-3.12h3.12v-2h-3.12v-3.12Zm19.76,12.23h-2v3.12h-3.12v2h3.12v3.12h2v-3.12h3.12v-2h-3.12v-3.12Zm-130.83,19.77h-2v3.12h-3.12v2h3.12v3.12h2v-3.12h3.12v-2h-3.12v-3.12Zm111.07,0h-2v3.12h-3.12v2h3.12v3.12h2v-3.12h3.12v-2h-3.12v-3.12Zm19.76-51.76h-2v3.12h-3.12v2h3.12v3.12h2v-3.12h3.12v-2h-3.12v-3.12Zm-111.06,32h-2v3.12h-3.12v2h3.12v3.12h2v-3.12h3.12v-2h-3.12v-3.12Zm-19.77-12.23h-2v3.12h-3.12v2h3.12v3.12h2v-3.12h3.12v-2h-3.12v-3.12Zm19.77-19.77h-2v3.12h-3.12v2h3.12v3.12h2v-3.12h3.12v-2h-3.12v-3.12Zm12.23,51.76h-2v3.12h-3.12v2h3.12v3.12h2v-3.12h3.12v-2h-3.12v-3.12Zm19.77-19.77h-2v3.12h-3.12v2h3.12v3.12h2v-3.12h3.12v-2h-3.12v-3.12Zm-19.77-12.23h-2v3.12h-3.12v2h3.12v3.12h2v-3.12h3.12v-2h-3.12v-3.12Zm19.77-19.77h-2v3.12h-3.12v2h3.12v3.12h2v-3.12h3.12v-2h-3.12v-3.12Zm130.83,91.3h-2v3.12h-3.12v2h3.12v3.12h2v-3.12h3.12v-2h-3.12v-3.12Zm-12.23-59.3h-2v3.12h-3.12v2h3.12v3.12h2v-3.12h3.12v-2h-3.12v-3.12Zm12.23,19.77h-2v3.12h-3.12v2h3.12v3.12h2v-3.12h3.12v-2h-3.12v-3.12Zm0,79.07h-2v3.12h-3.12v2h3.12v3.12h2v-3.12h3.12v-2h-3.12v-3.12Zm0-111.06h-2v3.12h-3.12v2h3.12v3.12h2v-3.12h3.12v-2h-3.12v-3.12Zm19.77,51.76h-2v3.12h-3.12v2h3.12v3.12h2v-3.12h3.12v-2h-3.12v-3.12Zm0,39.53h-2v3.12h-3.12v2h3.12v3.12h2v-3.12h3.12v-2h-3.12v-3.12Zm-51.76-91.3h-2v3.12h-3.12v2h3.12v3.12h2v-3.12h3.12v-2h-3.12v-3.12Zm0,111.06h-2v3.12h-3.12v2h3.12v3.12h2v-3.12h3.12v-2h-3.12v-3.12Zm19.77-59.3h-2v3.12h-3.12v2h3.12v3.12h2v-3.12h3.12v-2h-3.12v-3.12Zm-19.77,19.76h-2v3.12h-3.12v2h3.12v3.12h2v-3.12h3.12v-2h-3.12v-3.12Zm0-39.53h-2v3.12h-3.12v2h3.12v3.12h2v-3.12h3.12v-2h-3.12v-3.12Zm19.77,98.84h-2v3.12h-3.12v2h3.12v3.12h2v-3.12h3.12v-2h-3.12v-3.12Zm0-39.54h-2v3.12h-3.12v2h3.12v3.12h2v-3.12h3.12v-2h-3.12v-3.12Zm-360.5,19.77h-2v3.12h-3.12v2h3.12v3.12h2v-3.12h3.12v-2h-3.12v-3.12Zm-19.77-98.83h-2v3.12h-3.12v2h3.12v3.12h2v-3.12h3.12v-2h-3.12v-3.12Zm0-32h-2v3.12h-3.12v2h3.12v3.12h2v-3.12h3.12v-2h-3.12v-3.12Zm0,71.53h-2v3.12h-3.12v2h3.12v3.12h2v-3.12h3.12v-2h-3.12v-3.12Zm39.53,79.07h-2v3.12h-3.12v2h3.12v3.12h2v-3.12h3.12v-2h-3.12v-3.12Zm0-39.54h-2v3.12h-3.12v2h3.12v3.12h2v-3.12h3.12v-2h-3.12v-3.12Zm-39.53,0h-2v3.12h-3.12v2h3.12v3.12h2v-3.12h3.12v-2h-3.12v-3.12Zm-39.54,0h-2v3.12h-3.12v2h3.12v3.12h2v-3.12h3.12v-2h-3.12v-3.12Zm19.77-59.3h-2v3.12h-3.12v2h3.12v3.12h2v-3.12h3.12v-2h-3.12v-3.12Zm0,79.07h-2v3.12h-3.12v2h3.12v3.12h2v-3.12h3.12v-2h-3.12v-3.12Zm-19.77-98.83h-2v3.12h-3.12v2h3.12v3.12h2v-3.12h3.12v-2h-3.12v-3.12Zm19.77-12.23h-2v3.12h-3.12v2h3.12v3.12h2v-3.12h3.12v-2h-3.12v-3.12Zm-19.77,51.76h-2v3.12h-3.12v2h3.12v3.12h2v-3.12h3.12v-2h-3.12v-3.12Zm19.77,19.76h-2v3.12h-3.12v2h3.12v3.12h2v-3.12h3.12v-2h-3.12v-3.12Zm79.07,39.54h-2v3.12h-3.12v2h3.12v3.12h2v-3.12h3.12v-2h-3.12v-3.12Zm91.3-59.3h-2v3.12h-3.12v2h3.12v3.12h2v-3.12h3.12v-2h-3.12v-3.12Zm39.53-39.54h-2v3.12h-3.12v2h3.12v3.12h2v-3.12h3.12v-2h-3.12v-3.12Zm-59.3,59.3h-2v3.12h-3.12v2h3.12v3.12h2v-3.12h3.12v-2h-3.12v-3.12Zm39.54,0h-2v3.12h-3.12v2h3.12v3.12h2v-3.12h3.12v-2h-3.12v-3.12Zm-19.77,19.77h-2v3.12h-3.12v2h3.12v3.12h2v-3.12h3.12v-2h-3.12v-3.12Zm39.53-39.53h-2v3.12h-3.12v2h3.12v3.12h2v-3.12h3.12v-2h-3.12v-3.12Zm-19.76-19.77h-2v3.12h-3.12v2h3.12v3.12h2v-3.12h3.12v-2h-3.12v-3.12Zm-79.07,39.53h-2v3.12h-3.12v2h3.12v3.12h2v-3.12h3.12v-2h-3.12v-3.12Zm39.54,39.54h-2v3.12h-3.12v2h3.12v3.12h2v-3.12h3.12v-2h-3.12v-3.12Zm-51.76,19.77h-2v3.12h-3.12v2h3.12v3.12h2v-3.12h3.12v-2h-3.12v-3.12Zm0-39.54h-2v3.12h-3.12v2h3.12v3.12h2v-3.12h3.12v-2h-3.12v-3.12Zm12.23,19.77h-2v3.12h-3.12v2h3.12v3.12h2v-3.12h3.12v-2h-3.12v-3.12Zm19.77-19.77h-2v3.12h-3.12v2h3.12v3.12h2v-3.12h3.12v-2h-3.12v-3.12Zm0-39.53h-2v3.12h-3.12v2h3.12v3.12h2v-3.12h3.12v-2h-3.12v-3.12Zm336.06,29.79c.29,19.57-4.85,39.54-14.86,57.77-6.45,11.75-18.14,20.88-32.93,25.73-.9,1.88-1.84,3.75-2.85,5.59-5.95,10.84-16.61,17.88-28.09,21.6-12.09,3.91-25.31,1.03-36.22-4.74-10.17-5.37-18.6-17.19-21.6-28.09-3.33-12.08-1.23-25.35,4.74-36.22.02-.04.05-.09.07-.14.29-.97.55-1.94.79-2.92.04-1.5.03-3-.03-4.5-.59-2.59-1.31-5.15-2.15-7.67-1.56-3.03-3.29-5.95-5.18-8.79-2.17-2.42-4.46-4.72-6.88-6.89-2.47-1.61-5.01-3.08-7.63-4.42-4.62-1.58-9.32-2.84-14.1-3.79-7.35-.56-14.7-.46-22.05.19-11.23,2.04-22.18,5.22-32.83,9.3-32.59,14.95-61.15,37.13-90.79,57.02-30.16,20.25-63.42,38.65-99.16,46.62-21.49,4.79-42.68,6.18-64.42,3.26-22.93-3.08-45.43-11.51-61.92-28.45-9.93-10.2-16.34-21.77-20.95-35.14-2.31-6.72-2.93-14.23-3.67-21.19-.34-3.26-.45-6.51-.21-9.77,1.52-20.75,7.53-41.67,19.84-58.71,1.24-1.71,2.5-3.4,3.77-5.07,3.71-13.4,9.37-25.53,16.82-35.85,5.5-7.61,13.05-17.43,22.68-25.84,8.03-7.01,16.98-13.86,27.38-20.93,4.87-3.31,9.86-6.5,14.69-9.58.69-.44,1.36-.87,2.04-1.3-3.16-1.01-6.37-1.83-9.63-2.5-7.8-.55-15.6-.34-23.38.41-20.2,3.39-39.99,9.27-59.01,16.84-18.04,8.07-35.27,17.81-51.51,29.04-7.37,7.4-14.34,15.15-20.87,23.22-1.74,2.35-3.44,4.72-5.1,7.1-8.47,12.13-18.32,19.91-30.87,24.38-1.49,2.03-2.96,4.06-4.4,6.12-7.33,10.5-15.91,17.66-28.09,21.6-12.09,3.91-25.31,1.03-36.22-4.74-10.17-5.37-18.6-17.19-21.6-28.09-2.98-10.83-1.91-26.69,4.74-36.22,4.12-5.91,8.39-11.66,12.78-17.27.67-8.29,3-16.77,7.72-23.54,27.12-38.86,59.27-70.78,98.28-97.58,31.02-21.31,67.29-38.26,104.9-49.01,60-17.15,109.27-14.48,146.44,7.93,11.85,7.15,21.56,15.11,28.86,23.67,11.03,12.93,17.93,24.65,23.83,40.46,9.64,25.82,6.39,57.38-8.91,86.59-13.23,25.27-34.92,42.96-52.33,55.55-.47.34-.98.68-1.52,1.04-9.33,10.13-20.14,18.97-31.25,27.03,2.56-.3,5.6-.79,9.27-1.57,7.54-1.6,14.68-3.8,18.89-5.25,24.43-11.44,47.11-27.15,69.11-42.4,3.87-2.68,7.75-5.37,11.63-8.03,23.8-16.32,55.83-36.57,92.66-48.4,18.01-5.79,37.93-9.22,57.6-9.92,10-.36,19.68.71,28.66,1.92,10.54,1.42,19.38,3,28.27,6.11,20.92,7.33,37.71,17.22,52.84,31.15,7.29,6.71,13.07,14.44,18.66,21.92l.58.77c3.85,5.14,7.17,10.65,9.89,16.38,9.79,20.67,14.48,39.16,14.76,58.2Zm-390.59-7.08c-.21.06-.43.11-.65.17h1.41v-.08c-.25-.02-.51-.04-.76-.09Zm-34.14-37.36h-2.64v1.74c.84-.58,1.72-1.16,2.64-1.74ZM211.1,110.42h2.34v-1.97c-.79.65-1.56,1.32-2.34,1.97Zm104.4,21.76h-1.23v.63c.41-.21.82-.42,1.23-.63Zm502.84,209.9h-.51v.57c.17-.19.34-.38.51-.57Zm16.36-54.13c-.03-1.73-.1-3.45-.22-5.17h-2v-2h1.85c-1.19-13.96-5.28-28-12.66-43.59-2.2-4.64-4.9-9.12-8.03-13.3l-.3-.41h-.62v-.83c-5.2-6.96-10.15-13.53-16.09-18.99-3.55-3.26-7.21-6.27-11.02-9.06h-1.77v-1.28c-.88-.62-1.78-1.24-2.68-1.84h-.44v-.29c-9.15-6.04-19.2-10.92-30.69-14.94-6.28-2.2-12.83-3.52-20.37-4.64v.11h-3.12v3.12h-2v-3.12h-3.12v-1.23c-7.81-.97-14.7-1.52-21.73-1.27-3.19.11-6.38.31-9.57.58v1.91h-3.12v3.12h-2v-3.12h-3.12v-1.05c-12.04,1.51-23.88,4.08-34.93,7.63-25.27,8.12-48.39,20.64-67.9,32.88v.08h-.12c-1.01.63-2.01,1.27-3,1.9v1.22h-1.9c-5.32,3.43-10.37,6.81-15.06,10.03-.94.64-1.87,1.29-2.8,1.94v.26h-.38c-2.79,1.93-5.59,3.85-8.38,5.78-3.65,2.53-7.32,5.07-11.01,7.6v1.26h3.12v2h-3.12v3.12h-2v-3.12h-2.77c-16.16,10.98-32.86,21.68-50.7,30.51-.71.63-1.54,1.16-2.46,1.55l-11.23,4.74c-.78.33-1.57.53-2.37.63v.1h3.12v2h-3.12v3.12h-2v-3.12h-3.12v-1.55c-2.67.69-5.47,1.34-8.31,1.91-11.09,2.24-19.66,2.64-26.11,1.19v1.57h-2v-2.1c-.94-.29-1.83-.64-2.67-1.02h-.45v-.21c-1.77-.86-3.32-1.93-4.65-3.22-2.99-2.93-7.34-9.56-2.79-21.04,1.68-4.24,5.32-8.07,10.61-11.94h-.06v-3.12h-3.12v-2h3.12v-3.12h2v3.12h3.12v1.7c5.54-3.5,12.3-7.14,20.14-11.24,5.7-2.98,11.08-5.79,13.51-7.56,15.81-11.44,35.44-27.38,46.93-49.32,3.95-7.55,6.97-15.24,9.02-22.88h-1.43v3.12h-2v-3.12h-3.12v-2h3.12v-3.12h2v3.12h1.95c3.24-13.07,3.66-25.94,1.17-37.66v.13h-3.12v3.12h-2v-3.12h-3.12v-2h3.12v-3.12h2v3.12h2.69c-.62-2.57-1.38-5.08-2.29-7.53-5.18-13.88-10.97-23.71-20.66-35.07-5.96-6.98-14.42-13.87-24.46-19.93-8.2-4.95-17.14-8.78-26.8-11.5v2.49h3.12v2h-3.12v3.12h-2v-3.12h-3.12v-2h3.12v-3.03c-22.4-5.89-48.57-5.94-78.3-.09h1.23v3.12h3.12v2h-3.12v3.12h-2v-3.12h-3.12v-2h3.12v-2.96c-7.86,1.57-15.97,3.54-24.32,5.93-1.9.54-3.79,1.11-5.68,1.68v.47h-1.53c-33.17,10.26-65,25.53-92.45,44.39-1.08.74-2.14,1.5-3.21,2.25h1.47v2h-3.12v3.12h-2v-2.55c-6.31,4.54-12.41,9.24-18.35,14.08h.58v3.12h3.12v2h-3.12v3.12h-2v-3.12h-3.12v-1.34c-24.24,20.46-45.36,43.69-63.97,70.37-1,1.43-1.81,3.1-2.48,4.92h.04v3.12h3.12v2h-3.12v3.12h-1.91c-.64,5.5-.27,11.21.91,15.52,2.52,9.14,9.72,18.61,17.13,22.52,5.96,3.15,17.68,7.87,29.24,4.13,8.47-2.74,15.09-7.41,21.05-14.92v-.37h.29c.72-.93,1.44-1.88,2.14-2.9h0c.3-.43.6-.85.9-1.28.3-.74.71-1.45,1.22-2.11l7.33-9.49s0,0,0,0h0c.56-.73,1.2-1.35,1.91-1.85,11.33-13.26,23.79-25.64,37.23-37.02.48-.64,1.05-1.22,1.71-1.73l9.45-7.3s.04-.03.06-.05h0c.71-.55,1.48-.98,2.28-1.29,11.97-8.37,24.48-15.91,37.42-22.61v-1.67h-3.12v-2h3.12v-3.12h2v3.12h3.12v1.07c1.3-.65,2.61-1.3,3.92-1.93.66-.54,1.41-1,2.23-1.35l11.2-4.73h.03c.78-.34,1.58-.55,2.38-.65,9.02-3.34,17.99-6.21,26.88-8.62v-1.55h-3.12v-2h3.12v-3.12h2v3.12h3.12v2h-3.12v1.02c5.14-1.35,10.25-2.56,15.32-3.6.94-.52,1.99-.87,3.12-1.02l12.49-1.68c1.28-.17,2.53-.07,3.69.27.98-.04,1.94-.05,2.91-.07v-.04h1.92s.03,0,.04,0c1.46-.64,3.1-.89,4.79-.67l7.25.97c1.72-.35,3.56-.21,5.29.53l.77.33c.94.22,1.82.58,2.61,1.05,1.92,0,3.85.62,5.48,1.88l1.23.95c.91.18,1.8.5,2.63.96.51.11,1.01.26,1.5.45.55-.03,1.11,0,1.67.07,4.31.58,7.5,4.13,7.78,8.32.87,1.82,1.14,3.92.65,5.96.4,1.34.48,2.75.24,4.1.25,1.97-.17,3.95-1.14,5.63-.84,3.46-3.69,6.22-7.41,6.78-.17.12-.33.23-.51.33l-2.96,3.84c-.99,1.29-2.27,2.23-3.67,2.81-.58,1.12-1.41,2.13-2.48,2.95l-9.51,7.35c-.94.73-1.98,1.24-3.05,1.54-4.02,2.68-8.06,5.26-12.03,7.8-4.72,3.01-9.6,6.13-14.25,9.3-9.79,6.67-18.19,13.08-25.67,19.61-8.21,7.17-14.68,15.56-19.93,22.82-10.33,14.3-16.61,33.01-18.16,54.1-.19,2.56-.13,5.23.18,8.17l.19,1.84c.47,4.55.95,9.22,1.94,13.46h3.06v-3.12h2v3.12h3.12v2h-3.12v3.12h-2v-3.12h-2.55c.18.65.38,1.28.59,1.9,4.5,13.07,10.5,23.17,18.89,31.79,9.13,9.38,20.8,16.38,34.84,20.94v-.45h2v1.07c6.17,1.87,12.78,3.3,19.83,4.25,5.87.79,11.77,1.25,17.71,1.39v-1.59h-3.12v-2h3.12v-3.12h2v3.12h3.12v2h-3.12v1.62c11.22.13,22.63-.9,34.41-3.09v-.53h2.75c.12-.02.24-.05.36-.07v-3.05h2v2.62c.68-.14,1.35-.28,2.03-.43,15.18-3.38,30.73-8.9,47.25-16.84h-2.63v-2h3.12v-3.12h2v3.12h1.6c14.06-7.02,28.85-15.79,44.76-26.46,6.84-4.59,13.77-9.41,20.47-14.07,8.82-6.13,17.75-12.34,26.89-18.33v-.45h.69c.81-.53,1.62-1.05,2.43-1.58v-1.54h2v.25c6.39-4.09,12.89-8.05,19.54-11.78h-1.77v-3.12h-3.12v-2h3.12v-3.12h2v3.12h3.12v2h-3.12v2.99c3.86-2.16,7.77-4.26,11.73-6.25.75-.7,1.64-1.29,2.65-1.71l11.23-4.74c1.08-.45,2.19-.68,3.29-.71,5.29-1.76,10.58-3.28,15.83-4.55,1.12-.76,2.43-1.29,3.87-1.48h.02s.02,0,.03,0l1.46-.2h-.34v-3.12h-3.12v-2h3.12v-3.12h2v3.12h3.12v2h-3.12v2.89l9.33-1.25c1.39-.19,2.75-.04,4,.36,1.37-.04,2.72-.05,4.08-.05,1.4-.57,2.96-.79,4.56-.57l12.49,1.68c.74.1,1.45.29,2.11.55.74.11,1.49.31,2.21.62l5.45,2.3c1.72.11,3.43.72,4.9,1.86l.59.46.28.12c1.59.67,2.88,1.74,3.82,3.05l.88.68c1.11.43,2.15,1.08,3.05,1.95h1.56v1.67c.47.44.88.93,1.24,1.44h1.88v2h-.61l1.78,2.3c1.27.93,2.31,2.2,2.96,3.76l.39.93c.11.24.21.47.3.71l1.32,3.14c1.27,1.3,2.16,2.99,2.46,4.91,1.15,1.51,1.83,3.38,1.85,5.37.98,2.2,1.08,4.78.07,7.17l-.18.43c.23,2.27-.4,4.44-1.65,6.17h0c-.35,2.6-1.77,4.79-3.75,6.18-.24.36-.51.7-.8,1.02-2.48,7.43-2.81,15.29-.85,22.41,2.52,9.14,9.72,18.61,17.13,22.52,5.96,3.15,17.68,7.87,29.24,4.13,6.66-2.16,12.37-5.42,16.75-9.49v-2.59h-3.12v-2h3.12v-3.12h2v3.12h2.11c.78-1.06,1.49-2.15,2.11-3.28,8.51-15.5,12.88-32.39,12.64-48.85Z"/>
    </g>
  </g>
</svg>