<?xml version="1.0" encoding="UTF-8"?>
<svg id="Layer_8_copy" data-name="Layer 8 copy" xmlns="http://www.w3.org/2000/svg" viewBox="0 0 1112.92 371.89">
  <defs>
    <style>
      .cls-1 {
        fill: #ffc300;
      }
    </style>
  </defs>
  <g id="Zig_zags_copy" data-name="Zig zags copy">
    <g>
      <path class="cls-1" d="m61.24,83.79c5.33-5.81,15.69-10.02,24.64-10.02s19.09,4.17,24.75,10.14l92.18,97.18,92.18-97.18c5.99-6.32,15.01-9.94,24.75-9.94s18.76,3.62,24.75,9.94l92.18,97.18,92.18-97.18c5.99-6.32,15.01-9.94,24.75-9.94s18.76,3.62,24.75,9.94l92.18,97.18,92.18-97.18c5.99-6.32,15.01-9.94,24.75-9.94s18.76,3.62,24.75,9.94l92.19,97.18,92.19-97.18c7.39-7.79,17.78-9.82,25.2-10.15,10.96-.48,20.24,6.45,24.8,10.63h0c5.81,5.33,10.02,15.69,10.02,24.64s-3.83,18.08-10.51,25.12l-116.94,123.28c-5.99,6.32-15.01,9.94-24.75,9.94s-18.76-3.62-24.75-9.94l-92.19-97.18-92.18,97.18c-5.99,6.32-15.01,9.94-24.75,9.94s-18.76-3.62-24.75-9.94l-92.18-97.18-92.18,97.18c-5.99,6.32-15.01,9.94-24.75,9.94s-18.76-3.62-24.75-9.94l-92.18-97.18-92.18,97.18c-5.99,6.32-15.01,9.94-24.75,9.94s-18.76-3.62-24.75-9.94l-116.93-123.27c-13.58-14.32-13.54-35.5.11-50.37Z"/>
      <path d="m762.44,136.53h-3.12v-2h3.12v-3.12h2v3.12h3.12v2h-3.12v3.12h-2v-3.12Zm0,42.65h2v-3.12h3.12v-2h-3.12v-3.12h-2v3.12h-3.12v2h3.12v3.12Zm-12.23-59.3h2v-3.12h3.12v-2h-3.12v-3.12h-2v3.12h-3.12v2h3.12v3.12Zm-19.77,59.3h2v-3.12h3.12v-2h-3.12v-3.12h-2v3.12h-3.12v2h3.12v3.12Zm19.77-19.77h2v-3.12h3.12v-2h-3.12v-3.12h-2v3.12h-3.12v2h3.12v3.12Zm-19.77-19.77h2v-3.12h3.12v-2h-3.12v-3.12h-2v3.12h-3.12v2h3.12v3.12Zm51.76,19.77h2v-3.12h3.12v-2h-3.12v-3.12h-2v3.12h-3.12v2h3.12v3.12Zm39.54,0h2v-3.12h3.12v-2h-3.12v-3.12h-2v3.12h-3.12v2h3.12v3.12Zm0-39.53h2v-3.12h3.12v-2h-3.12v-3.12h-2v3.12h-3.12v2h3.12v3.12Zm-19.77-19.77h2v-3.12h3.12v-2h-3.12v-3.12h-2v3.12h-3.12v2h3.12v3.12Zm-19.77,19.77h2v-3.12h3.12v-2h-3.12v-3.12h-2v3.12h-3.12v2h3.12v3.12Zm19.77,19.76h2v-3.12h3.12v-2h-3.12v-3.12h-2v3.12h-3.12v2h3.12v3.12Zm-39.54-39.53h2v-3.12h3.12v-2h-3.12v-3.12h-2v3.12h-3.12v2h3.12v3.12Zm-111.06,150.6h2v-3.12h3.12v-2h-3.12v-3.12h-2v3.12h-3.12v2h3.12v3.12Zm0-71.53h2v-3.12h3.12v-2h-3.12v-3.12h-2v3.12h-3.12v2h3.12v3.12Zm0,39.54h2v-3.12h3.12v-2h-3.12v-3.12h-2v3.12h-3.12v2h3.12v3.12Zm-19.77-59.3h2v-3.12h3.12v-2h-3.12v-3.12h-2v3.12h-3.12v2h3.12v3.12Zm0,39.54h2v-3.12h3.12v-2h-3.12v-3.12h-2v3.12h-3.12v2h3.12v3.12Zm209.9-19.77h2v-3.12h3.12v-2h-3.12v-3.12h-2v3.12h-3.12v2h3.12v3.12Zm-150.6,0h2v-3.12h3.12v-2h-3.12v-3.12h-2v3.12h-3.12v2h3.12v3.12Zm-59.3,51.76h2v-3.12h3.12v-2h-3.12v-3.12h-2v3.12h-3.12v2h3.12v3.12Zm79.07,0h2v-3.12h3.12v-2h-3.12v-3.12h-2v3.12h-3.12v2h3.12v3.12Zm-39.53,0h2v-3.12h3.12v-2h-3.12v-3.12h-2v3.12h-3.12v2h3.12v3.12Zm39.53-32h2v-3.12h3.12v-2h-3.12v-3.12h-2v3.12h-3.12v2h3.12v3.12Zm-19.77,19.77h2v-3.12h3.12v-2h-3.12v-3.12h-2v3.12h-3.12v2h3.12v3.12Zm-19.77-19.77h2v-3.12h3.12v-2h-3.12v-3.12h-2v3.12h-3.12v2h3.12v3.12Zm39.53-39.54h2v-3.12h3.12v-2h-3.12v-3.12h-2v3.12h-3.12v2h3.12v3.12Zm261.67,39.54h2v-3.12h3.12v-2h-3.12v-3.12h-2v3.12h-3.12v2h3.12v3.12Zm19.77-19.77h2v-3.12h3.12v-2h-3.12v-3.12h-2v3.12h-3.12v2h3.12v3.12Zm-19.77-59.3h2v-3.12h3.12v-2h-3.12v-3.12h-2v3.12h-3.12v2h3.12v3.12Zm0,39.53h2v-3.12h3.12v-2h-3.12v-3.12h-2v3.12h-3.12v2h3.12v3.12Zm-19.77-19.77h2v-3.12h3.12v-2h-3.12v-3.12h-2v3.12h-3.12v2h3.12v3.12Zm0,39.54h2v-3.12h3.12v-2h-3.12v-3.12h-2v3.12h-3.12v2h3.12v3.12Zm59.3-59.3h2v-3.12h3.12v-2h-3.12v-3.12h-2v3.12h-3.12v2h3.12v3.12Zm19.77,19.76h2v-3.12h3.12v-2h-3.12v-3.12h-2v3.12h-3.12v2h3.12v3.12Zm-79.07,79.07h2v-3.12h3.12v-2h-3.12v-3.12h-2v3.12h-3.12v2h3.12v3.12Zm79.07-118.6h2v-3.12h3.12v-2h-3.12v-3.12h-2v3.12h-3.12v2h3.12v3.12Zm-39.53,0h2v-3.12h3.12v-2h-3.12v-3.12h-2v3.12h-3.12v2h3.12v3.12Zm19.77,59.3h2v-3.12h3.12v-2h-3.12v-3.12h-2v3.12h-3.12v2h3.12v3.12Zm-19.77-19.77h2v-3.12h3.12v-2h-3.12v-3.12h-2v3.12h-3.12v2h3.12v3.12Zm-150.6,0h2v-3.12h3.12v-2h-3.12v-3.12h-2v3.12h-3.12v2h3.12v3.12Zm19.77,19.77h2v-3.12h3.12v-2h-3.12v-3.12h-2v3.12h-3.12v2h3.12v3.12Zm19.77,91.3h2v-3.12h3.12v-2h-3.12v-3.12h-2v3.12h-3.12v2h3.12v3.12Zm0-32h2v-3.12h3.12v-2h-3.12v-3.12h-2v3.12h-3.12v2h3.12v3.12Zm-19.77,12.23h2v-3.12h3.12v-2h-3.12v-3.12h-2v3.12h-3.12v2h3.12v3.12Zm0-32h2v-3.12h3.12v-2h-3.12v-3.12h-2v3.12h-3.12v2h3.12v3.12Zm19.77-19.77h2v-3.12h3.12v-2h-3.12v-3.12h-2v3.12h-3.12v2h3.12v3.12Zm51.76,51.76h2v-3.12h3.12v-2h-3.12v-3.12h-2v3.12h-3.12v2h3.12v3.12Zm0-32h2v-3.12h3.12v-2h-3.12v-3.12h-2v3.12h-3.12v2h3.12v3.12Zm-19.77,19.77h2v-3.12h3.12v-2h-3.12v-3.12h-2v3.12h-3.12v2h3.12v3.12Zm-12.23-19.77h2v-3.12h3.12v-2h-3.12v-3.12h-2v3.12h-3.12v2h3.12v3.12Zm12.23,51.76h2v-3.12h3.12v-2h-3.12v-3.12h-2v3.12h-3.12v2h3.12v3.12Zm-12.23-19.77h2v-3.12h3.12v-2h-3.12v-3.12h-2v3.12h-3.12v2h3.12v3.12Zm-209.9,19.77h2v-3.12h3.12v-2h-3.12v-3.12h-2v3.12h-3.12v2h3.12v3.12Zm-432.03-91.3h2v-3.12h3.12v-2h-3.12v-3.12h-2v3.12h-3.12v2h3.12v3.12Zm19.77,19.77h2v-3.12h3.12v-2h-3.12v-3.12h-2v3.12h-3.12v2h3.12v3.12Zm0-39.54h2v-3.12h3.12v-2h-3.12v-3.12h-2v3.12h-3.12v2h3.12v3.12Zm-19.77,59.3h2v-3.12h3.12v-2h-3.12v-3.12h-2v3.12h-3.12v2h3.12v3.12Zm-19.77-19.77h2v-3.12h3.12v-2h-3.12v-3.12h-2v3.12h-3.12v2h3.12v3.12Zm59.3-19.77h2v-3.12h3.12v-2h-3.12v-3.12h-2v3.12h-3.12v2h3.12v3.12Zm-79.07,71.53h2v-3.12h3.12v-2h-3.12v-3.12h-2v3.12h-3.12v2h3.12v3.12Zm19.77-12.23h2v-3.12h3.12v-2h-3.12v-3.12h-2v3.12h-3.12v2h3.12v3.12Zm-19.77-19.77h2v-3.12h3.12v-2h-3.12v-3.12h-2v3.12h-3.12v2h3.12v3.12Zm130.83-19.77h2v-3.12h3.12v-2h-3.12v-3.12h-2v3.12h-3.12v2h3.12v3.12Zm-51.76-59.3h2v-3.12h3.12v-2h-3.12v-3.12h-2v3.12h-3.12v2h3.12v3.12Zm51.76,19.76h2v-3.12h3.12v-2h-3.12v-3.12h-2v3.12h-3.12v2h3.12v3.12Zm-19.77-19.76h2v-3.12h3.12v-2h-3.12v-3.12h-2v3.12h-3.12v2h3.12v3.12Zm-19.77,19.76h2v-3.12h3.12v-2h-3.12v-3.12h-2v3.12h-3.12v2h3.12v3.12Zm0-39.53h2v-3.12h3.12v-2h-3.12v-3.12h-2v3.12h-3.12v2h3.12v3.12Zm19.77,59.3h2v-3.12h3.12v-2h-3.12v-3.12h-2v3.12h-3.12v2h3.12v3.12Zm-170.37,19.77h2v-3.12h3.12v-2h-3.12v-3.12h-2v3.12h-3.12v2h3.12v3.12Zm-51.76-19.77h2v-3.12h3.12v-2h-3.12v-3.12h-2v3.12h-3.12v2h3.12v3.12Zm0-39.53h2v-3.12h3.12v-2h-3.12v-3.12h-2v3.12h-3.12v2h3.12v3.12Zm19.77,59.3h2v-3.12h3.12v-2h-3.12v-3.12h-2v3.12h-3.12v2h3.12v3.12Zm0-39.54h2v-3.12h3.12v-2h-3.12v-3.12h-2v3.12h-3.12v2h3.12v3.12Zm-59.3-19.76h2v-3.12h3.12v-2h-3.12v-3.12h-2v3.12h-3.12v2h3.12v3.12Zm19.77,19.76h2v-3.12h3.12v-2h-3.12v-3.12h-2v3.12h-3.12v2h3.12v3.12Zm0-39.53h2v-3.12h3.12v-2h-3.12v-3.12h-2v3.12h-3.12v2h3.12v3.12Zm59.3,59.3h2v-3.12h3.12v-2h-3.12v-3.12h-2v3.12h-3.12v2h3.12v3.12Zm0,39.54h2v-3.12h3.12v-2h-3.12v-3.12h-2v3.12h-3.12v2h3.12v3.12Zm51.76,51.76h2v-3.12h3.12v-2h-3.12v-3.12h-2v3.12h-3.12v2h3.12v3.12Zm-19.77-19.77h2v-3.12h3.12v-2h-3.12v-3.12h-2v3.12h-3.12v2h3.12v3.12Zm0-32h2v-3.12h3.12v-2h-3.12v-3.12h-2v3.12h-3.12v2h3.12v3.12Zm19.77,19.77h2v-3.12h3.12v-2h-3.12v-3.12h-2v3.12h-3.12v2h3.12v3.12Zm170.37-19.77h2v-3.12h3.12v-2h-3.12v-3.12h-2v3.12h-3.12v2h3.12v3.12Zm-209.9,19.77h2v-3.12h3.12v-2h-3.12v-3.12h-2v3.12h-3.12v2h3.12v3.12Zm288.97-19.77h2v-3.12h3.12v-2h-3.12v-3.12h-2v3.12h-3.12v2h3.12v3.12Zm130.83-19.77h2v-3.12h3.12v-2h-3.12v-3.12h-2v3.12h-3.12v2h3.12v3.12Zm-19.77-19.77h2v-3.12h3.12v-2h-3.12v-3.12h-2v3.12h-3.12v2h3.12v3.12Zm0-39.53h2v-3.12h3.12v-2h-3.12v-3.12h-2v3.12h-3.12v2h3.12v3.12Zm-19.77-19.77h2v-3.12h3.12v-2h-3.12v-3.12h-2v3.12h-3.12v2h3.12v3.12Zm0,39.53h2v-3.12h3.12v-2h-3.12v-3.12h-2v3.12h-3.12v2h3.12v3.12Zm-19.77,19.77h2v-3.12h3.12v-2h-3.12v-3.12h-2v3.12h-3.12v2h3.12v3.12Zm0-39.53h2v-3.12h3.12v-2h-3.12v-3.12h-2v3.12h-3.12v2h3.12v3.12Zm59.3-19.77h2v-3.12h3.12v-2h-3.12v-3.12h-2v3.12h-3.12v2h3.12v3.12Zm32,118.6h2v-3.12h3.12v-2h-3.12v-3.12h-2v3.12h-3.12v2h3.12v3.12Zm-12.23-98.84h2v-3.12h3.12v-2h-3.12v-3.12h-2v3.12h-3.12v2h3.12v3.12Zm-229.67,39.53h2v-3.12h3.12v-2h-3.12v-3.12h-2v3.12h-3.12v2h3.12v3.12Zm229.67,39.54h2v-3.12h3.12v-2h-3.12v-3.12h-2v3.12h-3.12v2h3.12v3.12Zm-98.84-59.3h2v-3.12h3.12v-2h-3.12v-3.12h-2v3.12h-3.12v2h3.12v3.12Zm79.07,0h2v-3.12h3.12v-2h-3.12v-3.12h-2v3.12h-3.12v2h3.12v3.12Zm19.77,19.77h2v-3.12h3.12v-2h-3.12v-3.12h-2v3.12h-3.12v2h3.12v3.12Zm12.23,19.77h2v-3.12h3.12v-2h-3.12v-3.12h-2v3.12h-3.12v2h3.12v3.12Zm-182.6,71.53h2v-3.12h3.12v-2h-3.12v-3.12h-2v3.12h-3.12v2h3.12v3.12Zm-19.77-51.76h2v-3.12h3.12v-2h-3.12v-3.12h-2v3.12h-3.12v2h3.12v3.12Zm39.54,32h2v-3.12h3.12v-2h-3.12v-3.12h-2v3.12h-3.12v2h3.12v3.12Zm-19.77-12.23h2v-3.12h3.12v-2h-3.12v-3.12h-2v3.12h-3.12v2h3.12v3.12Zm-39.53,0h2v-3.12h3.12v-2h-3.12v-3.12h-2v3.12h-3.12v2h3.12v3.12Zm19.77,12.23h2v-3.12h3.12v-2h-3.12v-3.12h-2v3.12h-3.12v2h3.12v3.12Zm-19.77-51.76h2v-3.12h3.12v-2h-3.12v-3.12h-2v3.12h-3.12v2h3.12v3.12Zm71.53,71.53h2v-3.12h3.12v-2h-3.12v-3.12h-2v3.12h-3.12v2h3.12v3.12Zm19.77-51.76h2v-3.12h3.12v-2h-3.12v-3.12h-2v3.12h-3.12v2h3.12v3.12Zm0,32h2v-3.12h3.12v-2h-3.12v-3.12h-2v3.12h-3.12v2h3.12v3.12Zm130.83-91.3h2v-3.12h3.12v-2h-3.12v-3.12h-2v3.12h-3.12v2h3.12v3.12Zm-130.83,19.77h2v-3.12h3.12v-2h-3.12v-3.12h-2v3.12h-3.12v2h3.12v3.12Zm19.77,19.77h2v-3.12h3.12v-2h-3.12v-3.12h-2v3.12h-3.12v2h3.12v3.12Zm-39.54,39.54h2v-3.12h3.12v-2h-3.12v-3.12h-2v3.12h-3.12v2h3.12v3.12Zm0-39.54h2v-3.12h3.12v-2h-3.12v-3.12h-2v3.12h-3.12v2h3.12v3.12Zm612.1-51.81c2.02,5.37,3.12,11.06,3.12,16.28,0,11.92-5.13,23.44-13.26,32.01-4.81,5.07-9.63,10.15-14.44,15.22-34.17,36.02-68.33,72.03-102.5,108.05-16.52,17.41-47.51,17.4-64.01,0-4.81-5.07-9.63-10.15-14.44-15.22-23.5-24.77-46.99-49.54-70.49-74.31-28.31,29.84-56.62,59.69-84.93,89.53-16.52,17.41-47.51,17.4-64.01,0-4.81-5.07-9.63-10.15-14.44-15.22-23.5-24.77-46.99-49.54-70.49-74.31-28.31,29.84-56.62,59.69-84.93,89.53-16.52,17.41-47.51,17.4-64.01,0-4.81-5.07-9.63-10.15-14.44-15.22-23.49-24.77-46.99-49.54-70.48-74.31-28.31,29.84-56.62,59.69-84.93,89.53-16.52,17.41-47.51,17.4-64.01,0-4.81-5.07-9.63-10.15-14.44-15.22-34.16-36.02-68.33-72.03-102.49-108.05-6.21-6.55-10.13-14.22-11.86-22.22l-5.23-5.51c-20.69-21.81-20.73-55.19-.11-77.66,9.06-9.87,24.88-16.5,39.37-16.5s29.83,6.43,39.26,16.38l77.67,81.88,77.67-81.88c9.75-10.28,24.06-16.17,39.26-16.17s29.51,5.9,39.26,16.17l77.67,81.88,77.67-81.88c9.75-10.28,24.06-16.17,39.26-16.17s29.51,5.9,39.27,16.17l77.67,81.88,77.67-81.88c9.75-10.28,24.06-16.17,39.26-16.17s29.51,5.9,39.27,16.17l77.68,81.89,77.68-81.89c9.34-9.85,23.13-15.66,38.81-16.37,13.48-.59,27.4,5.04,39.22,15.88h0c9.87,9.06,16.5,24.88,16.5,39.37,0,6.18-1.14,12.4-3.29,18.34Zm-402.79,140c.13,0,.25,0,.38,0h-.76c.13,0,.25,0,.38,0Zm64.43-51.77h-2.54v2.68l2.54-2.68Zm18.75-19.77h-1.53v1.61l1.53-1.61Zm68.01,0h-.51l.51.53v-.53Zm19.77,19.77h-1.52l1.52,1.6v-1.6Zm62.92,51.77c.13,0,.25,0,.38,0h-.76c.13,0,.25,0,.38,0Zm6.66-93.31h1.95v-2.05l-1.95,2.05Zm-349.02-98.84h1.23c-.41-.11-.82-.21-1.23-.31v.31Zm-170.36,59.3h.8l-.8-.85v.85Zm-19.77-19.76h1.82l-1.82-1.92v1.92Zm-19.77-19.77h2.84l-2.84-2.99v2.99Zm-290.93-11.21c-3.17,3.45-5.59,7.24-7.29,11.21h.15v2h-.94c-4.58,12.63-1.93,26.72,7.97,37.16l86.68,91.38v-2.83h2v3.12h3.12v2h-2.95l28.08,29.61c5.99,6.32,15.01,9.94,24.75,9.94,5.96,0,11.64-1.36,16.53-3.86v-1.27h2v.16c2.31-1.39,4.41-3.06,6.22-4.97l9.33-9.84h-.9v-2h2.8l.32-.33v-2.78h2v.68l14.65-15.44v-1.88h1.79l1.33-1.4v-1.72h1.63l59.24-62.46,92.18,97.18c5.99,6.32,15.01,9.94,24.75,9.94,3.17,0,6.27-.39,9.21-1.13v-.88h2.98s.09-.03.14-.05v-3.07h2v2.29c4-1.69,7.56-4.08,10.42-7.1l39.34-41.48v-.36h-3.12v-2h3.12v-3.12h2v3.12h.24l16.85-17.77h-2.44v-2h3.12v-3.12h2v2.3l16.07-16.95h-1.42v-2h3.12v-3.12h2v1.22l11.3-11.92,92.18,97.18c5.47,5.77,13.47,9.28,22.23,9.85v-1.92h3.12v-3.12h2v3.12h3.12v1.58c7.5-1.13,14.24-4.45,19.04-9.51l36.72-38.72h-1.58v-3.12h-3.12v-2h3.12v-3.12h2v3.12h3.12v1.39l15.22-16.04h-.57v-3.12h-3.12v-2h3.12v-3.12h2v3.12h3.12v.32l32.16-33.9,13.1,13.81h1.39v-3.12h2v3.12h3.12v2h-3.12v1.57l15.36,16.2h2.4v-3.12h2v3.12h3.12v2h-3.12v2.64l14.65,15.44v-.32h3.12v-3.12h2v3.12h3.12v2h-3.12v3.12h-.56l36.73,38.71c4.58,4.83,10.93,8.08,18.02,9.34v-1.41h3.12v-3.12h2v3.12h3.12v1.97c9.16-.35,17.57-3.91,23.25-9.9l116.94-123.28c4.75-5.01,8.05-11.09,9.57-17.39h-2.28v3.12h-2v-3.12h-3.12v-2h3.12v-3.12h2v3.12h2.69c.34-1.91.53-3.82.53-5.73,0-8.95-4.21-19.31-10.02-24.64h0c-4.56-4.18-13.83-11.12-24.8-10.63-2.4.11-5.12.4-7.94,1v.47h3.12v2h-3.12v3.12h-2v-3.12h-3.12v-1.03c-4.3,1.53-8.57,3.94-12.14,7.71l-66.77,70.39h2.96v-3.12h2v3.12h3.12v2h-3.12v3.12h-2v-3.12h-3.12v-1.84l-15.64,16.49h.99v3.12h3.12v2h-3.12v3.12h-2v-3.12h-3.12v-.77l-5.5,5.79-92.19-97.18c-5.99-6.32-15.01-9.94-24.75-9.94-1.1,0-2.19.05-3.28.14v1.11h3.12v2h-3.12v3.12h-2v-3.12h-3.12v-2h3.12v-.89c-7.67,1.06-14.58,4.42-19.47,9.58l-92.18,97.18-92.18-97.18c-3.51-3.7-8.05-6.46-13.17-8.13v1.45h-3.12v3.12h-2v-3.12h-3.12v-2h3.12v-.7c-2.1-.36-4.26-.55-6.46-.55-9.74,0-18.76,3.62-24.75,9.94l-92.18,97.18-4.77-5.03h-.67v3.12h-2v-3.12h-3.12v-2h3.12v-.81l-16.08-16.95h-1.69v3.12h-2v-3.12h-3.12v-2h3.12v-1.89l-15.06-15.88h-2.7v3.12h-2v-3.12h-3.12v-2h3.12v-2.96l-14.65-15.44v.64h-3.12v3.12h-2v-3.12h-3.12v-2h3.12v-3.12h.87l-15.52-16.36v1.71h-3.12v3.12h-2v-3.12h-3.12v-2h3.12v-3.12h1.88l-7.56-7.97c-2.63-2.77-5.84-5.02-9.45-6.68h-2.65v3.12h-2v-3.12h-3.12v-2h2.15c-3.09-.82-6.35-1.26-9.7-1.26-7.13,0-13.88,1.95-19.33,5.48v.9h-1.32c-1.48,1.07-2.86,2.25-4.1,3.56l-11.23,11.84v1.25h-1.18l-1.94,2.04v1.08h-1.02l-15.63,16.48v.17h-.17l-2.95,3.11h0s0,0,0,0l-58.06,61.21-1.81-1.91h-1.43v-1.51l-1.53-1.61h-1.59v-1.68l-14.65-15.44v.47h-2v-2.58l-.51-.54h-2.61v-2h.71l-15.36-16.19v1.54h-2v-3.12h-3.12v-2h1.73l-48.01-50.62c-5.66-5.97-15.84-10.14-24.75-10.14-3.92,0-8.1.81-12.02,2.2v1.26h-3.1s-.01,0-.02,0v3.11h-2v-2.13c-2.96,1.56-5.56,3.46-7.5,5.57Z"/>
    </g>
  </g>
</svg>