<?xml version="1.0" encoding="UTF-8"?>
<svg id="Layer_8_copy" data-name="Layer 8 copy" xmlns="http://www.w3.org/2000/svg" viewBox="0 0 1044.26 449.17">
  <defs>
    <style>
      .cls-1 {
        fill: #ffff47;
      }

      .cls-2 {
        fill: #ff67e2;
      }

      .cls-3 {
        fill: #87ffff;
      }
    </style>
  </defs>
  <g id="Zig_zags_copy" data-name="Zig zags copy">
    <g>
      <g>
        <path class="cls-3" d="m161.17,371.02c-25.36,0-46-20.64-46-46s20.64-46,46-46h659.63c-13.63,10.72-22.41,27.35-22.41,46s8.78,35.28,22.41,46H161.17Z"/>
        <path class="cls-1" d="m897.38,327.11c-1.09,21.38-18.82,38.44-40.47,38.44s-40.52-18.18-40.52-40.52,18.18-40.52,40.52-40.52,39.38,17.06,40.47,38.44c.03.69.05,1.38.05,2.08s-.02,1.39-.05,2.08Z"/>
      </g>
      <g>
        <path class="cls-2" d="m856.91,48.59c21.64,0,39.38,17.06,40.47,38.44.03.69.05,1.38.05,2.08s-.02,1.39-.05,2.08c-1.09,21.38-18.82,38.44-40.47,38.44s-40.52-18.18-40.52-40.52,18.18-40.52,40.52-40.52Z"/>
        <path class="cls-3" d="m161.17,43.11h659.63c-13.63,10.72-22.41,27.35-22.41,46s8.78,35.28,22.41,46H161.17c-25.36,0-46-20.64-46-46s20.64-46,46-46Z"/>
      </g>
      <path d="m915.15,319.13c-2.98-32.54-30.42-58.11-63.72-58.11H161.17c-35.29,0-64,28.71-64,64,0,31.55,22.95,57.82,53.03,63.04,7.73,21.01,27.93,36,51.62,36h690.26c30.38,0,55-24.62,55-55,0-22.13-13.08-41.21-31.93-49.93Zm-753.98,51.89c-25.36,0-46-20.64-46-46s20.64-46,46-46h659.63c-13.63,10.72-22.41,27.35-22.41,46s8.78,35.28,22.41,46H161.17Zm736.21-43.92c-1.09,21.38-18.82,38.44-40.47,38.44s-40.52-18.18-40.52-40.52,18.18-40.52,40.52-40.52,39.38,17.06,40.47,38.44c.03.69.05,1.38.05,2.08s-.02,1.39-.05,2.08ZM150.2,152.15c7.74,21.01,27.93,36,51.62,36h690.26c30.38,0,55-24.62,55-55,0-22.13-13.08-41.21-31.93-49.93-2.99-32.54-30.42-58.11-63.72-58.11H161.17c-35.29,0-64,28.71-64,64,0,31.55,22.95,57.82,53.03,63.04ZM856.91,48.59c21.64,0,39.38,17.06,40.47,38.44.03.69.05,1.38.05,2.08s-.02,1.39-.05,2.08c-1.09,21.38-18.82,38.44-40.47,38.44s-40.52-18.18-40.52-40.52,18.18-40.52,40.52-40.52Zm-695.74-5.48h659.63c-13.63,10.72-22.41,27.35-22.41,46s8.78,35.28,22.41,46H161.17c-25.36,0-46-20.64-46-46s20.64-46,46-46Z"/>
    </g>
  </g>
</svg>